<svg xmlns="http://www.w3.org/2000/svg" viewBox="0 0 77.16 75.11"><defs><style>.cls-1{isolation:isolate;}.cls-2,.cls-6,.cls-8{mix-blend-mode:multiply;}.cls-2,.cls-3{font-size:8px;font-family:AvenirNext-Bold, Avenir Next;font-weight:700;}.cls-2,.cls-3,.cls-7{fill:#3694aa;}.cls-4{font-size:7px;font-family:AvenirNext-DemiBold, Avenir Next;font-weight:300;}.cls-4,.cls-5{fill:#6a0c61;}.cls-8{fill:#5dc0c5;opacity:0.7;}.cls-9{fill:none;stroke:#6a0c61;stroke-miterlimit:10;}</style></defs><title>Recurso 9iconos</title><g class="cls-1"><g id="Capa_2" data-name="Capa 2"><g id="ëÎÓÈ_1" data-name="ëÎÓÈ 1"><text class="cls-2" transform="translate(9.06 30.78) rotate(-72.1)">O</text><text class="cls-3" transform="matrix(0.51, -0.86, 0.86, 0.51, 11.43, 23.85)">C</text><text class="cls-3" transform="matrix(0.66, -0.75, 0.75, 0.66, 14.63, 18.64)">E</text><text class="cls-3" transform="matrix(0.8, -0.6, 0.6, 0.8, 18.21, 14.62)">A</text><text class="cls-3" transform="translate(23.28 10.8) rotate(-24.68)">N</text><text class="cls-3" transform="matrix(0.97, -0.23, 0.23, 0.97, 29.57, 8.06)">S</text><text class="cls-3" transform="translate(34.8 6.98) rotate(-5.44)"> </text><text class="cls-3" transform="translate(37.41 6.69) rotate(1.95)">F</text><text class="cls-3" transform="translate(42.57 6.89) rotate(12.42)">R</text><text class="cls-3" transform="translate(48.28 8.29) rotate(21.08)">I</text><text class="cls-3" transform="matrix(0.87, 0.49, -0.49, 0.87, 51.24, 9.4)">E</text><text class="cls-3" transform="translate(55.96 12.03) rotate(40.99)">N</text><text class="cls-3" transform="translate(61.07 16.55) rotate(53.77)">D</text><text class="cls-3" transform="translate(64.93 22.06) rotate(64.71)">L</text><text class="cls-3" transform="translate(66.76 25.83) rotate(73.84)">Y</text><text class="cls-4" transform="matrix(0.42, 0.91, -0.91, 0.42, 6.42, 49.65)">E</text><text class="cls-4" transform="matrix(0.55, 0.83, -0.83, 0.55, 8.79, 54.49)">S</text><text class="cls-4" transform="translate(11.68 58.69) rotate(47.73)">P</text><text class="cls-4" transform="translate(15.35 62.61) rotate(38.93)">E</text><text class="cls-4" transform="translate(19.63 65.97) rotate(29.51)">C</text><text class="cls-4" transform="translate(24.81 68.73) rotate(22.18)">I</text><text class="cls-4" transform="matrix(0.96, 0.26, -0.26, 0.96, 27.58, 69.86)">E</text><text class="cls-4" transform="translate(32.78 71.19) rotate(6.66)">S</text><text class="cls-4" transform="translate(37.77 71.64) rotate(0.93)"> </text><text class="cls-4" transform="translate(40.57 71.76) rotate(-8.06)">M</text><text class="cls-4" transform="matrix(0.94, -0.34, 0.34, 0.94, 48.17, 70.49)">A</text><text class="cls-4" transform="translate(53.86 68.33) rotate(-29.21)">R</text><text class="cls-4" transform="matrix(0.81, -0.59, 0.59, 0.81, 58.51, 65.58)">I</text><text class="cls-4" transform="matrix(0.72, -0.69, 0.69, 0.72, 60.97, 63.84)">N</text><text class="cls-4" transform="matrix(0.58, -0.81, 0.81, 0.58, 65.68, 59.13)">A</text><text class="cls-4" transform="translate(69.11 54.12) rotate(-63.62)">S</text><path class="cls-5" d="M52.49,47a27.69,27.69,0,0,0,3.65-6.39c.49-1.2-1.45-1.71-1.93-.54a24.75,24.75,0,0,1-3,5.38,20.09,20.09,0,0,0-10-6.21c-7.5-1.87-15,1.18-19.85,7a1.39,1.39,0,0,0,0,1.56c4.88,5.81,12.6,9,20.11,6.92a20.77,20.77,0,0,0,9.7-6.15,24.58,24.58,0,0,1,3,5.39c.48,1.17,2.42.66,1.93-.54A28.13,28.13,0,0,0,52.49,47ZM32,52.65a19.36,19.36,0,0,1-8.61-5.6A19.55,19.55,0,0,1,32,41.4Zm3.32,0v-.57a1.14,1.14,0,0,0,0-2.28v-.57a1.71,1.71,0,0,1,0,3.42Zm0-4v-.57a1.14,1.14,0,1,0,0-2.27v-.57a1.71,1.71,0,0,1,0,3.41Zm0-3.91v-.57a1.14,1.14,0,1,0,0-2.27v-.57a1.71,1.71,0,0,1,0,3.41Zm3.87,7.87v-.57a1.14,1.14,0,1,0,0-2.28v-.57a1.71,1.71,0,0,1,0,3.42Zm0-4v-.57a1.14,1.14,0,1,0,0-2.27v-.57a1.71,1.71,0,1,1,0,3.41Zm0-3.91v-.57a1.14,1.14,0,1,0,0-2.27v-.57a1.71,1.71,0,1,1,0,3.41ZM43,50.85v-.57A1.14,1.14,0,0,0,43,48v-.56a1.71,1.71,0,1,1,0,3.41Zm0-4v-.57a1.14,1.14,0,1,0,0-2.27v-.57a1.71,1.71,0,1,1,0,3.41Z"/><path class="cls-5" d="M27.64,48.72a1.7,1.7,0,1,0-1.7-1.7A1.7,1.7,0,0,0,27.64,48.72Z"/><g class="cls-6"><path class="cls-7" d="M56,24.75c-4.88-5.82-12.36-8.87-19.85-7a20,20,0,0,0-10,6.21,24.92,24.92,0,0,1-3-5.37c-.48-1.18-2.42-.66-1.93.53a27.55,27.55,0,0,0,3.65,6.4,27.92,27.92,0,0,0-3.65,6.41c-.49,1.19,1.45,1.71,1.93.53a24.11,24.11,0,0,1,3-5.38,20.7,20.7,0,0,0,9.7,6.14c7.5,2.13,15.23-1.11,20.11-6.92a1,1,0,0,0,.24-.78A1,1,0,0,0,56,24.75ZM36.65,31.36a18.3,18.3,0,0,1-9.23-5.83,19,19,0,0,1,9-5.78C43,17.89,49.56,20.64,54,25.52,49.59,30.38,43.21,33,36.65,31.36Z"/><path class="cls-7" d="M49.43,23.93a1.7,1.7,0,1,0,1.7,1.7A1.7,1.7,0,0,0,49.43,23.93Z"/><path class="cls-7" d="M40.35,29.46a1.56,1.56,0,0,0,1.7,1.71V30.6a1.14,1.14,0,0,1,0-2.28v-.56A1.55,1.55,0,0,0,40.35,29.46Z"/><path class="cls-7" d="M40.35,25.5a1.56,1.56,0,0,0,1.7,1.71v-.57a1.14,1.14,0,0,1,0-2.27V23.8A1.55,1.55,0,0,0,40.35,25.5Z"/><path class="cls-7" d="M40.35,21.59a1.56,1.56,0,0,0,1.7,1.71v-.57a1.14,1.14,0,0,1,0-2.27v-.57A1.55,1.55,0,0,0,40.35,21.59Z"/><path class="cls-7" d="M36.48,29.46a1.87,1.87,0,0,0,1.7,1.71V30.6a1.14,1.14,0,0,1,0-2.28v-.56A1.86,1.86,0,0,0,36.48,29.46Z"/><path class="cls-7" d="M36.48,25.5a1.87,1.87,0,0,0,1.7,1.71v-.57a1.14,1.14,0,0,1,0-2.27V23.8A1.86,1.86,0,0,0,36.48,25.5Z"/><path class="cls-7" d="M36.48,21.59a1.87,1.87,0,0,0,1.7,1.71v-.57a1.14,1.14,0,0,1,0-2.27v-.57A1.86,1.86,0,0,0,36.48,21.59Z"/><path class="cls-7" d="M32.85,27.66a1.56,1.56,0,0,0,1.7,1.71V28.8c-1,0-1.13-.51-1.13-1.14s.16-1.14,1.13-1.14V26A1.55,1.55,0,0,0,32.85,27.66Z"/><path class="cls-7" d="M32.85,23.7a1.55,1.55,0,0,0,1.7,1.71v-.57c-1,0-1.13-.51-1.13-1.14s.16-1.13,1.13-1.13V22A1.55,1.55,0,0,0,32.85,23.7Z"/></g><path class="cls-8" d="M50.81,38.68a3.52,3.52,0,0,1-3.51-3.51h1.17a2.34,2.34,0,1,0,4.68,0h1.17A3.51,3.51,0,0,1,50.81,38.68Z"/><path class="cls-8" d="M58.89,38.68a3.51,3.51,0,0,1-3.51-3.51h1.17a2.34,2.34,0,1,0,4.68,0H62.4A3.51,3.51,0,0,1,58.89,38.68Z"/><path class="cls-8" d="M54.79,43.52A3.37,3.37,0,0,1,51.28,40h1.17a2.34,2.34,0,0,0,4.68,0H58.3A3.37,3.37,0,0,1,54.79,43.52Z"/><path class="cls-8" d="M50.81,48.84a3.52,3.52,0,0,1-3.51-3.51h1.17a2.34,2.34,0,1,0,4.68,0h1.17A3.51,3.51,0,0,1,50.81,48.84Z"/><path class="cls-8" d="M58.64,48.84a3.52,3.52,0,0,1-3.51-3.51H56.3a2.34,2.34,0,0,0,4.68,0h1.17A3.51,3.51,0,0,1,58.64,48.84Z"/><path class="cls-8" d="M42.86,48.84a3.52,3.52,0,0,1-3.51-3.51h1.17a2.34,2.34,0,0,0,4.68,0h1.17A3.51,3.51,0,0,1,42.86,48.84Z"/><path class="cls-8" d="M47,43.52A3.38,3.38,0,0,1,43.45,40h1.17a2.34,2.34,0,1,0,4.68,0h1.17A3.37,3.37,0,0,1,47,43.52Z"/><path class="cls-5" d="M72.91,38.05a1.21,1.21,0,1,1-2.42,0,1.21,1.21,0,0,1,2.42,0Z"/><path class="cls-5" d="M7.09,38a1.21,1.21,0,1,1-1.21-1.21A1.21,1.21,0,0,1,7.09,38Z"/><path class="cls-9" d="M66.56,36.5a27.71,27.71,0,0,1-55.41,0"/><path class="cls-9" d="M76.66,36.53a38.08,38.08,0,0,1-76.16,0"/></g></g></g></svg>