<svg xmlns="http://www.w3.org/2000/svg" viewBox="0 0 33.82 40.7"><defs><style>.cls-1{fill:#61636f;}.cls-2{fill:#494a53;}.cls-3{fill:#fff;}.cls-4{fill:#81828c;}.cls-5{fill:#b2355a;}</style></defs><title>Recurso 8iconos</title><g id="Capa_2" data-name="Capa 2"><g id="ëÎÓÈ_1" data-name="ëÎÓÈ 1"><path class="cls-1" d="M6.63,6.43C8.38,7.62,8.8,10,8,11.21S6.07,11,4.33,9.81.1,9.23.89,8.06,4.89,5.24,6.63,6.43Z"/><path class="cls-2" d="M11.51,7.82a5,5,0,0,0,2.74,1c2.86-1.27,4.67-.46,5.23-1,.76-.68-4.91-1.81-6.68-1.52S11.17,7.37,11.51,7.82Z"/><path class="cls-1" d="M22.55,4.2c-1.38,0-8,2.92-13.52,9.27a40.1,40.1,0,0,0-4.66,6.77c-.28.54-.59,1.72-1.43,1.54s-.82-1.66-.87-2.28A19,19,0,0,1,7.2,5.32,18.88,18.88,0,0,1,13.3.79c3.35-1.53,7.09-.63,8.05.94S23.29,4.17,22.55,4.2Z"/><path class="cls-1" d="M23.13,4.18l-4.76.18-.09-2.51L23,1.66a1.24,1.24,0,0,1,1.29,1.2v0A1.25,1.25,0,0,1,23.13,4.18Z"/><path class="cls-1" d="M3.7,20.48c1.51.32,2.38,2.29,2.09,3.68s-.46-.06-2-.38-4.09,2-3.8.62S2.18,20.17,3.7,20.48Z"/><path class="cls-1" d="M13.34,8.18c-.42.11-2,1.63-2,2.12.06,3.13-1.38,4.49-1.13,5.2.34,1,3.56-3.83,4-5.57S13.89,8,13.34,8.18Z"/><path class="cls-3" d="M17.75,3a.33.33,0,1,1-.46-.07A.32.32,0,0,1,17.75,3Z"/><path class="cls-4" d="M16.85,1c-2.78.47-5.32,2.38-7.3,4.29A62,62,0,0,0,4.21,11.7,18.65,18.65,0,0,1,8.92,4.38a13.67,13.67,0,0,1,3.93-2.67A7.41,7.41,0,0,1,16.85,1Z"/><path class="cls-1" d="M13.69,23.93c1.88,0,3.41,1.56,3.41,2.81s-1.52.82-3.4.83-3.4,1.69-3.4.44S11.82,23.93,13.69,23.93Z"/><path class="cls-2" d="M18,22.5a4.54,4.54,0,0,0,2.53-.62c1.46-2.37,3.19-2.69,3.35-3.34.21-.88-4.51,1.14-5.66,2.24S17.49,22.34,18,22.5Z"/><path class="cls-1" d="M24.25,14.29c-1,.74-4.4,6.17-5.26,13.6a35.62,35.62,0,0,0,0,7.3c.07.55.43,1.57-.27,1.86s-1.44-.81-1.79-1.24a16.9,16.9,0,0,1-3.36-13,16.89,16.89,0,0,1,2.2-6.39c1.69-2.81,4.89-4,6.38-3.36S24.78,13.9,24.25,14.29Z"/><path class="cls-1" d="M24.67,14l-3.4,2.52-1.33-1.8,3.39-2.52a1.11,1.11,0,0,1,1.55.23v0A1.1,1.1,0,0,1,24.67,14Z"/><path class="cls-1" d="M18.6,35.71A2.88,2.88,0,0,1,22,37.36c.49,1.15-.36.18-1.63.71s-2,3.52-2.48,2.36S17.33,36.24,18.6,35.71Z"/><path class="cls-1" d="M19.49,21.84a4.56,4.56,0,0,0-.4,2.57c1.62,2.26,1.25,4,1.79,4.38.73.53.69-4.6.12-6.09S19.83,21.46,19.49,21.84Z"/><path class="cls-3" d="M20.11,15.79a.3.3,0,1,1-.38.18A.31.31,0,0,1,20.11,15.79Z"/><path class="cls-4" d="M18.45,14.78c-1.81,1.75-2.71,4.43-3.21,6.83a52.45,52.45,0,0,0-.67,7.4,16.48,16.48,0,0,1-.23-7.74,12.25,12.25,0,0,1,1.54-3.93A6.59,6.59,0,0,1,18.45,14.78Z"/><path class="cls-5" d="M33.75,5.41A2.64,2.64,0,0,0,28.61,4.2l-.06.26h0l-.2-.18a2.64,2.64,0,0,0-3.66,3.8v0s.22.21.52.44a10.66,10.66,0,0,0,3.62,2.09,2.7,2.7,0,0,0,1.49,0l.06,0,.06,0a2.61,2.61,0,0,0,1.25-.81,10.67,10.67,0,0,0,1.9-3.71,4.57,4.57,0,0,0,.2-.66Z"/><path class="cls-5" d="M25.44,4.68a1.73,1.73,0,0,0-.31,2.58c.21.31.71,0,.49-.31-.39-.55-.56-1.37.13-1.77.32-.19,0-.69-.31-.5Z"/><path class="cls-5" d="M26.05,8.29a.29.29,0,0,0-.16-.56.29.29,0,0,0,.16.56Z"/></g></g></svg>