<svg xmlns="http://www.w3.org/2000/svg" viewBox="0 0 44.91 33.28"><defs><style>.cls-1{fill:#2e4767;}.cls-2{fill:#e56759;}</style></defs><title>Recurso 15iconos</title><g id="Capa_2" data-name="Capa 2"><g id="ëÎÓÈ_1" data-name="ëÎÓÈ 1"><path class="cls-1" d="M11.08,0A1.75,1.75,0,0,0,9.43,1.77v.94A5.85,5.85,0,0,0,4.12,8.52v3.72l-.62.13A4.41,4.41,0,0,0,0,16.67a4.56,4.56,0,0,0,.09.89.51.51,0,0,0,.6.39L4.3,17.2c.55,3.08,2.61,4.81,5,6.79l.31.26,0,0,4.83,3.49a4.38,4.38,0,0,0,1.16,4.86l.58.52a.51.51,0,0,0,.83-.28l.8-4.15,4-1.24a.5.5,0,0,0,.34-.38.43.43,0,0,0,0-.11.48.48,0,0,0-.17-.37l-.58-.52a4.34,4.34,0,0,0-4.75-.73l-2.31-3.7A9.63,9.63,0,0,1,12.9,16V12.44l2.9.54a.51.51,0,0,0,.59-.4,3.92,3.92,0,0,0,.08-.76A3.62,3.62,0,0,0,13.8,8.28l-.9-.35V1.73A1.74,1.74,0,0,0,11.08,0Zm.58,1.21a.74.74,0,0,1,.22.52V8.27a.52.52,0,0,0,.33.48l1.26.49.07,0a2.59,2.59,0,0,1,1.91,2.56v.06l-3-.54a.47.47,0,0,0-.41.11.47.47,0,0,0-.19.38V16a10.62,10.62,0,0,0,1.67,6.21l2.56,4.1a.51.51,0,0,0,.69.17,3.36,3.36,0,0,1,3.9.3l-3.47,1.07a.52.52,0,0,0-.34.39l-.69,3.56a3.37,3.37,0,0,1-1-2.43,3.31,3.31,0,0,1,.37-1.52.5.5,0,0,0-.16-.64l-5.14-3.73-.3-.25c-2.43-2-4.35-3.65-4.7-6.66l-.06-1.63a.51.51,0,1,0-1,0l0,1.22L1,16.85a1.09,1.09,0,0,1,0-.18,3.41,3.41,0,0,1,2.7-3.31l1-.21a.5.5,0,0,0,.4-.49V8.52A4.83,4.83,0,0,1,9.94,3.7a.51.51,0,0,0,.5-.51V1.77A.75.75,0,0,1,11.13,1,.69.69,0,0,1,11.66,1.21ZM9.2,5.53a.71.71,0,1,1-.71.71A.71.71,0,0,1,9.2,5.53Z"/><path class="cls-1" d="M32.55.48A1.73,1.73,0,0,0,32,1.73v6.2l-.91.35a3.62,3.62,0,0,0-2.66,3.54,3.92,3.92,0,0,0,.08.76.51.51,0,0,0,.59.4l2.9-.54V16a9.63,9.63,0,0,1-1.51,5.68l-2.31,3.7a4.34,4.34,0,0,0-4.75.73l-.58.52a.48.48,0,0,0-.17.37s0,.07,0,.11a.52.52,0,0,0,.35.38l4,1.24.81,4.15a.49.49,0,0,0,.33.38.5.5,0,0,0,.5-.1l.58-.52a4.38,4.38,0,0,0,1.16-4.86l4.83-3.49,0,0,.31-.26c2.37-2,4.44-3.71,5-6.79l3.61.75a.51.51,0,0,0,.6-.39,4.56,4.56,0,0,0,.09-.89,4.41,4.41,0,0,0-3.5-4.3l-.62-.13V8.52a5.85,5.85,0,0,0-5.31-5.81V1.77A1.73,1.73,0,0,0,32.55.48ZM33.78,1a.75.75,0,0,1,.69.76V3.19a.5.5,0,0,0,.5.51,4.83,4.83,0,0,1,4.81,4.82v4.14a.49.49,0,0,0,.4.49l1,.21a3.41,3.41,0,0,1,2.7,3.31c0,.06,0,.12,0,.18l-3.19-.66,0-1.22a.51.51,0,1,0-1,0l-.06,1.63c-.35,3-2.27,4.62-4.71,6.66l-.29.25L29.53,27.2a.51.51,0,0,0-.15.64,3.3,3.3,0,0,1,.36,1.52,3.36,3.36,0,0,1-1,2.43L28,28.23a.51.51,0,0,0-.35-.39L24.2,26.77a3.37,3.37,0,0,1,3.91-.3.51.51,0,0,0,.69-.17l2.56-4.1A10.61,10.61,0,0,0,33,16V11.83a.46.46,0,0,0-.18-.38.48.48,0,0,0-.41-.11l-3,.54a.13.13,0,0,1,0-.06,2.6,2.6,0,0,1,1.92-2.56l.07,0,1.26-.49A.51.51,0,0,0,33,8.27V1.73a.71.71,0,0,1,.23-.52A.69.69,0,0,1,33.78,1Zm2.63,5.23a.71.71,0,1,1-.7-.71A.7.7,0,0,1,36.41,6.24Z"/><g id="Icons"><path class="cls-2" d="M27.05,3.75a2.48,2.48,0,0,0-4.6-1.29,2.48,2.48,0,1,0-3.74,3.16l3.52,3.52a.31.31,0,0,0,.22.09.32.32,0,0,0,.23-.09L26.2,5.62A2.46,2.46,0,0,0,27.05,3.75Z"/></g></g></g></svg>