<svg xmlns="http://www.w3.org/2000/svg" viewBox="0 0 46.4 24.42"><defs><style>.cls-1{fill:#61636f;}.cls-2{fill:#494a53;}.cls-3{fill:#fff;}.cls-4{fill:#81828c;}</style></defs><title>Recurso 7iconos</title><g id="Capa_2" data-name="Capa 2"><g id="ëÎÓÈ_1" data-name="ëÎÓÈ 1"><path class="cls-1" d="M21.73,2.67c1.27,2.76,0,6.05-1.85,6.9s-2.23-1.69-3.5-4.45S11.6,1.25,13.45.41,20.47-.1,21.73,2.67Z"/><path class="cls-2" d="M26.71,8c.07.61,1.91,3.21,2.61,3.29,4.46.57,6.1,2.91,7.16,2.7,1.44-.28-4.7-5.88-7.09-6.84S26.62,7.19,26.71,8Z"/><path class="cls-1" d="M43,11.74c-1.74-1-12-2.35-23.55,1.38A57,57,0,0,0,8.69,18c-.75.46-2,1.68-2.91.83s.22-2.65.63-3.46C9.75,8.61,16.1,3.87,23.26,1.72a27.22,27.22,0,0,1,10.87-1c5.27.6,9.22,4.49,9.23,7.14S43.93,12.26,43,11.74Z"/><path class="cls-1" d="M43.73,12.15l-6-3.31,1.74-3.17,6,3.31a1.79,1.79,0,0,1,.7,2.43l0,0A1.79,1.79,0,0,1,43.73,12.15Z"/><path class="cls-1" d="M7.68,17.8c1.63,1.51,1.23,4.59-.15,6.08S7,23.46,5.38,22s-6.52-.58-5.14-2.06S6.05,16.28,7.68,17.8Z"/><path class="cls-1" d="M28.7,9.8c-.6-.18-3.7.52-4.05,1.13-2.24,3.9-5,4.51-5.25,5.57-.3,1.44,7.23-2.07,9-3.9S29.49,10,28.7,9.8Z"/><path class="cls-3" d="M38,6.65a.47.47,0,0,1-.43.51.46.46,0,0,1-.51-.42.47.47,0,0,1,.42-.52A.49.49,0,0,1,38,6.65Z"/><path class="cls-4" d="M38.38,3.53c-3.78-1.49-8.33-1-12.19-.14s-7.59,2.55-11.35,4A26.83,26.83,0,0,1,26.08,1.83a19.56,19.56,0,0,1,6.82-.36A10.69,10.69,0,0,1,38.38,3.53Z"/></g></g></svg>