<svg xmlns="http://www.w3.org/2000/svg" viewBox="0 0 48.29 32.24"><defs><style>.cls-1{fill:#264557;}</style></defs><title>Recurso 11iconos</title><g id="Capa_2" data-name="Capa 2"><g id="ëÎÓÈ_1" data-name="ëÎÓÈ 1"><path class="cls-1" d="M48.29,16.08a2.54,2.54,0,0,0-2.57-2.4H44.36A8.49,8.49,0,0,0,35.93,6H30.52l-.18-.9A6.4,6.4,0,0,0,24.1,0a6.27,6.27,0,0,0-1.29.13.74.74,0,0,0-.57.87l1.08,5.24c-4.46.8-7,3.79-9.85,7.23l-.38.45,0,0L8,21a6.22,6.22,0,0,0-2.3-.43A6.39,6.39,0,0,0,.94,22.65l-.75.84a.71.71,0,0,0-.15.72.74.74,0,0,0,.56.49l6,1.17,1.81,5.85a.69.69,0,0,0,.54.5l.16,0A.77.77,0,0,0,9.67,32l.75-.84a6.34,6.34,0,0,0,1.06-6.89l5.37-3.37a14,14,0,0,1,8.23-2.18h5.15l-.77,4.21a.72.72,0,0,0,.57.85A5.32,5.32,0,0,0,36.27,20l.52-1.31h9a2.53,2.53,0,0,0,2.52-2.64Zm-1.76.84a1,1,0,0,1-.76.33H36.28a.73.73,0,0,0-.68.46l-.72,1.84,0,.1a3.76,3.76,0,0,1-3.71,2.78H31l.8-4.32a.73.73,0,0,0-.72-.86h-6a15.41,15.41,0,0,0-9,2.41l-6,3.72a.74.74,0,0,0-.24,1,4.9,4.9,0,0,1-.44,5.67L7.89,25a.73.73,0,0,0-.57-.5l-5.17-1A4.92,4.92,0,0,1,5.68,22a5,5,0,0,1,2.22.52.72.72,0,0,0,.92-.22l5.42-7.46.36-.43c3-3.54,5.29-6.33,9.66-6.83l2.36-.09A.74.74,0,0,0,26.57,6l-1.78.07-.95-4.62h.26a4.92,4.92,0,0,1,4.8,3.91l.3,1.48a.74.74,0,0,0,.72.59h6a7,7,0,0,1,7,7,.74.74,0,0,0,.74.73h2.06a1.09,1.09,0,0,1,1.1,1A1,1,0,0,1,46.53,16.92Zm-6.26-3.56a1,1,0,1,1-1-1A1,1,0,0,1,40.27,13.36Z"/></g></g></svg>