<svg xmlns="http://www.w3.org/2000/svg" viewBox="0 0 27.91 46.36"><defs><style>.cls-1{fill:#61636f;}.cls-2{fill:#494a53;}.cls-3{fill:#fff;}.cls-4{fill:#81828c;}.cls-5{fill:#eda464;}</style></defs><title>Recurso 4icono-marinos-estrella</title><g id="Capa_2" data-name="Capa 2"><g id="ëÎÓÈ_1" data-name="ëÎÓÈ 1"><path class="cls-1" d="M6.24,22.61c2.45.81,3.77,3.5,3.23,5.13s-2.34.41-4.78-.39-5.16.75-4.62-.89S3.8,21.81,6.24,22.61Z"/><path class="cls-2" d="M12.43,22.59c.43.32,3.1.67,3.55.28,2.93-2.45,5.32-2.12,5.81-2.9.65-1.06-6.37-.46-8.34.47S11.87,22.18,12.43,22.59Z"/><path class="cls-1" d="M24.13,14.61c-1.59.53-8.38,6.13-12.7,15.44a47.94,47.94,0,0,0-3.16,9.5c-.15.74-.12,2.22-1.16,2.3s-1.52-1.67-1.79-2.39A23.13,23.13,0,0,1,6.54,21.12a23,23,0,0,1,5.6-7.37c3.41-2.93,8.11-3.14,9.76-1.63S25,14.33,24.13,14.61Z"/><path class="cls-1" d="M24.81,14.39,19.3,16.21l-1-2.91,5.5-1.82a1.52,1.52,0,0,1,1.92,1v0A1.51,1.51,0,0,1,24.81,14.39Z"/><path class="cls-1" d="M7.56,40.07c1.88-.14,3.57,1.88,3.7,3.59s-.56.09-2.44.23-4.11,3.72-4.24,2S5.68,40.21,7.56,40.07Z"/><path class="cls-1" d="M14.69,22.39c-.45.27-1.8,2.6-1.63,3.17C14.2,29.2,13,31.29,13.5,32c.72,1,2.88-5.69,2.78-7.87S15.29,22,14.69,22.39Z"/><path class="cls-3" d="M18.09,14.78a.41.41,0,0,1,.08.57.4.4,0,1,1-.08-.57Z"/><path class="cls-4" d="M16.37,12.76c-3.1,1.49-5.43,4.59-7.11,7.5a73.82,73.82,0,0,0-4.07,9.35,22.67,22.67,0,0,1,3-10.18A16.72,16.72,0,0,1,11.93,15,9.11,9.11,0,0,1,16.37,12.76Z"/><path class="cls-5" d="M27.73,5.65a.25.25,0,0,1,.16.32.25.25,0,0,1-.24.18h-.07L27.14,6A.25.25,0,0,1,27,5.68a.25.25,0,0,1,.32-.17Z"/><path class="cls-5" d="M27.32,3.06a.61.61,0,0,1-.16.65L25.64,5.19a.11.11,0,0,0,0,.11L26,7.39a.64.64,0,0,1-.26.62.63.63,0,0,1-.37.12.6.6,0,0,1-.29-.08l-1.88-1a.13.13,0,0,0-.12,0l-1.87,1a.63.63,0,0,1-.92-.66l.36-2.09a.15.15,0,0,0,0-.11L19.06,3.71a.65.65,0,0,1-.16-.65.63.63,0,0,1,.51-.43l2.1-.31a.12.12,0,0,0,.1-.07l.94-1.9A.62.62,0,0,1,23.11,0a.65.65,0,0,1,.57.35l.94,1.9a.11.11,0,0,0,.09.07l2.1.31A.61.61,0,0,1,27.32,3.06Zm-.51.28a.12.12,0,0,0,0-.13.12.12,0,0,0-.1-.08l-2.1-.31a.65.65,0,0,1-.48-.34L23.23.58a.11.11,0,0,0-.06-.06h-.06A.11.11,0,0,0,23,.58l-.94,1.9a.64.64,0,0,1-.48.34l-2.09.31a.14.14,0,0,0-.11.08.15.15,0,0,0,0,.13l1.51,1.48a.66.66,0,0,1,.19.56l-.36,2.09a.14.14,0,0,0,0,.13.13.13,0,0,0,.13,0l1.88-1a.59.59,0,0,1,.29-.07.66.66,0,0,1,.3.07l1.87,1a.15.15,0,0,0,.14,0,.14.14,0,0,0,0-.13l-.36-2.09a.62.62,0,0,1,.18-.56Z"/><path class="cls-5" d="M26.84,3.21a.12.12,0,0,1,0,.13L25.29,4.82a.62.62,0,0,0-.18.56l.36,2.09a.14.14,0,0,1,0,.13.15.15,0,0,1-.14,0l-1.87-1a.66.66,0,0,0-.3-.07.59.59,0,0,0-.29.07l-1.88,1a.13.13,0,0,1-.13,0,.14.14,0,0,1,0-.13l.36-2.09a.66.66,0,0,0-.19-.56L19.42,3.34a.15.15,0,0,1,0-.13.14.14,0,0,1,.11-.08l2.09-.31a.64.64,0,0,0,.48-.34L23,.58a.11.11,0,0,1,.11-.07h.06a.11.11,0,0,1,.06.06l.93,1.9a.65.65,0,0,0,.48.34l2.1.31A.12.12,0,0,1,26.84,3.21Z"/><path class="cls-5" d="M26.07.35a.25.25,0,0,1,.05.36l-.27.37a.25.25,0,0,1-.2.1.3.3,0,0,1-.15-.05.24.24,0,0,1-.05-.35l.26-.37A.27.27,0,0,1,26.07.35Z"/><path class="cls-5" d="M23.37,8.74v.45a.26.26,0,0,1-.26.26.26.26,0,0,1-.25-.26V8.74a.26.26,0,0,1,.25-.26A.26.26,0,0,1,23.37,8.74Z"/><path class="cls-5" d="M20.78.78a.26.26,0,0,1-.21.4.26.26,0,0,1-.2-.11L20.1.7a.25.25,0,0,1,.06-.35.25.25,0,0,1,.35.06Z"/><path class="cls-5" d="M19.25,5.68a.24.24,0,0,1-.17.31l-.43.15h-.08A.25.25,0,0,1,18.33,6a.26.26,0,0,1,.16-.32l.44-.14A.26.26,0,0,1,19.25,5.68Z"/></g></g></svg>