<?xml version="1.0" encoding="utf-8"?>
<!-- Generator: Adobe Illustrator 21.0.0, SVG Export Plug-In . SVG Version: 6.00 Build 0)  -->
<svg version="1.1" id="Capa_1" xmlns="http://www.w3.org/2000/svg" xmlns:xlink="http://www.w3.org/1999/xlink" x="0px" y="0px"
	 width="32px" height="32px" viewBox="0 0 64 52.5" enable-background="new 0 0 64 52.5" xml:space="preserve">
<g>
	<path fill="#B2355A" d="M60.4,31.6c5.7-7.3,4.4-17.9-2.8-23.6S39.7,3.5,34,10.8l-1.1,1.3l0,0l-0.6-1.6C28.9,2,19.2-2.2,10.6,1.1
		C2,4.5-2.2,14.2,1.1,22.8l0,0l0,0c0,0,0.7,1.8,1.9,3.9c3.6,8.2,8.8,15.6,15.3,21.7c2.4,2.2,5.4,3.6,8.6,4h0.7
		c3.2,0.4,6.5,0,9.4-1.3c7.9-4,15-9.6,20.7-16.4l2.9-3.2L60.4,31.6z"/>
</g>
</svg>
