<?xml version="1.0" encoding="utf-8"?>
<!-- Generator: Adobe Illustrator 21.0.0, SVG Export Plug-In . SVG Version: 6.00 Build 0)  -->
<svg version="1.1" id="Capa_1" xmlns="http://www.w3.org/2000/svg" xmlns:xlink="http://www.w3.org/1999/xlink" x="0px" y="0px"
	 width="32px" height="32px" viewBox="0 0 64 64" enable-background="new 0 0 64 64" xml:space="preserve">
<g>
	<path fill="#EDA464" d="M62.8,37.6c0.9,0.3,1.4,1.2,1.1,2.1c0,0,0,0,0,0c-0.2,0.7-0.9,1.1-1.6,1.1h-0.5l-2.9-1
		c-0.9-0.3-1.4-1.2-1.1-2.1c0.3-0.9,1.2-1.4,2.1-1.1L62.8,37.6z"/>
	<path fill="#EDA464" d="M60.1,20.3c0.5,1.5,0.1,3.2-1.1,4.3L49,34.6c-0.1,0.2-0.1,0.5,0,0.7l2.4,13.9c0.3,1.6-0.4,3.2-1.7,4.1
		c-0.7,0.5-1.6,0.8-2.5,0.8c-0.7,0-1.4-0.2-2-0.5L32.8,47c-0.2-0.1-0.5-0.1-0.8,0l-12.5,6.6c-2.1,1.1-4.7,0.2-5.7-1.9
		c-0.4-0.8-0.5-1.7-0.4-2.6l2.4-13.9c0.1-0.2,0.1-0.5,0-0.7L5.1,24.7c-1.7-1.6-1.7-4.2-0.1-5.9c0.7-0.7,1.5-1.1,2.5-1.3l14-2
		c0.3-0.1,0.5-0.2,0.6-0.5l6.2-12.6C28.9,0.9,30.4,0,32,0c1.6,0,3.1,0.9,3.7,2.4L42,15c0.1,0.2,0.4,0.4,0.7,0.5l14,2
		C58.2,17.7,59.6,18.8,60.1,20.3z M56.7,22.3c0.1-0.3,0.1-0.6,0-0.9c-0.1-0.3-0.4-0.5-0.7-0.6l-13.9-2c-1.4-0.2-2.6-1.1-3.2-2.3
		L32.6,3.9c-0.1-0.2-0.2-0.3-0.4-0.4l0,0c-0.3,0-0.6,0.2-0.8,0.5L25,16.5c-0.6,1.3-1.8,2.1-3.2,2.3l-14,2c-0.3,0.1-0.6,0.3-0.7,0.6
		C7,21.7,7,22,7.2,22.3l10.1,9.8c1,1,1.5,2.4,1.2,3.7l-2.4,13.9c-0.2,0.2-0.2,0.6,0,0.8c0.3,0.2,0.6,0.2,0.9,0l12.4-6.6
		c0.6-0.3,1.3-0.5,2-0.5c0.7,0,1.3,0.2,1.9,0.5l12.5,6.6c0.3,0.2,0.6,0.2,0.9,0c0.3-0.2,0.4-0.5,0.3-0.8l-2.4-13.9
		c-0.2-1.4,0.3-2.8,1.3-3.7L56.7,22.3z"/>
	<path fill="#EDA464" d="M56.9,21.3c0.1,0.3,0.1,0.6,0,0.9l-10.3,10c-1,1-1.5,2.3-1.3,3.7l2.4,13.9c0.1,0.3-0.1,0.6-0.3,0.8
		c-0.3,0.2-0.6,0.2-0.9,0l-12.5-6.6c-0.6-0.3-1.3-0.5-1.9-0.5c-0.7,0-1.4,0.2-2,0.5l-12.4,6.6c-0.3,0.2-0.6,0.2-0.9,0
		c-0.2-0.2-0.2-0.6,0-0.8l2.4-13.9c0.3-1.4-0.2-2.8-1.2-3.7L7.5,22.3c-0.2-0.3-0.2-0.6,0-0.9c0.1-0.3,0.3-0.5,0.7-0.6l14-2
		c1.3-0.3,2.3-1.2,2.9-2.3l6.6-12.6c0.2-0.3,0.5-0.5,0.8-0.5l0,0c0.2,0.1,0.3,0.2,0.4,0.4l6.2,12.6c0.6,1.3,1.8,2.1,3.2,2.3l13.9,2
		C56.5,20.8,56.8,21,56.9,21.3z"/>
	<path fill="#EDA464" d="M51.6,2.4C52.4,2.9,52.5,4,52,4.7c0,0,0,0,0,0l-1.8,2.5c-0.3,0.4-0.8,0.7-1.3,0.7c-0.3,0.1-0.7,0.1-1,0
		c-0.8-0.6-0.9-1.6-0.4-2.4L49.3,3c0.4-0.8,1.4-1.1,2.1-0.7C51.5,2.3,51.6,2.4,51.6,2.4z"/>
	<path fill="#EDA464" d="M33.8,58.1v3.1c0,0.9-0.7,1.7-1.7,1.7c-0.9,0-1.7-0.7-1.7-1.7v-3.1c0-0.9,0.8-1.7,1.7-1.7
		C33.1,56.4,33.8,57.2,33.8,58.1z"/>
	<path fill="#EDA464" d="M16.6,5.2c0.6,0.6,0.7,1.6,0.1,2.3c0,0,0,0-0.1,0.1c-0.3,0.1-0.7,0.1-1,0c-0.5,0-1.1-0.2-1.4-0.7l-1.7-2.5
		c-0.6-0.7-0.4-1.8,0.3-2.3c0.7-0.6,1.8-0.4,2.3,0.3L16.6,5.2z"/>
	<path fill="#EDA464" d="M6.4,37.8c0.2,0.9-0.3,1.9-1.2,2.1c0,0-0.1,0-0.1,0l-2.9,0.9H1.7c-0.7,0-1.4-0.4-1.6-1.1
		c-0.3-0.9,0.2-1.8,1-2.1c0,0,0,0,0,0L4,36.6c0.8-0.4,1.8-0.1,2.2,0.7C6.3,37.5,6.4,37.6,6.4,37.8z"/>
</g>
</svg>
