<svg xmlns="http://www.w3.org/2000/svg" viewBox="0 0 65.03 33.53"><defs><style>.cls-1{fill:#a9a9aa;}.cls-2{fill:#fff;}.cls-3{fill:#a59797;}.cls-4{fill:#61636f;}.cls-5{fill:#c3c4c6;}.cls-6{fill:#88898c;}</style></defs><title>Recurso 2iconos</title><g id="Capa_2" data-name="Capa 2"><g id="ëÎÓÈ_1" data-name="ëÎÓÈ 1"><path class="cls-1" d="M35.24,18.2s5.9,2.41,7.88,1.31c0,0-3.69-1-3.6-3S35.24,18.2,35.24,18.2Z"/><path class="cls-1" d="M32.91,4.28S37.52.91,39.49,1.06c0,0-4.51,2.9-1.82,4.68S32.91,4.28,32.91,4.28Z"/><path class="cls-1" d="M18.56,3.81S21.53.55,22.88,0a1.35,1.35,0,0,0,.62.44c.34.09.08.43.38.56s.23.63.47.61.4.36.65.45.53.46,1,.38.15.36,1.25.29a1.36,1.36,0,0,0,1,.19.87.87,0,0,0,.77.41s.25.23.4.23S20.51,6.53,18.56,3.81Z"/><path class="cls-2" d="M3.14,12.73s-3.34-.47-3.13,0,3.25,1,3.25,1Z"/><path class="cls-1" d="M59.84,12.42v-1C60.87,5.53,65,3.94,65,3.94l-.15-.07A4.14,4.14,0,0,0,62.06,5c-2.55,2-4.24,5.58-4.14,6.56,0,0-.06,7.52,5.69,8.6C60.45,18.37,59.84,12.42,59.84,12.42Z"/><path class="cls-3" d="M54.6,11.85l0,0Z"/><path class="cls-4" d="M57.92,11.59c-.1-1,1.59-4.61,4.14-6.56a4.14,4.14,0,0,1,2.82-1.16C62,2.65,58.26,8.32,57.7,9a22.64,22.64,0,0,1-2.65,2.14l-.45.73c.12-.15.76-.43,3.33,4.15,2.94,5.23,5.68,4.19,5.68,4.19C57.86,19.11,57.92,11.59,57.92,11.59Z"/><path class="cls-4" d="M40.49,6.57s.83-.21,1.06-.3.47.81.87,1S43.71,7,43.71,7a2.94,2.94,0,0,0,.72,1c.4.28,1.42-.23,1.42-.23s.32,1,.7,1.12,1.1-.4,1.1-.4a3.33,3.33,0,0,0,.7,1c.32.21,1.08-.42,1.08-.42s.28.78.7.93,1.15-.38,1.15-.38-.05.7.33.87,1.13-.32,1.13-.32a.54.54,0,0,0,.27.63,1.67,1.67,0,0,0,1.32-.12c.14-.13.42.38.42.38l.13.87a5.08,5.08,0,0,0-.38.72c-.09.23-.51-.28-.51-.28s-1,.24-1.1.72c0,0-.73-.59-1.17-.53a3.28,3.28,0,0,0-.38,1s-.68-.57-1-.57-.48.89-.44,1.1-.74-.45-1.1-.45c0,0-.79.79-.68,1.08l-.87-.44s-1,.42-.66,1a1.51,1.51,0,0,1-1.1-.19s-.78.79-.72,1-1-.59-1-.59l-.91,1.1-1-.38Z"/><path class="cls-5" d="M53.29,11.82c-.74.15-6-1.21-8.41-2s-6.49.13-7.74.11A46,46,0,0,1,30,8.43c-2.1-.59-12.82-.42-13.37-.12s-2.29.4-3.28.76-4.2.13-5.15,0a6.08,6.08,0,0,0-2.54.53c-.53.21-1,0-1.74.23a3.14,3.14,0,0,1-1.7.09,3,3,0,0,0-.78-.05c-.72.33-1.15.68-.78.89A25.24,25.24,0,0,1,3,13.13l-3-.41c-.45,1.8,12.22,6.22,12.22,6.22,13.06,3.29,23,.85,28.05-1.64a86.06,86.06,0,0,1,13.63-4.75s4.08-.46,4.08-.8a.31.31,0,0,0-.07-.16l-.71.13C56.25,11.89,54,11.67,53.29,11.82Z"/><path class="cls-4" d="M55.5,10.91c-1.59-.12-3.51-.29-10.13-2.78S29.83,1.67,18.7,3.64,2.3,9.53,2.3,9.53c-.32.12-.63.25-.9.38a3,3,0,0,1,.78.05,3.14,3.14,0,0,0,1.7-.09c.76-.19,1.21,0,1.74-.23a6.08,6.08,0,0,1,2.54-.53c.95.09,4.15.32,5.15,0S16,8.6,16.59,8.31,27.86,7.84,30,8.43A46,46,0,0,0,37.14,10c1.25,0,5.34-.85,7.74-.11s7.67,2.1,8.41,2,3,.07,3.92-.1l.71-.13A4,4,0,0,0,55.5,10.91Z"/><path class="cls-2" d="M11.36,12.37a3.52,3.52,0,0,1,.2.29,5.69,5.69,0,0,1,.45.8c.08.18.17.37.24.58a4.22,4.22,0,0,1,.17.68,3.26,3.26,0,0,1,0,.77,1.88,1.88,0,0,1-.3.77h0l0,0,0,0-.07.07a1.14,1.14,0,0,1-.16.15,1.94,1.94,0,0,1-.34.21,3,3,0,0,1-.74.23,3.37,3.37,0,0,1-.7,0,4,4,0,0,1-.62,0,6.92,6.92,0,0,1-.91-.18l-.33-.1.35,0a8.93,8.93,0,0,0,.9.06,5.62,5.62,0,0,0,1.25-.11,2.37,2.37,0,0,0,.65-.22,1.34,1.34,0,0,0,.28-.18l.12-.11.11-.13a1.4,1.4,0,0,0,.25-.62,2.22,2.22,0,0,0,0-.68,6,6,0,0,0-.29-1.23c-.12-.35-.24-.64-.33-.84Z"/><path class="cls-1" d="M16.15,12.82s.72-1.51,6.71-.81,8.18.58,6.57,1.15-8.18.76-8.88,1.52S15.62,13.77,16.15,12.82Z"/><path class="cls-1" d="M6.52,10.83a.75.75,0,1,1-.75-.78A.76.76,0,0,1,6.52,10.83Z"/><circle class="cls-2" cx="5.77" cy="10.83" r="0.53"/><path class="cls-2" d="M4.82,12.7l0,.15a1.2,1.2,0,0,1,0,.42.6.6,0,0,1-.08.28.42.42,0,0,1-.26.21.73.73,0,0,1-.36,0,2.07,2.07,0,0,1-.33-.1,5.07,5.07,0,0,1-1.12-.6l-.32-.25-.12-.11.13.09a2.76,2.76,0,0,0,.35.22,4.68,4.68,0,0,0,.51.28,5.46,5.46,0,0,0,.6.27l.32.09a.61.61,0,0,0,.3,0,.37.37,0,0,0,.22-.16.7.7,0,0,0,.09-.24,1.28,1.28,0,0,0,0-.4C4.83,12.76,4.82,12.7,4.82,12.7Z"/><path class="cls-6" d="M16.78,12.94l0,0,.09-.06.16-.07.22-.08.29-.07.33-.08.39-.07.43-.05a3.56,3.56,0,0,1,.47,0l.5,0c.35,0,.72,0,1.09,0s.77,0,1.17,0l1.2,0,1.2,0,1.16.08c.38,0,.74.06,1.09.09l1,.09L29,12.8l.54.07-.55,0-1.45-.09-2.06-.11-1.16-.06-1.2-.05-1.19,0H20.79l-1.09,0-.5,0-.47,0-.43,0-.38.05-.34,0a2,2,0,0,0-.28.06,1.09,1.09,0,0,0-.23.06l-.16.06-.1,0Z"/><path class="cls-6" d="M29.78,12.93H25.65l-1.18,0-1.22,0L22,12.84l-1.17,0h-1.1l-1,.05-.44,0L18,13l-.34.06-.28.07-.23.07-.16.06-.14.06.13-.07.16-.08.22-.08L17.6,13c.1,0,.21-.06.34-.08l.39-.08.43-.07.48-.05.51,0c.35,0,.72,0,1.11,0H22l1.22,0c.41,0,.81,0,1.21,0l1.18,0,2.09.08,1.48.07Z"/><path class="cls-6" d="M17.22,13.74l.11-.08a3,3,0,0,1,.34-.19,3.5,3.5,0,0,1,.56-.21A5,5,0,0,1,19,13.1a8.65,8.65,0,0,1,.92,0h3.24l4.16,0h1.89a5,5,0,0,1-.52.07l-1.37.09-1.93,0-1.1,0H20.94l-1,0a9.07,9.07,0,0,0-.91,0,5.33,5.33,0,0,0-.76.11,3.8,3.8,0,0,0-.56.17A2.49,2.49,0,0,0,17.22,13.74Z"/><path class="cls-6" d="M28.1,13.32l-.44,0c-.28,0-.67.08-1.15.12l-.77.07-.86.06c-.3,0-.61,0-.92,0l-.95,0h-.48l-.48,0-.92,0-.44,0h-.41c-.28,0-.53,0-.77,0l-.34,0-.3.05-.27,0-.22.05-.43.1.42-.14.22-.07.26-.07.31-.07.34-.05c.24,0,.5-.05.77-.07h.87l.92,0h2.36l.45,0,1.63-.06,1.16,0Z"/><path class="cls-6" d="M18.73,14.33l0,0,.11-.08a1,1,0,0,1,.18-.1L19.3,14l.29-.12.17,0a.58.58,0,0,1,.19,0l.19,0h.58l.39,0h.37l.35,0,.31,0h.64s-.25.06-.64.12l-.31,0H20l-.17,0a.9.9,0,0,0-.16,0l-.3.07-.44.14Z"/></g></g></svg>
