<svg height="27" viewBox="0 0 65 27" width="65" xmlns="http://www.w3.org/2000/svg"><g fill="none" transform="translate(-1)"><path d="m36.24 23.73s5.9 2.41 7.88 1.32c0 0-3.69-1-3.6-3s-4.28 1.68-4.28 1.68z" fill="#a9a9aa"/><path d="m33.91 9.81s4.61-3.37 6.58-3.22c0 0-4.51 2.91-1.82 4.69s-4.76-1.47-4.76-1.47z" fill="#a9a9aa"/><path d="m19.56 9.35s3-3.27 4.32-3.82c.1584987.21171196.373345.37457932.62.47.34.08.08.42.38.55s.23.64.47.61.4.36.65.45.53.47 1 .38.15.36 1.25.3c.2984008.18473284.6546405.25241839 1 .19.1671162.26094609.4604139.41330849.77.4 0 0 .25.23.4.23s-8.91 2.95-10.86.24z" fill="#a9a9aa"/><path d="m4.14 18.26s-3.34-.47-3.13 0 3.25 1 3.25 1z" fill="#fff"/><path d="m60.84 18v-1c1-5.94 5.19-7.53 5.19-7.53l-.15-.06c-.53-.07-1.43.1-2.82 1.16-2.55 1.94-4.24 5.58-4.14 6.55 0 0-.06 7.52 5.69 8.61-3.16-1.83-3.77-7.73-3.77-7.73z" fill="#a9a9aa"/><path d="m58.92 17.12c-.1-1 1.59-4.61 4.14-6.55 1.39-1.06 2.29-1.23 2.82-1.16-2.88-1.22-6.62 4.44-7.18 5.11-.8283435.7788643-1.7141833 1.4942217-2.65 2.14l-.45.72c.12-.14.76-.42 3.33 4.15 2.94 5.23 5.68 4.2 5.68 4.2-5.75-1.09-5.69-8.61-5.69-8.61z" fill="#61636f"/><path d="m41.49 12.1s.83-.21 1.06-.29.47.8.87 1 1.29-.25 1.29-.25c.163922.3820099.4097066.7233775.72 1 .4.28 1.42-.23 1.42-.23s.32.95.7 1.12 1.1-.4 1.1-.4c.1749172.355814.4119718.677531.7.95.32.22 1.08-.42 1.08-.42s.28.78.7.93 1.15-.38 1.15-.38-.05.7.33.87 1.13-.32 1.13-.32c-.073143.2503673.0396286.5176778.27.64.4389485.1419725.9171804.0948739 1.32-.13.14-.13.42.38.42.38l.13.87c-.1435193.2307201-.2705042.471323-.38.72-.09.23-.51-.27-.51-.27s-1 .23-1.1.72c0 0-.73-.6-1.17-.53-.1820537.3095667-.3105265.6476529-.38 1 0 0-.68-.57-1-.57s-.48.89-.44 1.1-.74-.44-1.1-.44c0 0-.79.78-.68 1.08l-.87-.45s-1 .43-.66 1c-.3774755.0794989-.7710634.0115155-1.1-.19 0 0-.78.78-.72 1s-1-.6-1-.6l-.91 1.1-1-.38z" fill="#61636f"/><path d="m54.29 17.36c-.74.14-6-1.21-8.41-1.95s-6.49.12-7.74.1c-2.4155393-.3175161-4.8027339-.8223709-7.14-1.51-2.1-.6-12.82-.43-13.37-.13s-2.29.4-3.28.76-4.2.13-5.15 0c-.87493974-.0081582-1.74133299.1726247-2.54.53-.53.22-1 .05-1.74.24-.5484012.1831692-1.13682097.2108595-1.7.08-.25737682-.0452443-.51895291-.062012-.78-.05-.72.34-1.15.68-.78.9.83280212.7253475 1.61465253 1.5071979 2.34 2.34l-3-.42c-.45 1.81 12.22 6.22 12.22 6.22 13.06 3.29 23 .85 28.05-1.64 4.4023049-1.9622155 8.9616702-3.5511359 13.63-4.75 0 0 4.1-.45 4.1-.79-.0056067-.0624412-.0300136-.1217151-.07-.17l-.71.13c-.97.17-3.22-.04-3.93.11z" fill="#c3c4c6"/><path d="m56.5 16.44c-1.59-.11-3.51-.28-10.13-2.77s-15.54-6.47-26.67-4.49-16.4 5.89-16.4 5.89c-.32.12-.63.24-.9.37.26104709-.012012.52262318.0047557.78.05.56317903.1308595 1.1515988.1031692 1.7-.08.76-.19 1.21 0 1.74-.24.79866701-.3573753 1.66506026-.5381582 2.54-.53.95.09 4.15.32 5.15 0s2.73-.46 3.28-.76 11.27-.51 13.41.12c2.3495076.6998015 4.7501663 1.214706 7.18 1.54 1.25 0 5.34-.84 7.74-.1s7.67 2.09 8.41 1.95 3 .06 3.92-.11l.71-.13c-.7200602-.4998049-1.584357-.7492564-2.46-.71z" fill="#61636f"/><path d="m12.36 17.91s.08.1.2.28c.1653935.2593988.3124197.5300607.44.81.0913467.1850205.1714911.3753636.24.57.0742214.2219133.1310597.4492664.17.68.030139.2557819.030139.5142181 0 .77-.0399821.2761833-.1425982.5395646-.3.77l-.11.21c-.0485534.0518626-.1021512.0987607-.16.14-.1030133.0881702-.2173613.16216-.34.22-.2343443.1097498-.4837598.1839003-.74.22-.2329401.0191579-.4670599.0191579-.7 0-.2063554.0160408-.4136446.0160408-.62 0-.3066744-.0370324-.6106394-.093817-.91-.17-.11185196-.0308573-.22200403-.0675747-.33-.11h.35c.22 0 .53 0 .9.05.4189695.0087922.837757-.0247108 1.25-.1.2266447-.0448462.4455892-.1223189.65-.23.1004518-.0481294.1945106-.1085958.28-.18.0864738-.0699883.1637531-.1506276.23-.24.1336198-.1826476.2195491-.395752.25-.62.0350806-.2253093.0350806-.4546907 0-.68-.0519009-.4160229-.1491457-.8251218-.29-1.22-.12-.35-.24-.64-.33-.85z" fill="#fff"/><path d="m17.15 18.35s.72-1.5 6.71-.8 8.18.57 6.57 1.14-8.18.76-8.88 1.53-4.93-.91-4.4-1.87z" fill="#a9a9aa"/><path d="m7.52 16.36c-.01640952.4099064-.35911119.7305702-.76920286.7197383s-.73538769-.3491398-.73013542-.7593409c.00525228-.410201.33910371-.7400691.74933828-.7403974.20333811.0026049.39715099.0865902.53809798.233175.14094698.1465849.21727015.3435411.21190202.546825z" fill="#a9a9aa"/><circle cx="6.77" cy="16.36" fill="#fff" r="1"/><path d="m5.82 18.24v.15c.02477798.1355436.02477798.2744564 0 .41-.00433953.1014811-.0316957.2006472-.08.29-.06001345.0977506-.15181126.171895-.26.21-.11811837.030053-.24188163.030053-.36 0-.11236827-.0205212-.22277193-.0506313-.33-.09-.39518349-.1562232-.77100586-.3575566-1.12-.6-.1132089-.0782889-.22019447-.1652147-.32-.26l-.12-.1.13.09.35.22c.14.09.32.18.51.28.19458488.0986635.39494944.1854881.6.26l.32.09c.0984408.0249736.2015592.0249736.3 0 .13428962.0033227.25863277-.070506.32-.19.0430293-.0744897.07343981-.1555844.09-.24.02119179-.1358452.02119179-.2741548 0-.41-.02-.06-.03-.11-.03-.11z" fill="#fff"/><g fill="#88898c"><path d="m17.78 18.48.09-.05c.0495655-.0311413.1034895-.054733.16-.07l.22-.08c.0945212-.0339093.191462-.0606516.29-.08l.33-.07.39-.07.43-.06h.47.5 1.09 1.17 1.2c.4 0 .81 0 1.2.06l1.16.07 1.09.09 1 .09 1.45.18.54.07h-.55l-1.45-.09-2.06-.11-1.16-.06h-1.2-1.19-1.16c-.38 0-.74 0-1.09 0h-.5c-.16 0-.32 0-.47 0h-.43l-.38.05-.34.05-.28.06-.23.06-.16.06c-.0361719.0102532-.0700942.0272144-.1.05z"/><path d="m30.78 18.46h-5.31-1.22-1.22-1.17-1.1c-.35 0-.68 0-1 .06h-.44l-.39.05-.34.07c-.0959026.0114823-.1899766.0350008-.28.07l-.23.06-.16.07h-.14l.13-.06.16-.08.22-.08c.0942464-.0373053.1911924-.067392.29-.09l.34-.09.39-.08.43-.06.48-.06h.51 1.11 1.16 1.22 1.21 1.18l2.09.08 1.48.08z"/><path d="m18.22 19.27.11-.08c.1090981-.0706312.2226707-.1340983.34-.19.1821396-.0815248.3691662-.1516597.56-.21.2523421-.0700888.509801-.1202431.77-.15.3046727-.0429436.6124678-.0596716.92-.05h3.24 4.16 1.37.39.13c-.1719888.0324182-.345561.0557836-.52.07-.33 0-.8.07-1.37.09s-1.23.05-1.93.06h-3.39-1.09-1c-.3030029-.0200242-.6069971-.0200242-.91 0-.2550921.0232706-.5087783.0599883-.76.11-.1907592.0421868-.377981.099022-.56.17-.1589204.044605-.3130118.1049017-.46.18z"/><path d="m29.1 18.85h-.44l-1.15.15-.77.06-.86.06c-.3 0-.61.05-.92.05h-.95-1l-.92-.05h-.44c-.1364882-.0098779-.2735118-.0098779-.41 0-.2564243-.0157751-.5135757-.0157751-.77 0h-.34-.3-.27l-.22.06-.43.09.42-.14.22-.07.26-.06.31-.07.38.07c.2543026-.0444862.5118442-.067899.77-.07h.87.92 1l.94.07h.47.45l1.63-.05h1.16z"/><path d="m19.73 19.86.11-.07.18-.11.24-.12.29-.11.17-.05h.19.19 1 .37.35.31.64l-.64.11h-.31-.35-1.47-.17-.16l-.3.08-.44.14z"/></g><g transform="translate(2)"><path d="m1.14155216 9.98054475c-.12615516 0-.25177833-.02758695-.3694978-.08245683-.21195588-.0988722-.37268969-.27434948-.45263862-.49405703-.04651021-.1275991-.06170963-.26348188-.04590224-.39731276-.09811223-.09241245-.17380533-.20633206-.22023955-.33393117-.07994893-.21970756-.06961333-.45750243.02918288-.66938229.0988722-.21195586.27427348-.37276568.49405702-.45271461.27700938-.10084813.58274564-.05228599.81468872.11756749l6.31497751-2.29845576c.06847338-.27921327.27153759-.5129043.54854694-.61375241.21970757-.07994895.45750244-.06961335.6693823.02925887.21195586.09879621.37268969.27427346.45271461.49398103.04643422.12759909.06163364.26348189.04590224.39738874.09811223.09241245.17372932.20625607.22023955.33385517.16506564.45362658-.06961335.95695525-.52323992 1.12209693-.27700936.10084811-.58282162.05228599-.81476471-.1174915l-6.31490152 2.29845574c-.06854936.27913727-.27161356.5129043-.54854692.61367644-.09773226.03556663-.19896035.05327395-.29996049.05327395z" fill="#82dcdc"/><path d="m9.64296572 6.01060918c-.04651023-.12767509-.12212732-.24151871-.22023955-.33393116.0157314-.13383086.00053198-.26978965-.04590224-.39738874-.08002492-.21970757-.24075875-.39518482-.45271461-.49398103-.21187986-.09879621-.44967473-.10920782-.6693823-.02925887-.27700935.10084811-.48007356.33453914-.54854694.61375241l-2.85809825 1.04024805v1.86329646l3.45687926-1.25820768c.23201909.16977749.53775535.21833961.81476471.1174915.45355058-.16506568.68830556-.66847035.52323992-1.12202094z" fill="#6dc8c8"/><path d="m8.5546115 9.98054475c-.10092413 0-.20222823-.01770732-.29996049-.05327395-.27693334-.10077214-.47999755-.33453917-.54854692-.61367644l-6.31490152-2.29845574c-.23194308.16977749-.53775533.21833961-.81468872.11756749-.45362657-.16514167-.68838155-.66854634-.52331589-1.12217292.04651021-.1275991.12212731-.24144272.22023955-.33385517-.0157314-.13383086-.00053198-.26978965.04597823-.39738874.07994893-.21970757.24068274-.39518482.45263862-.49398103.21195585-.09887222.44967473-.10920782.66938229-.02925887.27700936.10084811.48007356.33453914.54854693.61375241l6.31497751 2.29845576c.23194309-.16985348.53775535-.21833963.81468872-.11756749.21978356.07994893.39518482.24075875.49405702.45271461.09879621.21195586.1092078.44967473.02925889.66938229-.04651023.1276751-.12212732.24151872-.22023955.33393117.0157314.13383088.00045597.26971366-.04597823.39738876-.07994893.21970755-.24068276.39518482-.45263862.49398103-.11771948.05486988-.24334267.08245683-.36949782.08245683z" fill="#aaebeb"/><path d="m9.61370683 8.00340467c-.09879621-.21195586-.27427346-.37276568-.49405702-.45271461-.27693337-.10077214-.58274563-.05228599-.81468872.11756749l-3.45687926-1.25820771v1.86329646l2.85802226 1.04024806c.06854937.27913727.27161358.51282831.54854692.61367644.09773226.03556663.19903636.05327395.29996049.05327395.12607916 0 .25177834-.02758695.36949782-.08245683.21195586-.0988722.37268969-.27434948.45263862-.49405703.0464342-.1275991.06170963-.26348188.04590224-.39731276.09811223-.09241245.17380531-.20633206.22023953-.33393117.08002492-.21970756.06961333-.45742643-.02918288-.66938229z" fill="#82dcdc"/><path d="m6.20994953 7.21767084h-2.72365941c-.37550158 0-.68093386-.30543228-.68093386-.68085784v-.8361959c-.77091439-.63708354-1.20409774-1.59799064-1.16473126-2.59955619.06459753-1.64655276 1.40381809-2.99846484 3.04892693-3.07780581.88810188-.04255837 1.73090953.27039762 2.37270488.88202214.64217533.61200449.99586576 1.43740879.99586576 2.32421875 0 .51260031-.11794747 1.00247751-.35042255 1.4560281-.19865636.3875091-.47938959.73580373-.81689263 1.015017v.83627191c0 .37542556-.30543227.68085784-.68085786.68085784z" fill="#d2fafa"/><path d="m7.06225681.90527724c-.60349282-.57506992-1.38466683-.88604998-2.21417498-.88574621v7.19813981h1.36179171c.37550158 0 .68093385-.30543228.68093385-.68085784v-.83627191c.33750304-.27921327.61823627-.6275079.81689263-1.015017.23247508-.45355059.35042255-.94342779.35042255-1.4560281 0-.88680996-.35369043-1.71221426-.99586576-2.32421875z" fill="#aaebeb"/><path d="m3.77811891 7.21767084v-.77813411c0-.16118982.13063899-.29182879.2917528-.29182879.16118981 0 .2918288.13063897.2918288.29182879v.77813411z" fill="#5a5a6b"/><path d="m5.33446315 7.21767084v-.77813411c0-.16118982.13063899-.29182879.2918288-.29182879.16111381 0 .29182879.13063897.29182879.29182879v.77813411z" fill="#464655"/><path d="m3.68084265 3.71587732c-.48273347 0-.87548639-.39275292-.87548639-.87548639 0-.48273346.39275292-.87548638.87548639-.87548638.48273346 0 .87541039.39275292.87541039.87548638 0 .48273347-.39267693.87548639-.87541039.87548639z" fill="#5a5a6b"/><path d="m6.015397 3.71587732c-.48273346 0-.87548638-.39275292-.87548638-.87548639 0-.48273346.39275292-.87548638.87548638-.87548638.48273347 0 .87541039.39275292.87541039.87548638 0 .48273347-.39267692.87548639-.87541039.87548639z" fill="#464655"/><path d="m5.43196741 5.27222156c-.08876459 0-.17638922-.04027847-.23369103-.11673152l-.35019455-.46692607-.35019455.46692607c-.09666829.12896704-.27959327.15511004-.40856032.05836576-.12889105-.0967443-.15503404-.27959327-.05836575-.40856031l.58365758-.77821012c.0550979-.07341319.14158257-.11665553.23346304-.11665553s.17836515.04324234.23346303.11665553l.58365759.77821012c.09666829.12896704.07052529.31181601-.05836576.40856031-.05251397.03936648-.11399562.05836576-.17486928.05836576z" fill="#5a5a6b"/><path d="m5.66520245 4.80529549-.58365759-.77821012c-.05509788-.07341319-.14158256-.11665553-.23346303-.11665553v.77813413l.35019455.46692607c.05730181.07645305.14492644.11673152.23369103.11673152.06094967 0 .12235531-.01899928.17486928-.05836576.12889105-.0967443.15503405-.27959327.05836576-.40856031z" fill="#464655"/></g></g></svg>