<svg xmlns="http://www.w3.org/2000/svg" viewBox="0 0 65.03 26.06"><defs><style>.cls-1{fill:#a9a9aa;}.cls-2{fill:#fff;}.cls-3{fill:#a59797;}.cls-4{fill:#61636f;}.cls-5{fill:#c3c4c6;}.cls-6{fill:#88898c;}.cls-7{fill:#eda464;}</style></defs><title>Recurso 5icono-marinos-estrella</title><g id="Capa_2" data-name="Capa 2"><g id="ëÎÓÈ_1" data-name="ëÎÓÈ 1"><path class="cls-1" d="M35.24,23.73s5.9,2.41,7.88,1.32c0,0-3.69-1-3.6-3S35.24,23.73,35.24,23.73Z"/><path class="cls-1" d="M32.91,9.81s4.61-3.37,6.58-3.22c0,0-4.51,2.91-1.82,4.69S32.91,9.81,32.91,9.81Z"/><path class="cls-1" d="M18.56,9.35s3-3.27,4.32-3.82A1.41,1.41,0,0,0,23.5,6c.34.08.08.42.38.55s.23.64.47.61.4.36.65.45.53.47,1,.38.15.36,1.25.3a1.42,1.42,0,0,0,1,.19.87.87,0,0,0,.77.4s.25.23.4.23S20.51,12.06,18.56,9.35Z"/><path class="cls-2" d="M3.14,18.26s-3.34-.47-3.13,0,3.25,1,3.25,1Z"/><path class="cls-1" d="M59.84,18V17c1-5.94,5.19-7.53,5.19-7.53l-.15-.06c-.53-.07-1.43.1-2.82,1.16-2.55,1.94-4.24,5.58-4.14,6.55,0,0-.06,7.52,5.69,8.61C60.45,23.9,59.84,18,59.84,18Z"/><path class="cls-3" d="M54.6,17.38l0,0Z"/><path class="cls-4" d="M57.92,17.12c-.1-1,1.59-4.61,4.14-6.55,1.39-1.06,2.29-1.23,2.82-1.16C62,8.19,58.26,13.85,57.7,14.52a22.64,22.64,0,0,1-2.65,2.14l-.45.72c.12-.14.76-.42,3.33,4.15,2.94,5.23,5.68,4.2,5.68,4.2C57.86,24.64,57.92,17.12,57.92,17.12Z"/><path class="cls-4" d="M40.49,12.1s.83-.21,1.06-.29.47.8.87,1,1.29-.25,1.29-.25a2.84,2.84,0,0,0,.72,1c.4.28,1.42-.23,1.42-.23s.32.95.7,1.12,1.1-.4,1.1-.4a3.33,3.33,0,0,0,.7.95c.32.22,1.08-.42,1.08-.42s.28.78.7.93,1.15-.38,1.15-.38-.05.7.33.87,1.13-.32,1.13-.32a.55.55,0,0,0,.27.64,1.66,1.66,0,0,0,1.32-.13c.14-.13.42.38.42.38l.13.87a5.75,5.75,0,0,0-.38.72c-.09.23-.51-.27-.51-.27s-1,.23-1.1.72c0,0-.73-.6-1.17-.53a3.19,3.19,0,0,0-.38,1s-.68-.57-1-.57-.48.89-.44,1.1-.74-.44-1.1-.44c0,0-.79.78-.68,1.08l-.87-.45s-1,.43-.66,1a1.51,1.51,0,0,1-1.1-.19s-.78.78-.72,1-1-.6-1-.6l-.91,1.1-1-.38Z"/><path class="cls-5" d="M53.29,17.36c-.74.14-6-1.21-8.41-1.95s-6.49.12-7.74.1A47,47,0,0,1,30,14c-2.1-.6-12.82-.43-13.37-.13s-2.29.4-3.28.76-4.2.13-5.15,0a6.08,6.08,0,0,0-2.54.53c-.53.22-1,.05-1.74.24a3.13,3.13,0,0,1-1.7.08,3.56,3.56,0,0,0-.78-.05c-.72.34-1.15.68-.78.9A24.05,24.05,0,0,1,3,18.67l-3-.42c-.45,1.81,12.22,6.22,12.22,6.22,13.06,3.29,23,.85,28.05-1.64a86.06,86.06,0,0,1,13.63-4.75S58,17.63,58,17.29a.31.31,0,0,0-.07-.17l-.71.13C56.25,17.42,54,17.21,53.29,17.36Z"/><path class="cls-4" d="M55.5,16.44c-1.59-.11-3.51-.28-10.13-2.77S29.83,7.2,18.7,9.18,2.3,15.07,2.3,15.07c-.32.12-.63.24-.9.37a3.56,3.56,0,0,1,.78.05,3.13,3.13,0,0,0,1.7-.08c.76-.19,1.21,0,1.74-.24a6.08,6.08,0,0,1,2.54-.53c.95.09,4.15.32,5.15,0s2.73-.46,3.28-.76S27.86,13.37,30,14a47,47,0,0,0,7.18,1.54c1.25,0,5.34-.84,7.74-.1s7.67,2.09,8.41,1.95,3,.06,3.92-.11l.71-.13A4,4,0,0,0,55.5,16.44Z"/><path class="cls-2" d="M11.36,17.91s.08.1.2.28A6.59,6.59,0,0,1,12,19a5.15,5.15,0,0,1,.24.57,4.51,4.51,0,0,1,.17.68,3.29,3.29,0,0,1,0,.77,1.83,1.83,0,0,1-.3.77h0l0,0,0,0L12,22a1.07,1.07,0,0,1-.16.14,1.52,1.52,0,0,1-.34.22,2.6,2.6,0,0,1-.74.22,4.27,4.27,0,0,1-.7,0,4,4,0,0,1-.62,0,7.18,7.18,0,0,1-.91-.17,3.31,3.31,0,0,1-.33-.11l.35,0c.22,0,.53,0,.9.05a6.23,6.23,0,0,0,1.25-.1,2.39,2.39,0,0,0,.65-.23,1.34,1.34,0,0,0,.28-.18,1.32,1.32,0,0,0,.23-.24,1.36,1.36,0,0,0,.25-.62,2.21,2.21,0,0,0,0-.68,5.75,5.75,0,0,0-.29-1.22c-.12-.35-.24-.64-.33-.85Z"/><path class="cls-1" d="M16.15,18.35s.72-1.5,6.71-.8,8.18.57,6.57,1.14-8.18.76-8.88,1.53S15.62,19.31,16.15,18.35Z"/><path class="cls-1" d="M6.52,16.36a.75.75,0,1,1-.75-.78A.76.76,0,0,1,6.52,16.36Z"/><circle class="cls-2" cx="5.77" cy="16.36" r="0.53"/><path class="cls-2" d="M4.82,18.24l0,.15a1.14,1.14,0,0,1,0,.41.67.67,0,0,1-.08.29.5.5,0,0,1-.26.21.73.73,0,0,1-.36,0,2,2,0,0,1-.33-.09,5.52,5.52,0,0,1-1.12-.6,2.67,2.67,0,0,1-.32-.26l-.12-.1.13.09.35.22c.14.09.32.18.51.28a5.42,5.42,0,0,0,.6.26l.32.09a.61.61,0,0,0,.3,0A.35.35,0,0,0,4.76,19a.78.78,0,0,0,.09-.24,1.33,1.33,0,0,0,0-.41C4.83,18.29,4.82,18.24,4.82,18.24Z"/><path class="cls-6" d="M16.78,18.48l0,0,.09-.05a.59.59,0,0,1,.16-.07l.22-.08a2,2,0,0,1,.29-.08l.33-.07.39-.07.43-.06.47,0,.5,0c.35,0,.72,0,1.09,0s.77,0,1.17,0l1.2,0c.4,0,.81,0,1.2.06l1.16.07,1.09.09,1,.09,1.45.18.54.07-.55,0-1.45-.09-2.06-.11-1.16-.06-1.2,0-1.19,0H20.79c-.38,0-.74,0-1.09,0l-.5,0c-.16,0-.32,0-.47,0l-.43,0-.38.05-.34.05-.28.06-.23.06-.16.06a.3.3,0,0,0-.1.05Z"/><path class="cls-6" d="M29.78,18.46H24.47l-1.22,0-1.22,0-1.17,0h-1.1c-.35,0-.68,0-1,.06l-.44,0-.39.05-.34.07a1.15,1.15,0,0,0-.28.07l-.23.06-.16.07-.14,0,.13-.06.16-.08.22-.08a2,2,0,0,1,.29-.09l.34-.09.39-.08.43-.06.48-.06.51,0,1.11,0H22l1.22,0,1.21,0,1.18,0,2.09.08,1.48.08Z"/><path class="cls-6" d="M17.22,19.27l.11-.08a3,3,0,0,1,.34-.19,4.82,4.82,0,0,1,.56-.21,5,5,0,0,1,.77-.15,5.38,5.38,0,0,1,.92-.05h3.24l4.16,0c.57,0,1,0,1.37,0h.39l.13,0a5,5,0,0,1-.52.07c-.33,0-.8.07-1.37.09s-1.23.05-1.93.06H22l-1.09,0-1,0a6.9,6.9,0,0,0-.91,0,7.28,7.28,0,0,0-.76.11,3.8,3.8,0,0,0-.56.17A2.49,2.49,0,0,0,17.22,19.27Z"/><path class="cls-6" d="M28.1,18.85l-.44,0L26.51,19l-.77.06-.86.06c-.3,0-.61.05-.92.05l-.95,0h-1l-.92-.05h-.44a2.84,2.84,0,0,0-.41,0,6.27,6.27,0,0,0-.77,0l-.34,0-.3,0-.27,0-.22.06-.43.09.42-.14.22-.07.26-.06.31-.07L19.5,19a4.69,4.69,0,0,1,.77-.07c.28,0,.57,0,.87,0l.92,0h1L24,19h.47l.45,0,1.63-.05,1.16,0Z"/><path class="cls-6" d="M18.73,19.86l0,0,.11-.07.18-.11.24-.12.29-.11.17-.05.19,0,.19,0h1l.37,0h.35l.31,0c.38,0,.64,0,.64,0l-.64.11-.31,0-.35,0H20l-.17,0-.16,0-.3.08-.44.14Z"/><path class="cls-7" d="M12.37,5.65a.25.25,0,0,1,.16.32.25.25,0,0,1-.24.18h-.08L11.78,6a.25.25,0,0,1-.16-.31.25.25,0,0,1,.32-.17Z"/><path class="cls-7" d="M12,3.06a.63.63,0,0,1-.16.65L10.28,5.19a.11.11,0,0,0,0,.11l.35,2.09a.61.61,0,0,1-.25.62.63.63,0,0,1-.37.12.6.6,0,0,1-.29-.08l-1.88-1a.13.13,0,0,0-.12,0l-1.87,1a.63.63,0,0,1-.92-.66L5.26,5.3a.15.15,0,0,0,0-.11L3.7,3.71a.65.65,0,0,1-.16-.65.63.63,0,0,1,.51-.43l2.1-.31a.12.12,0,0,0,.1-.07L7.18.35a.64.64,0,0,1,1.14,0l.94,1.9a.11.11,0,0,0,.09.07l2.1.31A.61.61,0,0,1,12,3.06Zm-.51.28a.12.12,0,0,0,0-.13.12.12,0,0,0-.1-.08l-2.1-.31a.65.65,0,0,1-.48-.34L7.87.58A.11.11,0,0,0,7.81.52H7.75a.11.11,0,0,0-.11.07L6.7,2.48a.64.64,0,0,1-.48.34l-2.09.31A.14.14,0,0,0,4,3.21a.13.13,0,0,0,0,.13L5.57,4.82a.66.66,0,0,1,.19.56L5.4,7.47a.14.14,0,0,0,0,.13.13.13,0,0,0,.13,0l1.88-1a.59.59,0,0,1,.29-.07.66.66,0,0,1,.3.07l1.87,1a.15.15,0,0,0,.14,0,.18.18,0,0,0,0-.13L9.75,5.38a.62.62,0,0,1,.18-.56Z"/><path class="cls-7" d="M11.48,3.21a.12.12,0,0,1,0,.13L9.93,4.82a.62.62,0,0,0-.18.56l.36,2.09a.14.14,0,0,1,0,.13.15.15,0,0,1-.14,0l-1.87-1a.66.66,0,0,0-.3-.07.59.59,0,0,0-.29.07l-1.88,1a.13.13,0,0,1-.13,0,.14.14,0,0,1,0-.13l.36-2.09a.66.66,0,0,0-.19-.56L4.06,3.34a.13.13,0,0,1,0-.13.14.14,0,0,1,.11-.08l2.09-.31a.64.64,0,0,0,.48-.34L7.64.58A.11.11,0,0,1,7.75.51h.06a.11.11,0,0,1,.06.06l.93,1.9a.65.65,0,0,0,.48.34l2.1.31A.12.12,0,0,1,11.48,3.21Z"/><path class="cls-7" d="M10.71.35a.26.26,0,0,1,0,.36l-.27.37a.26.26,0,0,1-.2.1.3.3,0,0,1-.15-.05.25.25,0,0,1-.06-.35l.27-.37A.27.27,0,0,1,10.71.35Z"/><path class="cls-7" d="M8,8.74v.45a.25.25,0,1,1-.5,0V8.74a.25.25,0,1,1,.5,0Z"/><path class="cls-7" d="M5.42.78a.25.25,0,0,1-.06.35.27.27,0,0,1-.15.05A.24.24,0,0,1,5,1.07L4.74.7A.25.25,0,0,1,4.8.35a.25.25,0,0,1,.35.06Z"/><path class="cls-7" d="M3.88,5.68A.23.23,0,0,1,3.72,6l-.43.15H3.21A.25.25,0,0,1,3,6a.26.26,0,0,1,.16-.32l.44-.14A.24.24,0,0,1,3.88,5.68Z"/></g></g></svg>