<svg xmlns="http://www.w3.org/2000/svg" viewBox="0 0 47.21 32.97"><defs><style>.cls-1{fill:#a9a9aa;}.cls-2{fill:#fff;}.cls-3{fill:#a59797;}.cls-4{fill:#61636f;}.cls-5{fill:#c3c4c6;}.cls-6{fill:#88898c;}.cls-7{fill:#b2355a;}</style></defs><title>Recurso 3iconos</title><g id="Capa_2" data-name="Capa 2"><g id="ëÎÓÈ_1" data-name="ëÎÓÈ 1"><path class="cls-1" d="M12.39,22s2.08.85,2.77.46c0,0-1.29-.35-1.26-1S12.39,22,12.39,22Z"/><path class="cls-1" d="M11.57,17.15S13.2,16,13.89,16c0,0-1.59,1-.64,1.65S11.57,17.15,11.57,17.15Z"/><path class="cls-1" d="M6.53,17a7.94,7.94,0,0,1,1.52-1.34.5.5,0,0,0,.21.16c.12,0,0,.15.14.19s.08.23.16.22.14.12.23.15.19.17.35.14.06.13.44.1a.52.52,0,0,0,.35.07.29.29,0,0,0,.26.14s.09.08.15.08S7.21,17.94,6.53,17Z"/><path class="cls-2" d="M1.1,20.12S-.07,20,0,20.11s1.15.35,1.15.35Z"/><path class="cls-1" d="M21,20v-.34A3.36,3.36,0,0,1,22.87,17l-.05,0a1.47,1.47,0,0,0-1,.41,4.05,4.05,0,0,0-1.46,2.31s0,2.64,2,3C21.26,22.1,21,20,21,20Z"/><path class="cls-3" d="M19.2,19.81h0Z"/><path class="cls-4" d="M20.37,19.72a4.05,4.05,0,0,1,1.46-2.31,1.47,1.47,0,0,1,1-.41c-1-.42-2.33,1.57-2.53,1.8a7.49,7.49,0,0,1-.93.75l-.16.26c.05,0,.27-.15,1.17,1.46,1,1.84,2,1.47,2,1.47C20.35,22.36,20.37,19.72,20.37,19.72Z"/><path class="cls-4" d="M14.24,18l.37-.1c.09,0,.17.28.31.35s.45-.09.45-.09a1.12,1.12,0,0,0,.26.36c.14.09.5-.09.5-.09s.11.34.24.4.39-.14.39-.14A1,1,0,0,0,17,19c.11.08.38-.15.38-.15s.09.28.24.33S18,19,18,19s0,.24.12.3.4-.11.4-.11a.18.18,0,0,0,.09.22.6.6,0,0,0,.47,0c.05,0,.15.13.15.13l0,.31a2.44,2.44,0,0,0-.13.25c0,.08-.18-.09-.18-.09s-.37.08-.39.25c0,0-.25-.21-.41-.19a1.17,1.17,0,0,0-.13.35s-.24-.21-.35-.21-.18.32-.16.39-.26-.15-.39-.15-.27.27-.24.38l-.3-.16s-.34.15-.23.36a.55.55,0,0,1-.39-.07s-.28.28-.25.37-.34-.21-.34-.21l-.32.38-.36-.13Z"/><path class="cls-5" d="M18.74,19.8a16.92,16.92,0,0,1-3-.69,9.57,9.57,0,0,0-2.72,0,16.55,16.55,0,0,1-2.52-.54,24.08,24.08,0,0,0-4.7-.05c-.2.11-.81.14-1.16.27a6.87,6.87,0,0,1-1.81,0A2.12,2.12,0,0,0,2,19c-.19.08-.35,0-.62.08a1,1,0,0,1-.59,0,.9.9,0,0,0-.28,0c-.25.11-.4.23-.27.31a9.25,9.25,0,0,1,.83.82l-1-.15c-.15.64,4.3,2.19,4.3,2.19a14.7,14.7,0,0,0,9.87-.57A30.15,30.15,0,0,1,19,20.05a6.55,6.55,0,0,0,1.43-.27.07.07,0,0,0,0-.06l-.25,0C19.79,19.82,19,19.75,18.74,19.8Z"/><path class="cls-4" d="M19.52,19.48a11.4,11.4,0,0,1-3.56-1c-2.33-.87-5.47-2.27-9.38-1.58A14.69,14.69,0,0,0,.81,19l-.32.14a.9.9,0,0,1,.28,0,1,1,0,0,0,.59,0c.27-.06.43,0,.62-.08a2.12,2.12,0,0,1,.89-.18,6.87,6.87,0,0,0,1.81,0c.35-.13,1-.16,1.16-.27a24.08,24.08,0,0,1,4.7.05,16.55,16.55,0,0,0,2.52.54,9.57,9.57,0,0,1,2.72,0,16.92,16.92,0,0,0,3,.69c.26-.05,1.05,0,1.38,0l.25,0A1.33,1.33,0,0,0,19.52,19.48Z"/><path class="cls-2" d="M4,20l.08.1a1.87,1.87,0,0,1,.15.29,2,2,0,0,1,.09.2q0,.11.06.24a.82.82,0,0,1,0,.27.56.56,0,0,1-.1.27h0l0,0,0,.05a.35.35,0,0,1-.13.08,1.12,1.12,0,0,1-.26.08l-.24,0-.22,0L3,21.56l-.12,0H3l.31,0a2.22,2.22,0,0,0,.44,0L4,21.44l.1-.07,0,0,0-.05a.43.43,0,0,0,.09-.22,1,1,0,0,0,0-.24,1.81,1.81,0,0,0-.1-.43c0-.12-.08-.22-.11-.3Z"/><path class="cls-1" d="M5.68,20.15s.25-.53,2.36-.28,2.88.2,2.31.4-2.88.27-3.12.54S5.49,20.49,5.68,20.15Z"/><path class="cls-1" d="M2.29,19.45a.26.26,0,0,1-.26.27.27.27,0,0,1,0-.54A.26.26,0,0,1,2.29,19.45Z"/><circle class="cls-2" cx="2.03" cy="19.45" r="0.19"/><path class="cls-2" d="M1.69,20.11l0,.05a.61.61,0,0,1,0,.15.19.19,0,0,1,0,.1.16.16,0,0,1-.09.07.25.25,0,0,1-.12,0l-.12,0A1.42,1.42,0,0,1,1,20.24l-.12-.09,0,0,0,0,.13.08.18.09a1.36,1.36,0,0,0,.21.1l.11,0a.2.2,0,0,0,.11,0,.11.11,0,0,0,.07-.06.13.13,0,0,0,0-.08.38.38,0,0,0,0-.15A.12.12,0,0,0,1.69,20.11Z"/><path class="cls-6" d="M5.9,20.19h0l0,0,.06,0,.08,0,.1,0,.12,0,.13,0,.15,0,.17,0,.18,0H8.14l.42,0L9,20l.38,0,.35,0,.51.06.19,0h-.2l-.51,0-.72,0-.41,0-.42,0H6.44l-.14,0-.12,0-.1,0-.08,0,0,0,0,0Z"/><path class="cls-6" d="M10.47,20.19H8.61l-.43,0H7l-.35,0-.15,0-.14,0-.12,0-.1,0-.08,0,0,0,0,0,0,0,.06,0,.08,0,.1,0,.12,0,.14,0,.15,0,.17,0,.18,0H8.18l.43,0H9l.74,0,.52,0Z"/><path class="cls-6" d="M6.06,20.47l0,0a.35.35,0,0,1,.11-.07l.2-.08.27-.05.33,0h3.26l-.18,0-.48,0-.68,0H6.69l-.27,0-.2.06A.61.61,0,0,0,6.06,20.47Z"/><path class="cls-6" d="M9.88,20.33H9.73l-.41.05-.27,0-.3,0-.32,0H6.64l-.1,0-.08,0-.15,0,.15-.05.08,0,.09,0,.11,0,.12,0,.27,0a1.5,1.5,0,0,1,.3,0H8.75l.57,0h.56Z"/><path class="cls-6" d="M6.59,20.68h0l0,0,.06,0,.09,0,.1-.05H8l-.22,0H6.91l-.11,0-.15.05Z"/><path class="cls-1" d="M22.47,32.15s2.07.84,2.77.46c0,0-1.3-.36-1.27-1S22.47,32.15,22.47,32.15Z"/><path class="cls-1" d="M21.65,27.25s1.62-1.18,2.31-1.13c0,0-1.58,1-.64,1.65S21.65,27.25,21.65,27.25Z"/><path class="cls-1" d="M16.6,27.09a7.91,7.91,0,0,1,1.52-1.34.5.5,0,0,0,.22.15c.12,0,0,.15.13.2s.08.22.17.21.14.13.23.16.18.16.35.13.05.13.44.11a.46.46,0,0,0,.34.06.31.31,0,0,0,.27.15s.09.08.14.08S17.29,28,16.6,27.09Z"/><path class="cls-2" d="M11.18,30.22s-1.18-.16-1.1,0,1.14.35,1.14.35Z"/><path class="cls-1" d="M31.12,30.11v-.33a3.35,3.35,0,0,1,1.82-2.65l0,0a1.44,1.44,0,0,0-1,.41,4,4,0,0,0-1.46,2.3s0,2.65,2,3C31.33,32.21,31.12,30.11,31.12,30.11Z"/><path class="cls-3" d="M29.28,29.91v0Z"/><path class="cls-4" d="M30.44,29.82a4,4,0,0,1,1.46-2.3,1.44,1.44,0,0,1,1-.41c-1-.43-2.33,1.56-2.52,1.8a9.52,9.52,0,0,1-.94.75l-.15.25c0-.05.26-.15,1.17,1.46,1,1.84,2,1.48,2,1.48C30.42,32.47,30.44,29.82,30.44,29.82Z"/><path class="cls-4" d="M24.31,28.06l.38-.11c.08,0,.16.29.3.35s.46-.09.46-.09a1,1,0,0,0,.25.36c.14.1.5-.08.5-.08s.11.33.25.39.38-.14.38-.14a1.37,1.37,0,0,0,.25.34c.11.07.38-.15.38-.15s.1.27.25.33.4-.14.4-.14,0,.25.12.31.39-.11.39-.11a.19.19,0,0,0,.1.22.57.57,0,0,0,.46-.05c.05,0,.15.14.15.14l0,.3s-.1.18-.13.26-.18-.1-.18-.1-.36.08-.39.25c0,0-.25-.2-.41-.18a1.2,1.2,0,0,0-.13.34s-.24-.2-.35-.2-.17.31-.16.39-.26-.16-.38-.16-.28.28-.24.38l-.31-.16s-.33.15-.23.36a.55.55,0,0,1-.39-.07s-.27.28-.25.37-.34-.21-.34-.21l-.32.39-.35-.14Z"/><path class="cls-5" d="M28.82,29.9a16.51,16.51,0,0,1-3-.68,9.22,9.22,0,0,0-2.72,0,16.83,16.83,0,0,1-2.53-.55,23.23,23.23,0,0,0-4.7,0c-.19.1-.81.14-1.16.27a7.31,7.31,0,0,1-1.81,0,2,2,0,0,0-.89.19c-.19.07-.34,0-.61.08a1.14,1.14,0,0,1-.6,0,1.27,1.27,0,0,0-.27,0c-.26.12-.41.24-.28.32a7.39,7.39,0,0,1,.84.82l-1.05-.15c-.16.64,4.29,2.19,4.29,2.19a14.68,14.68,0,0,0,9.87-.58A30.74,30.74,0,0,1,29,30.16a6,6,0,0,0,1.43-.28.09.09,0,0,0,0-.06l-.25.05C29.86,29.93,29.08,29.85,28.82,29.9Z"/><path class="cls-4" d="M29.59,29.58a11.61,11.61,0,0,1-3.56-1c-2.33-.88-5.46-2.28-9.38-1.58a14.59,14.59,0,0,0-5.77,2.07l-.31.13a1.27,1.27,0,0,1,.27,0,1.14,1.14,0,0,0,.6,0c.27-.07.42,0,.61-.08a2,2,0,0,1,.89-.19,7.31,7.31,0,0,0,1.81,0c.35-.13,1-.17,1.16-.27a23.23,23.23,0,0,1,4.7,0,16.83,16.83,0,0,0,2.53.55,9.22,9.22,0,0,1,2.72,0,16.51,16.51,0,0,0,3,.68c.26,0,1,0,1.37,0l.25-.05A1.48,1.48,0,0,0,29.59,29.58Z"/><path class="cls-2" d="M14.07,30.1a.51.51,0,0,1,.07.1,2.74,2.74,0,0,1,.16.28,1.19,1.19,0,0,1,.08.2,1.05,1.05,0,0,1,.06.24,1.22,1.22,0,0,1,0,.27.54.54,0,0,1-.11.27h0l0,0-.06.05-.12.08a.92.92,0,0,1-.26.07,1.1,1.1,0,0,1-.25,0h-.22l-.31-.07-.12,0h.12l.32,0a2.39,2.39,0,0,0,.44,0,1,1,0,0,0,.23-.08l.1-.06s0,0,0,0l0-.05a.49.49,0,0,0,.08-.21.65.65,0,0,0,0-.24,2.27,2.27,0,0,0-.1-.43l-.12-.3Z"/><path class="cls-1" d="M15.75,30.25s.26-.52,2.36-.28,2.88.2,2.32.4-2.88.27-3.13.54S15.57,30.59,15.75,30.25Z"/><path class="cls-1" d="M12.37,29.55a.27.27,0,1,1-.53,0,.27.27,0,1,1,.53,0Z"/><circle class="cls-2" cx="12.1" cy="29.55" r="0.19"/><path class="cls-2" d="M11.77,30.21a.32.32,0,0,1,0,.06.29.29,0,0,1,0,.14.16.16,0,0,1,0,.1.2.2,0,0,1-.1.08.24.24,0,0,1-.12,0,.53.53,0,0,1-.12,0,2,2,0,0,1-.39-.21l-.12-.09,0,0,0,0,.12.08.18.1a1.89,1.89,0,0,0,.21.09.27.27,0,0,0,.12,0h.1l.08-.05a.32.32,0,0,0,0-.09.64.64,0,0,0,0-.14A.28.28,0,0,1,11.77,30.21Z"/><path class="cls-6" d="M16,30.3h0l0,0,.05,0,.08,0,.1,0,.12,0,.14,0,.15,0,.16,0H17l.38,0h.84l.42,0,.41,0,.38,0,.34,0,.51.06.19,0h-.19l-.51,0-.73,0-.41,0H16.38l-.12,0-.1,0-.08,0-.06,0h0Z"/><path class="cls-6" d="M20.55,30.29h-2.3l-.43,0H17l-.34,0h-.15l-.14,0-.12,0-.1,0-.08,0-.06,0-.05,0,.05,0,0,0,.08,0,.1,0,.12,0,.14,0,.15,0,.17,0h.57a2.94,2.94,0,0,1,.42,0h.85l.42,0,.73,0,.52,0Z"/><path class="cls-6" d="M16.13,30.58l0,0,.12-.07.2-.07.27-.06h3.59l-.18,0-.49,0-.68,0H16.76l-.27,0-.2.06Z"/><path class="cls-6" d="M20,30.43l-.16,0-.4,0-.27,0-.31,0h-1l-.32,0h-.69l-.11,0h-.09l-.08,0-.15,0,.14-.05.08,0,.09,0,.11,0h.12l.27,0h1.62l.57,0,.41,0Z"/><path class="cls-6" d="M16.66,30.78h0l0,0,.07,0,.08,0,.11,0,.06,0h1.06l-.23,0H17l-.1,0-.16.05Z"/><path class="cls-1" d="M36.73,21.49s2.07.85,2.77.46c0,0-1.29-.35-1.26-1S36.73,21.49,36.73,21.49Z"/><path class="cls-1" d="M35.91,16.6s1.62-1.19,2.32-1.14c0,0-1.59,1-.64,1.65S35.91,16.6,35.91,16.6Z"/><path class="cls-1" d="M30.87,16.43a7.61,7.61,0,0,1,1.52-1.34.44.44,0,0,0,.21.16c.12,0,0,.15.14.19s.08.22.16.22.14.12.23.15.19.17.35.14.05.12.44.1a.5.5,0,0,0,.34.07.31.31,0,0,0,.27.14s.09.08.14.08S31.55,17.39,30.87,16.43Z"/><path class="cls-2" d="M25.44,19.57s-1.17-.17-1.1,0,1.14.35,1.14.35Z"/><path class="cls-1" d="M45.38,19.46v-.34a3.34,3.34,0,0,1,1.83-2.64l-.05,0a1.49,1.49,0,0,0-1,.41,4,4,0,0,0-1.45,2.31s0,2.64,2,3C45.6,21.55,45.38,19.46,45.38,19.46Z"/><path class="cls-3" d="M43.54,19.26h0Z"/><path class="cls-4" d="M44.71,19.17a4,4,0,0,1,1.45-2.31,1.49,1.49,0,0,1,1-.41c-1-.43-2.33,1.57-2.53,1.8a7.49,7.49,0,0,1-.93.75l-.16.26c0-.05.27-.15,1.17,1.46,1,1.84,2,1.47,2,1.47C44.69,21.81,44.71,19.17,44.71,19.17Z"/><path class="cls-4" d="M38.58,17.4l.37-.1c.08,0,.16.28.31.35s.45-.09.45-.09a.94.94,0,0,0,.25.35c.15.1.5-.08.5-.08s.11.34.25.4.39-.14.39-.14a1.11,1.11,0,0,0,.24.33c.11.08.38-.15.38-.15s.1.28.25.33.4-.13.4-.13,0,.24.12.3.39-.11.39-.11a.19.19,0,0,0,.1.22.57.57,0,0,0,.46,0c.06-.05.15.13.15.13l0,.31a2,2,0,0,0-.14.25c0,.08-.18-.1-.18-.1s-.36.09-.38.26c0,0-.26-.21-.41-.19a1.15,1.15,0,0,0-.14.34s-.24-.2-.35-.2-.17.32-.15.39-.26-.16-.39-.16-.28.28-.24.38L41,20.1s-.33.15-.23.36a.52.52,0,0,1-.38-.07s-.28.27-.26.36-.33-.21-.33-.21l-.32.39-.36-.13Z"/><path class="cls-5" d="M43.08,19.25a17.68,17.68,0,0,1-3-.69,9.57,9.57,0,0,0-2.72,0,18,18,0,0,1-2.53-.54,24.08,24.08,0,0,0-4.7,0c-.19.11-.8.14-1.15.27a6.86,6.86,0,0,1-1.81,0,2.19,2.19,0,0,0-.9.19c-.18.08-.34,0-.61.08a1,1,0,0,1-.59,0,1.42,1.42,0,0,0-.28,0c-.25.12-.41.24-.27.32a9.25,9.25,0,0,1,.83.82l-1.05-.15c-.16.64,4.3,2.19,4.3,2.19a14.6,14.6,0,0,0,9.86-.58,30.74,30.74,0,0,1,4.8-1.67,6,6,0,0,0,1.43-.28l0,0-.25,0C44.12,19.27,43.34,19.2,43.08,19.25Z"/><path class="cls-4" d="M43.86,18.93a11.42,11.42,0,0,1-3.57-1c-2.32-.87-5.46-2.27-9.38-1.58a14.68,14.68,0,0,0-5.76,2.07l-.32.13a1.42,1.42,0,0,1,.28,0,1,1,0,0,0,.59,0c.27-.06.43,0,.61-.08a2.19,2.19,0,0,1,.9-.19,6.86,6.86,0,0,0,1.81,0c.35-.13,1-.16,1.15-.27a24.08,24.08,0,0,1,4.7,0,18,18,0,0,0,2.53.54,9.57,9.57,0,0,1,2.72,0,17.68,17.68,0,0,0,3,.69c.26-.05,1,0,1.38,0l.25,0A1.39,1.39,0,0,0,43.86,18.93Z"/><path class="cls-2" d="M28.33,19.44l.07.1a2.13,2.13,0,0,1,.16.28,1.31,1.31,0,0,1,.08.21.84.84,0,0,1,.06.24.8.8,0,0,1,0,.27.68.68,0,0,1-.1.27h0v0l0,0-.06.05-.12.08a1.12,1.12,0,0,1-.26.08,1,1,0,0,1-.25,0h-.21L27.34,21l-.12,0h.12l.32,0a1.72,1.72,0,0,0,.44,0,.88.88,0,0,0,.23-.07l.1-.07s0,0,0,0l0,0a.47.47,0,0,0,.09-.22,1,1,0,0,0,0-.24,2.27,2.27,0,0,0-.1-.43c0-.12-.09-.23-.12-.3Z"/><path class="cls-1" d="M30,19.6s.25-.53,2.36-.28,2.87.2,2.31.4-2.88.27-3.12.53S29.83,19.93,30,19.6Z"/><path class="cls-1" d="M26.63,18.9a.27.27,0,1,1-.53,0,.27.27,0,1,1,.53,0Z"/><circle class="cls-2" cx="26.37" cy="18.9" r="0.19"/><path class="cls-2" d="M26,19.56l0,.05a.49.49,0,0,1,0,.15.54.54,0,0,1,0,.1.16.16,0,0,1-.09.07h-.13l-.12,0a1.59,1.59,0,0,1-.39-.21.59.59,0,0,1-.11-.09l0,0,0,0,.12.07a1,1,0,0,0,.18.1l.22.1.11,0a.22.22,0,0,0,.11,0,.12.12,0,0,0,.07-.05.16.16,0,0,0,0-.09.65.65,0,0,0,0-.14A.12.12,0,0,0,26,19.56Z"/><path class="cls-6" d="M30.24,19.64h0l0,0,.06,0,.08,0,.1,0,.11,0,.14,0,.15,0h.17l.17,0h1.22l.42,0,.41,0,.38,0,.34,0,.51.06.2,0h-.2l-.51,0-.72,0-.41,0-.42,0H30.77l-.13,0-.12,0-.1,0-.08,0-.06,0,0,0Z"/><path class="cls-6" d="M34.81,19.64H31.29l-.35,0-.15,0h-.14l-.12,0-.1,0-.08,0-.06,0,0,0,0,0,.06,0,.08,0a.29.29,0,0,1,.1,0,.35.35,0,0,1,.12,0l.13,0,.16,0,.16,0,.18,0h1.24l.42,0h.42l.73,0,.52,0Z"/><path class="cls-6" d="M30.39,19.92l0,0,.12-.06.2-.08L31,19.7l.32,0h3.27l-.18,0c-.12,0-.28,0-.48,0l-.68,0H31l-.26,0-.2.06A.87.87,0,0,0,30.39,19.92Z"/><path class="cls-6" d="M34.22,19.77l-.15,0-.41.05-.27,0-.3,0-.33,0h-.67l-.32,0h-.69l-.11,0-.09,0H30.8l-.15,0,.15-.05.07,0,.1,0,.1,0,.12,0a2.4,2.4,0,0,1,.28,0h1.61l.58,0h.56Z"/><path class="cls-6" d="M30.92,20.13h0l0,0,.06,0,.08,0,.11,0h.06l.06,0h.07s0,0,.07,0h.86l-.23,0h-.88l-.1,0a.5.5,0,0,0-.16.05Z"/><path class="cls-7" d="M27.08,8.66A2.63,2.63,0,0,0,22,7.46c0,.09-.05.17-.07.25h0l-.2-.18A2.64,2.64,0,1,0,18,11.34h0c.05.05.22.21.52.45a10.66,10.66,0,0,0,3.62,2.09,2.7,2.7,0,0,0,1.49,0l.06,0,.06,0A2.61,2.61,0,0,0,25,13a10.7,10.7,0,0,0,1.91-3.72,5.58,5.58,0,0,0,.19-.65Z"/><path class="cls-7" d="M18.77,7.94a1.73,1.73,0,0,0-.31,2.58c.22.3.72,0,.5-.31-.4-.55-.57-1.37.12-1.77.32-.19,0-.69-.31-.5Z"/><path class="cls-7" d="M19.38,11.55a.29.29,0,0,0-.16-.56.29.29,0,0,0,.16.56Z"/><path class="cls-7" d="M32.33,4.38a1.62,1.62,0,0,0-1.74-2.73l-.14.08h0c0-.05,0-.11,0-.16a1.62,1.62,0,1,0-3.24.1h0s0,.19,0,.42a6.38,6.38,0,0,0,.7,2.46,1.54,1.54,0,0,0,.65.64l0,0,0,0a1.62,1.62,0,0,0,.9.18A6.5,6.5,0,0,0,32,4.59a4,4,0,0,0,.36-.2Z"/><path class="cls-7" d="M29,.5a1.06,1.06,0,0,0-1.24,1c0,.23.32.31.35.08.06-.42.34-.85.81-.73A.18.18,0,0,0,29,.5Z"/><path class="cls-7" d="M27.7,2.35A.18.18,0,0,0,27.87,2c-.2-.11-.37.21-.17.32Z"/></g></g></svg>