<svg width="65.03" height="33.53" xmlns="http://www.w3.org/2000/svg">
 <defs>
  <style>.cls-1{fill:#a9a9aa;}.cls-2{fill:#fff;}.cls-3{fill:#a59797;}.cls-4{fill:#61636f;}.cls-5{fill:#c3c4c6;}.cls-6{fill:#88898c;}</style>
 </defs>
 <title>Recurso 2iconos</title>
 <g>
  <title>background</title>
  <rect fill="none" id="canvas_background" height="402" width="582" y="-1" x="-1"/>
 </g>
 <g>
  <title>Layer 1</title>
  <g id="Capa_2">
   <g id="ëÎÓÈ_1">
    <path id="svg_1" d="m35.24,27.512977s5.9,2.41 7.88,1.31c0,0 -3.69,-1 -3.6,-3s-4.28,1.69 -4.28,1.69z" class="cls-1"/>
    <path id="svg_2" d="m32.91,13.592977s4.61,-3.37 6.58,-3.22c0,0 -4.51,2.9 -1.82,4.68s-4.76,-1.46 -4.76,-1.46z" class="cls-1"/>
    <path id="svg_3" d="m18.56,13.122977s2.97,-3.26 4.32,-3.81a1.35,1.35 0 0 0 0.62,0.44c0.34,0.09 0.08,0.43 0.38,0.56s0.23,0.63 0.47,0.61s0.4,0.36 0.65,0.45s0.53,0.46 1,0.38s0.15,0.36 1.25,0.29a1.36,1.36 0 0 0 1,0.19a0.87,0.87 0 0 0 0.77,0.41s0.25,0.23 0.4,0.23s-8.91,2.97 -10.86,0.25z" class="cls-1"/>
    <path id="svg_4" d="m3.14,22.042977s-3.34,-0.47 -3.13,0s3.25,1 3.25,1l-0.12,-1z" class="cls-2"/>
    <path id="svg_5" d="m59.84,21.732977l0,-1c1.03,-5.89 5.16,-7.48 5.16,-7.48l-0.15,-0.07a4.14,4.14 0 0 0 -2.79,1.13c-2.55,2 -4.24,5.58 -4.14,6.56c0,0 -0.06,7.52 5.69,8.6c-3.16,-1.79 -3.77,-7.74 -3.77,-7.74z" class="cls-1"/>
    <path id="svg_6" d="m54.6,21.162977l0,0z" class="cls-3"/>
    <path id="svg_7" d="m57.92,20.902977c-0.1,-1 1.59,-4.61 4.14,-6.56a4.14,4.14 0 0 1 2.82,-1.16c-2.88,-1.22 -6.62,4.45 -7.18,5.13a22.64,22.64 0 0 1 -2.65,2.14l-0.45,0.73c0.12,-0.15 0.76,-0.43 3.33,4.15c2.94,5.23 5.68,4.19 5.68,4.19c-5.75,-1.1 -5.69,-8.62 -5.69,-8.62z" class="cls-4"/>
    <path id="svg_8" d="m40.49,15.882977s0.83,-0.21 1.06,-0.3s0.47,0.81 0.87,1s1.29,-0.27 1.29,-0.27a2.94,2.94 0 0 0 0.72,1c0.4,0.28 1.42,-0.23 1.42,-0.23s0.32,1 0.7,1.12s1.1,-0.4 1.1,-0.4a3.33,3.33 0 0 0 0.7,1c0.32,0.21 1.08,-0.42 1.08,-0.42s0.28,0.78 0.7,0.93s1.15,-0.38 1.15,-0.38s-0.05,0.7 0.33,0.87s1.13,-0.32 1.13,-0.32a0.54,0.54 0 0 0 0.27,0.63a1.67,1.67 0 0 0 1.32,-0.12c0.14,-0.13 0.42,0.38 0.42,0.38l0.13,0.87a5.08,5.08 0 0 0 -0.38,0.72c-0.09,0.23 -0.51,-0.28 -0.51,-0.28s-1,0.24 -1.1,0.72c0,0 -0.73,-0.59 -1.17,-0.53a3.28,3.28 0 0 0 -0.38,1s-0.68,-0.57 -1,-0.57s-0.48,0.89 -0.44,1.1s-0.74,-0.45 -1.1,-0.45c0,0 -0.79,0.79 -0.68,1.08l-0.87,-0.44s-1,0.42 -0.66,1a1.51,1.51 0 0 1 -1.1,-0.19s-0.78,0.79 -0.72,1s-1,-0.59 -1,-0.59l-0.91,1.1l-1,-0.38l-1.37,-9.65z" class="cls-4"/>
    <path id="svg_9" d="m53.29,21.132977c-0.74,0.15 -6,-1.21 -8.41,-2s-6.49,0.13 -7.74,0.11a46,46 0 0 1 -7.14,-1.5c-2.1,-0.59 -12.82,-0.42 -13.37,-0.12s-2.29,0.4 -3.28,0.76s-4.2,0.13 -5.15,0a6.08,6.08 0 0 0 -2.54,0.53c-0.53,0.21 -1,0 -1.74,0.23a3.14,3.14 0 0 1 -1.7,0.09a3,3 0 0 0 -0.78,-0.05c-0.72,0.33 -1.15,0.68 -0.78,0.89a25.24,25.24 0 0 1 2.34,2.37l-3,-0.41c-0.45,1.8 12.22,6.22 12.22,6.22c13.06,3.29 23,0.85 28.05,-1.64a86.06,86.06 0 0 1 13.63,-4.75s4.08,-0.46 4.08,-0.8a0.31,0.31 0 0 0 -0.07,-0.16l-0.71,0.13c-0.95,0.17 -3.2,-0.05 -3.91,0.1z" class="cls-5"/>
    <path id="svg_10" d="m55.5,20.222977c-1.59,-0.12 -3.51,-0.29 -10.13,-2.78s-15.54,-6.46 -26.67,-4.49s-16.4,5.89 -16.4,5.89c-0.32,0.12 -0.63,0.25 -0.9,0.38a3,3 0 0 1 0.78,0.05a3.14,3.14 0 0 0 1.7,-0.09c0.76,-0.19 1.21,0 1.74,-0.23a6.08,6.08 0 0 1 2.54,-0.53c0.95,0.09 4.15,0.32 5.15,0s2.69,-0.51 3.28,-0.8s11.27,-0.47 13.41,0.12a46,46 0 0 0 7.14,1.57c1.25,0 5.34,-0.85 7.74,-0.11s7.67,2.1 8.41,2s3,0.07 3.92,-0.1l0.71,-0.13a4,4 0 0 0 -2.42,-0.75z" class="cls-4"/>
    <path id="svg_11" d="m11.36,21.682977a3.52,3.52 0 0 1 0.2,0.29a5.69,5.69 0 0 1 0.45,0.8c0.08,0.18 0.17,0.37 0.24,0.58a4.22,4.22 0 0 1 0.17,0.68a3.26,3.26 0 0 1 0,0.77a1.88,1.88 0 0 1 -0.3,0.77l0,0l0,0l0,0l-0.07,0.07a1.14,1.14 0 0 1 -0.16,0.15a1.94,1.94 0 0 1 -0.34,0.21a3,3 0 0 1 -0.74,0.23a3.37,3.37 0 0 1 -0.7,0a4,4 0 0 1 -0.62,0a6.92,6.92 0 0 1 -0.91,-0.18l-0.33,-0.1l0.35,0a8.93,8.93 0 0 0 0.9,0.06a5.62,5.62 0 0 0 1.25,-0.11a2.37,2.37 0 0 0 0.65,-0.22a1.34,1.34 0 0 0 0.28,-0.18l0.12,-0.11l0.11,-0.13a1.4,1.4 0 0 0 0.25,-0.62a2.22,2.22 0 0 0 0,-0.68a6,6 0 0 0 -0.29,-1.23c-0.12,-0.35 -0.24,-0.64 -0.33,-0.84l-0.18,-0.21z" class="cls-2"/>
    <path id="svg_12" d="m16.15,22.132977s0.72,-1.51 6.71,-0.81s8.18,0.58 6.57,1.15s-8.18,0.76 -8.88,1.52s-4.93,-0.91 -4.4,-1.86z" class="cls-1"/>
    <path id="svg_13" d="m6.52,20.142977a0.75,0.75 0 1 1 -0.75,-0.78a0.76,0.76 0 0 1 0.75,0.78z" class="cls-1"/>
    <circle id="svg_14" r="0.53" cy="20.142977" cx="5.77" class="cls-2"/>
    <path id="svg_15" d="m4.82,22.012977l0,0.15a1.2,1.2 0 0 1 0,0.42a0.6,0.6 0 0 1 -0.08,0.28a0.42,0.42 0 0 1 -0.26,0.21a0.73,0.73 0 0 1 -0.36,0a2.07,2.07 0 0 1 -0.33,-0.1a5.07,5.07 0 0 1 -1.12,-0.6l-0.32,-0.25l-0.12,-0.11l0.13,0.09a2.76,2.76 0 0 0 0.35,0.22a4.68,4.68 0 0 0 0.51,0.28a5.46,5.46 0 0 0 0.6,0.27l0.32,0.09a0.61,0.61 0 0 0 0.3,0a0.37,0.37 0 0 0 0.22,-0.16a0.7,0.7 0 0 0 0.09,-0.24a1.28,1.28 0 0 0 0,-0.4c0.08,-0.09 0.07,-0.15 0.07,-0.15z" class="cls-2"/>
    <path id="svg_16" d="m16.78,22.252977l0,0l0.09,-0.06l0.16,-0.07l0.22,-0.08l0.29,-0.07l0.33,-0.08l0.39,-0.07l0.43,-0.05a3.56,3.56 0 0 1 0.47,0l0.5,0c0.35,0 0.72,0 1.09,0s0.77,0 1.17,0l1.2,0l1.2,0l1.16,0.08c0.38,0 0.74,0.06 1.09,0.09l1,0.09l1.43,0.08l0.54,0.07l-0.55,0l-1.45,-0.09l-2.06,-0.11l-1.16,-0.06l-1.2,-0.05l-1.19,0l-1.14,0l-1.09,0l-0.5,0l-0.47,0l-0.43,0l-0.38,0.05l-0.34,0a2,2 0 0 0 -0.28,0.06a1.09,1.09 0 0 0 -0.23,0.06l-0.16,0.06l-0.1,0l-0.03,0.15z" class="cls-6"/>
    <path id="svg_17" d="m29.78,22.242977l-4.13,0l-1.18,0l-1.22,0l-1.25,-0.09l-1.17,0l-1.1,0l-1,0.05l-0.44,0l-0.29,0.11l-0.34,0.06l-0.28,0.07l-0.23,0.07l-0.16,0.06l-0.14,0.06l0.13,-0.07l0.16,-0.08l0.22,-0.08l0.24,-0.09c0.1,0 0.21,-0.06 0.34,-0.08l0.39,-0.08l0.43,-0.07l0.48,-0.05l0.51,0c0.35,0 0.72,0 1.11,0l1.14,0l1.22,0c0.41,0 0.81,0 1.21,0l1.18,0l2.09,0.08l1.48,0.07l0.6,0.06z" class="cls-6"/>
    <path id="svg_18" d="m17.22,23.052977l0.11,-0.08a3,3 0 0 1 0.34,-0.19a3.5,3.5 0 0 1 0.56,-0.21a5,5 0 0 1 0.77,-0.16a8.65,8.65 0 0 1 0.92,0l3.24,0l4.16,0l1.89,0a5,5 0 0 1 -0.52,0.07l-1.37,0.09l-1.93,0l-1.1,0l-3.35,0l-1,0a9.07,9.07 0 0 0 -0.91,0a5.33,5.33 0 0 0 -0.76,0.11a3.8,3.8 0 0 0 -0.56,0.17a2.49,2.49 0 0 0 -0.49,0.2z" class="cls-6"/>
    <path id="svg_19" d="m28.1,22.632977l-0.44,0c-0.28,0 -0.67,0.08 -1.15,0.12l-0.77,0.07l-0.86,0.06c-0.3,0 -0.61,0 -0.92,0l-0.95,0l-0.48,0l-0.48,0l-0.92,0l-0.44,0l-0.41,0c-0.28,0 -0.53,0 -0.77,0l-0.34,0l-0.3,0.05l-0.27,0l-0.22,0.05l-0.43,0.1l0.42,-0.14l0.22,-0.07l0.26,-0.07l0.31,-0.07l0.34,-0.05c0.24,0 0.5,-0.05 0.77,-0.07l0.87,0l0.92,0l2.36,0l0.45,0l1.63,-0.06l1.16,0l0.44,0.08z" class="cls-6"/>
    <path id="svg_20" d="m18.73,23.642977l0,0l0.11,-0.08a1,1 0 0 1 0.18,-0.1l0.28,-0.15l0.29,-0.12l0.17,0a0.58,0.58 0 0 1 0.19,0l0.19,0l0.58,0l0.39,0l0.37,0l0.35,0l0.31,0l0.64,0s-0.25,0.06 -0.64,0.12l-0.31,0l-1.83,0l-0.17,0a0.9,0.9 0 0 0 -0.16,0l-0.3,0.07l-0.44,0.14l-0.2,0.12z" class="cls-6"/>
   </g>
  </g>
  <g id="svg_47">
   <g transform="matrix(0.014308838122935319,0,0,0.014308838122935319,0,0) " id="svg_25">
    <g id="svg_26">
     <path id="svg_27" d="m382.066609,699.665726c3.514,11.463 7.147,23.318 8.96,35.258c0.741,4.866 3.647,40.261 5.218,59.707c0.602,7.451 6.252,13.508 13.643,14.626l25.821,3.904c3.723,0.563 6.692,3.402 7.417,7.097l3.402,17.401c1.479,7.563 8.108,13.018 15.814,13.014l200.241,-0.119c7.572,-0.005 14.118,-5.283 15.726,-12.682l3.896,-17.915c0.86,-3.536 3.782,-6.193 7.383,-6.717l31.437,-4.566c7.554,-1.097 13.3,-7.344 13.759,-14.964c1.206,-20.008 3.457,-56.434 4.155,-61.425c1.653,-11.784 5.131,-23.432 8.49,-34.764c4.709,-15.857 9.578,-32.225 9.578,-49.248c0.006,-108.709 -86.402,-197.132 -192.608,-197.132s-192.613,88.471 -192.613,197.204c0.001,17.782 5.227,34.834 10.281,51.321zm207.43,-10.032c1.221,-30.877 28.91,-38.641 59.787,-37.421c30.877,1.221 53.249,10.965 52.028,41.842c-1.221,30.877 -27.241,54.918 -58.118,53.697c-30.877,-1.221 -54.918,-27.241 -53.697,-58.118zm-18.166,60.589l20.042,29.679c1.778,2.632 2.021,6.011 0.639,8.871l-2.875,5.951c-1.489,3.081 -4.609,5.038 -8.03,5.038l-17.167,0l-17.167,0c-3.422,0 -6.542,-1.958 -8.03,-5.038l-2.875,-5.951c-1.382,-2.86 -1.138,-6.238 0.639,-8.871l20.042,-29.679c3.536,-5.237 11.246,-5.237 14.782,0zm-91.82,-98.009c30.877,-1.221 58.566,6.543 59.787,37.421c1.221,30.877 -22.82,56.897 -53.697,58.118c-30.877,1.221 -56.897,-22.82 -58.118,-53.697c-1.221,-30.878 21.151,-40.622 52.028,-41.842z"/>
     <path id="svg_28" d="m815.561609,422.785726c2.402,-14.75 -2.089,-30.405 -13.499,-41.757c-18.326,-18.234 -48.224,-18.566 -66.929,-0.721c-19.558,18.659 -19.834,49.646 -0.828,68.652l-17.47,17.47c-6.98,6.981 -6.98,18.299 0,25.28l29.802,29.802c6.98,6.981 18.299,6.981 25.279,0l17.47,-17.47c19.007,19.007 49.994,18.73 68.652,-0.828c17.845,-18.705 17.512,-48.604 -0.722,-66.929c-11.351,-11.41 -27.005,-15.901 -41.755,-13.499z"/>
     <path id="svg_29" d="m341.035609,504.040726l17.47,17.47c6.981,6.981 18.299,6.981 25.279,0l29.802,-29.802c6.981,-6.981 6.981,-18.299 0,-25.28l-17.47,-17.47c19.007,-19.006 18.73,-49.993 -0.828,-68.652c-18.705,-17.844 -48.603,-17.512 -66.929,0.722c-11.409,11.352 -15.9,27.007 -13.498,41.757c-14.75,-2.402 -30.404,2.089 -41.757,13.498c-18.234,18.325 -18.567,48.224 -0.722,66.929c18.659,19.558 49.646,19.834 68.653,0.828z"/>
     <path id="svg_30" d="m858.040609,837.136726c-18.659,-19.559 -49.646,-19.834 -68.652,-0.828l-17.47,-17.47c-6.981,-6.981 -18.299,-6.981 -25.279,0l-29.802,29.802c-6.98,6.981 -6.98,18.299 0,25.28l17.47,17.47c-19.007,19.007 -18.73,49.994 0.828,68.652c18.705,17.845 48.604,17.513 66.929,-0.721c11.41,-11.352 15.901,-27.007 13.499,-41.757c14.75,2.402 30.404,-2.089 41.756,-13.499c18.233,-18.326 18.565,-48.224 0.721,-66.929z"/>
     <path id="svg_31" d="m314.861609,917.563726c-2.402,14.75 2.089,30.405 13.499,41.757c18.326,18.234 48.224,18.566 66.929,0.721c19.558,-18.659 19.834,-49.646 0.828,-68.652l17.47,-17.47c6.981,-6.98 6.981,-18.299 0,-25.28l-29.802,-29.802c-6.981,-6.981 -18.299,-6.981 -25.279,0l-17.47,17.47c-19.007,-19.007 -49.994,-18.731 -68.652,0.828c-17.845,18.705 -17.513,48.603 0.721,66.929c11.352,11.41 27.006,15.901 41.756,13.499z"/>
    </g>
   </g>
   <g transform="matrix(0.014308838122935319,0,0,0.014308838122935319,0,0) " id="svg_32"/>
   <g transform="matrix(0.014308838122935319,0,0,0.014308838122935319,0,0) " id="svg_33"/>
   <g transform="matrix(0.014308838122935319,0,0,0.014308838122935319,0,0) " id="svg_34"/>
   <g transform="matrix(0.014308838122935319,0,0,0.014308838122935319,0,0) " id="svg_35"/>
   <g transform="matrix(0.014308838122935319,0,0,0.014308838122935319,0,0) " id="svg_36"/>
   <g transform="matrix(0.014308838122935319,0,0,0.014308838122935319,0,0) " id="svg_37"/>
   <g transform="matrix(0.014308838122935319,0,0,0.014308838122935319,0,0) " id="svg_38"/>
   <g transform="matrix(0.014308838122935319,0,0,0.014308838122935319,0,0) " id="svg_39"/>
   <g transform="matrix(0.014308838122935319,0,0,0.014308838122935319,0,0) " id="svg_40"/>
   <g transform="matrix(0.014308838122935319,0,0,0.014308838122935319,0,0) " id="svg_41"/>
   <g transform="matrix(0.014308838122935319,0,0,0.014308838122935319,0,0) " id="svg_42"/>
   <g transform="matrix(0.014308838122935319,0,0,0.014308838122935319,0,0) " id="svg_43"/>
   <g transform="matrix(0.014308838122935319,0,0,0.014308838122935319,0,0) " id="svg_44"/>
   <g transform="matrix(0.014308838122935319,0,0,0.014308838122935319,0,0) " id="svg_45"/>
   <g transform="matrix(0.014308838122935319,0,0,0.014308838122935319,0,0) " id="svg_46"/>
  </g>
 </g>
</svg>