<svg xmlns="http://www.w3.org/2000/svg" viewBox="0 0 51.02 22.35"><defs><style>.cls-1{fill:#6a0c61;}</style></defs><title>Recurso 12iconos</title><g id="Capa_2" data-name="Capa 2"><g id="ëÎÓÈ_1" data-name="ëÎÓÈ 1"><path class="cls-1" d="M44.64,10.36h0a.8.8,0,1,0,.8.8A.8.8,0,0,0,44.64,10.36Z"/><path class="cls-1" d="M50.66,13.69l-1.39-.94,1.39-.93a.79.79,0,0,0,.36-.63.83.83,0,0,0-.31-.66c-.29-.22-6.63-5-14.06-5.68A6.24,6.24,0,0,0,34.79.19.81.81,0,0,0,34.14,0a.87.87,0,0,0-.61.47,5,5,0,0,1-3.39,1.93,9.84,9.84,0,0,0-5.48,2.73c-1-1-2.93-2.75-4.73-2.75a.78.78,0,0,0-.74.51.8.8,0,0,0,.2.88,3.59,3.59,0,0,1,.76,1.1,2.93,2.93,0,0,1,0,2.39C19,7.65,17.81,8,16.72,8.41a30.19,30.19,0,0,1-7.55,1.94,37.35,37.35,0,0,0-2.5-3C4.48,4.92,2.56,3.54,1,3.21a.8.8,0,0,0-.83.33.82.82,0,0,0,0,.9C1.63,6.62,4,10.59,4,12S1.63,17.3.14,19.48a.78.78,0,0,0,0,.89.76.76,0,0,0,.66.36l.16,0c1.6-.34,3.52-1.72,5.71-4.1a37.06,37.06,0,0,0,2.5-3,30.63,30.63,0,0,1,7.55,1.94l1,.33a2.82,2.82,0,0,1-.75,2.77.79.79,0,0,0-.14.83.8.8,0,0,0,.78.51h.27A6.79,6.79,0,0,0,23.1,17.5a47.18,47.18,0,0,0,9.38,1.55,5.59,5.59,0,0,1,.18,2.4.8.8,0,0,0,.36.77.83.83,0,0,0,.43.13.79.79,0,0,0,.42-.12,8.36,8.36,0,0,0,2.59-3.14,30.76,30.76,0,0,0,10.79-2.91,10.5,10.5,0,0,1,3-1,.8.8,0,0,0,.44-1.46ZM30.44,4a7.18,7.18,0,0,0,3.89-1.91,5.75,5.75,0,0,1,.72,2.72,44.79,44.79,0,0,0-8.56.85A9.36,9.36,0,0,1,30.44,4Zm-8.64.8A12.56,12.56,0,0,1,23.57,6.3c-.55.14-1.08.28-1.6.43A4.51,4.51,0,0,0,21.8,4.77ZM19.08,18.21a4.17,4.17,0,0,0,.3-1.82l2,.63A4.9,4.9,0,0,1,19.08,18.21Zm15.08.91h.45c-.11.17-.23.34-.36.52A4.89,4.89,0,0,0,34.16,19.12Zm13.23-5.7.89.6c-.49.19-1.05.42-1.67.69a34.7,34.7,0,0,1-6.3,2.22,4.67,4.67,0,0,1-2.11-4.27A8.65,8.65,0,0,1,39,9.25a.8.8,0,1,0-1.4-.76,10.21,10.21,0,0,0-1,4.15,6.42,6.42,0,0,0,1.67,4.67q-1.08.15-2.25.21h-.22l-.74,0c-7.39,0-13.18-2-17.84-3.55-3.22-1.09-6-2-8.46-2a.76.76,0,0,0-.65.34,30.45,30.45,0,0,1-5,5.51C4.25,15.87,5.58,13.34,5.58,12S4.25,8.05,3.09,6.11a30.12,30.12,0,0,1,5,5.51.8.8,0,0,0,.65.34c2.46,0,5.24-1,8.46-2,1.1-.37,2.27-.77,3.5-1.15a.77.77,0,0,0,.44-.14,46.5,46.5,0,0,1,13.9-2.25c5.94,0,11.58,3.33,13.74,4.76l-1.42.95a.79.79,0,0,0,0,1.33Z"/><path class="cls-1" d="M34.64,11.84l.12.06a.8.8,0,0,0,1.05-.43.79.79,0,0,0-.43-1l-.12-.06a7.63,7.63,0,0,0-6.95.09.79.79,0,0,0-.41.69c0,.47.26.63.84,1l1.1.67,2.44,1.43a3.21,3.21,0,0,0,1.6.44,3,3,0,0,0,1.64-.47.79.79,0,0,0,.21-1.11.81.81,0,0,0-1.11-.21,1.51,1.51,0,0,1-1.54,0c-.73-.42-1.79-1-2.63-1.55A6.32,6.32,0,0,1,34.64,11.84Z"/></g></g></svg>