<svg xmlns="http://www.w3.org/2000/svg" viewBox="0 0 32.14 15.51"><defs><style>.cls-1{fill:#e4dbd3;stroke:#ad927c;stroke-miterlimit:10;stroke-width:0.5px;}.cls-2{fill:#ad927c;}.cls-3{fill:#b2355a;}</style></defs><title>Recurso 6icono-marinos-estrella</title><g id="Capa_2" data-name="Capa 2"><g id="ëÎÓÈ_1" data-name="ëÎÓÈ 1"><path class="cls-1" d="M27.39,3.92a2.62,2.62,0,0,0-.79,0,4.41,4.41,0,0,0-2.54,1.39,9.05,9.05,0,0,0-1.21,1.58,10.72,10.72,0,0,1-1.07,4.86,4.58,4.58,0,0,0,.69,1.67,4.24,4.24,0,0,0,2.78,1.79l.36.05a4.57,4.57,0,0,0,4.95-4C31.06,8.64,30,4.42,27.39,3.92Z"/><path class="cls-1" d="M10,9.76A5.14,5.14,0,0,1,10.49,6C9.15,3.81,6.91,1.93,4.77,2.48a3.24,3.24,0,0,0-.83.35A5,5,0,0,0,2,5.49a10.18,10.18,0,0,0-.54,3.16A9.42,9.42,0,0,0,1.72,11,6.49,6.49,0,0,0,2,12,5.53,5.53,0,0,0,4.29,14.6,4.83,4.83,0,0,0,8,15.09a3,3,0,0,0,.4-.12,4.79,4.79,0,0,0,3-2.78A5.13,5.13,0,0,1,10,9.76Z"/><path class="cls-1" d="M22.16,9.88c-.55,3.3-3.15,5.65-6.4,5.36l-.47-.06a5.66,5.66,0,0,1-3.72-2.29A6.35,6.35,0,0,1,10.43,9a6.94,6.94,0,0,1,.1-1.11,10.71,10.71,0,0,1,.85-2.65,11.46,11.46,0,0,1,2.07-3.09,5.72,5.72,0,0,1,3.3-1.9,3.63,3.63,0,0,1,1,0C21.26.88,22.75,6.41,22.16,9.88Z"/><path class="cls-2" d="M32.14,12a2,2,0,0,0-1.71,1.6,1.66,1.66,0,0,0,1.19-.43A1.68,1.68,0,0,0,32.14,12Z"/><path class="cls-2" d="M31.65,14.56a2.25,2.25,0,0,0-2.23.32A2.43,2.43,0,0,0,31.65,14.56Z"/><path class="cls-2" d="M0,12a2,2,0,0,1,1.71,1.6A1.62,1.62,0,0,1,0,12Z"/><path class="cls-2" d="M.49,14.56a2.25,2.25,0,0,1,2.23.32A2.43,2.43,0,0,1,.49,14.56Z"/><path class="cls-3" d="M19.52,9.28a1.62,1.62,0,0,0-2.55-2l-.11.13h0l-.06-.15a1.61,1.61,0,0,0-3,1.17h0s.07.17.18.38a6.37,6.37,0,0,0,1.48,2.09,1.6,1.6,0,0,0,.83.39h.07a1.69,1.69,0,0,0,.91-.13,6.4,6.4,0,0,0,2-1.58l.28-.31Z"/></g></g></svg>