<svg xmlns="http://www.w3.org/2000/svg" viewBox="0 0 34.91 34.91"><defs><style>.cls-1{fill:#4d6f3e;}</style></defs><title>Recurso 10iconos</title><g id="Capa_2" data-name="Capa 2"><g id="ëÎÓÈ_1" data-name="ëÎÓÈ 1"><path class="cls-1" d="M28.79,4.45a.62.62,0,0,0,0-.86.61.61,0,1,0-.86.86A.62.62,0,0,0,28.79,4.45Z"/><path class="cls-1" d="M31.35,7a.6.6,0,1,0-.85,0A.59.59,0,0,0,31.35,7Z"/><path class="cls-1" d="M30.84,15.19h0a8.33,8.33,0,0,0-.17-.84q-.12-.39-.27-.78a9.89,9.89,0,0,0-.94-1.83,6.65,6.65,0,0,1,1.2-1.05l1.7-1.29.06-.05a5.33,5.33,0,0,0,1.47-3.44,4.59,4.59,0,0,0-1.26-3.59c-1.95-1.95-5.32-1.49-7,.22l-.05.06-1.3,1.72a6.39,6.39,0,0,1-1,1.16,9.67,9.67,0,0,0-2.75-1.22h0a6.14,6.14,0,0,0-.72-.15h0s0,0,0,0A4.08,4.08,0,0,0,15.64,0H10.47a2.91,2.91,0,0,0,0,5.82H14.1A31.42,31.42,0,0,0,10.62,9L9,10.6c-.19.19-.38.39-.56.6a13.93,13.93,0,0,0-1.27,1.6H3.49a3.49,3.49,0,0,0,0,7H4.88A10.45,10.45,0,0,0,6,24.53a9.92,9.92,0,0,0,4.3,4.37,10.49,10.49,0,0,0,4.85,1.17v1.35a3.49,3.49,0,1,0,7,0V27.81A15.91,15.91,0,0,0,24.35,26L26,24.33c.17-.16.34-.33.5-.5a26.91,26.91,0,0,0,2.61-2.93v3.53a2.91,2.91,0,1,0,5.82,0V19.27A4.09,4.09,0,0,0,30.84,15.19Zm-3.07,5.52-.11.13c-.18.22-.36.43-.55.64l-.06.07c-.21.23-.42.46-.65.69l-.12.13c-.22.24-.45.47-.68.7l-.81-.9q.32-1.28.66-2.61l.08,0L27.6,19l.72,1,0,.06C28.12,20.27,28,20.49,27.77,20.71Zm-5.91,1.61-.61.15-1.86-1.86c.23-.86.47-1.73.71-2.6l.12,0,2.38-.67.18.2c.46.5.92,1,1.37,1.53a1.63,1.63,0,0,0,.17.2c0,.13-.06.26-.1.39-.14.55-.28,1.11-.41,1.66,0,.19-.1.38-.14.57l-.2.05Zm-1.92,5.42-.21.11-.65.28-.14.06a7.92,7.92,0,0,1-.78.26l-.21.06-.62.16-.13,0,.21-.8v0c0-.13.07-.26.11-.39.88-.23,1.75-.44,2.61-.65l.22.2.33.3-.07,0c-.23.13-.45.25-.68.36ZM14.8,28.9l-.45,0h-.21l-.64-.09-.22-.05a3.15,3.15,0,0,1-.42-.09l-.26-.07-.37-.11L12,28.36l-.36-.13-.25-.11-.11-.05c0-.11.08-.24.11-.35l.45-1.49,2.65-.75,1,.88.08.07c.28.26.57.51.88.78,0,.13-.07.25-.1.39l-.22.79-.13.48-.19,0H14.8ZM9.49,27l-.18-.14c-.22-.18-.44-.38-.65-.58s-.43-.46-.63-.71l-.14-.18a8.23,8.23,0,0,1-.53-.78h0l1.54-.47.26.26c.42.43.84.86,1.27,1.27l.25.25-.12.39c-.07.27-.15.53-.23.79l-.12.4a.05.05,0,0,1,0,0A8.29,8.29,0,0,1,9.49,27Zm1.42-12.45.63-.16,1.87,1.87c-.24.86-.47,1.72-.72,2.59l-2.5.71,0-.05c-.57-.61-1.12-1.23-1.66-1.85l0,0,.06-.25c.15-.61.31-1.21.45-1.81,0-.18.1-.37.14-.55L9.33,15Zm1-5.23c.21-.21.43-.43.66-.64l.16-.15c.22-.22.45-.43.68-.63l.09-.09.62-.53.15-.12c.22-.18.45-.35.68-.52l.06,0,.87.62-.58,2.1v.06L12.75,10l-.09,0-.78-.7Zm17.44,4.73,0,.06-.42.13-.61-.81-.12-.16-.78-1,.3-1,.07.09c.14.18.26.35.38.52l.1.15a7.33,7.33,0,0,1,.4.63l.09.15.25.49.09.18C29.19,13.71,29.27,13.89,29.33,14.06ZM23.62,16.7l-.18-.2c.25-.89.49-1.77.75-2.65l2.39-.72.69.85,0,0c.26.33.52.68.77,1q-.37,1.39-.72,2.79l-.37.1-.66.18-.78.21-.38.1-.18-.2C24.54,17.71,24.08,17.2,23.62,16.7Zm-3.38,7.36c-.11.39-.21.79-.3,1.18,0,.16-.09.32-.12.47l-.6.15-1.68.42-.34.09-.07-.07c-.6-.51-1.2-1-1.79-1.58l-.07-.07c.23-.83.46-1.66.7-2.51l2.59-.71,1.87,1.86C20.36,23.55,20.3,23.8,20.24,24.06Zm-13.47-.6a2.44,2.44,0,0,1-.1-.24l-.14-.38c0-.08,0-.16-.08-.25s-.07-.26-.11-.39a2,2,0,0,1,0-.24c0-.16-.07-.31-.1-.47s0-.11,0-.18-.06-.43-.08-.65a.86.86,0,0,1,0-.16c0-.17,0-.33,0-.5v-.25c0-.14,0-.28,0-.42a2.45,2.45,0,0,1,0-.27,1.36,1.36,0,0,1,0-.2l1.44-.39.1,0c.6.7,1.17,1.34,1.72,1.94-.24.88-.49,1.77-.74,2.65-.61.17-1.21.35-1.79.53A.47.47,0,0,1,6.77,23.46Zm-.31-6.58.06-.19c.08-.25.16-.5.26-.75a1,1,0,0,1,.07-.15c.08-.2.17-.4.26-.6s.07-.15.11-.22.21-.41.33-.61a.93.93,0,0,0,0-.1l.4.44c-.21.86-.43,1.73-.65,2.61l-1.07.3,0-.13q.06-.3.15-.6ZM16.8,5.61,17,5.52l.22-.07.22-.06.21,0,.22,0,.2,0,.24,0h.55a5.07,5.07,0,0,1,.55,0h.13c0,.13-.07.25-.11.37-.94.25-1.87.5-2.8.73l-.58-.42.07,0,.23-.12.21-.1Zm4,0,.52.2.19.09q.24.1.48.24l.16.09c.2.11.42.24.63.38l.14.1c.17.11.34.24.52.37l.1.07-1,.3-1-.78-.2-.15-.77-.59.11-.35Zm9,11a4.85,4.85,0,0,1-.08.55.5.5,0,0,1,0,.12,3.74,3.74,0,0,1-.12.45c0,.05,0,.11-.05.16s-.11.31-.17.47a.3.3,0,0,0,0,.1c-.08.16-.16.33-.25.49-.17-.24-.34-.48-.52-.71.24-.93.48-1.86.73-2.8l.47-.14v0s0,.06,0,.09,0,.32.05.47a.91.91,0,0,0,0,.17c0,.14,0,.29,0,.43a.57.57,0,0,0,0,.13Zm-6.66-3c-.25.88-.5,1.76-.74,2.64l-2.52.71L18,15c.23-.85.47-1.69.7-2.53l2.64-.74.11.11c.52.5,1,1,1.54,1.54ZM16.62,9.86l-.22-.19.14-.51c.15-.58.31-1.14.46-1.68l2.78-.73c.35.26.69.51,1,.77l.07.06c.29.22.56.45.83.68,0,.12-.07.25-.11.37-.15.51-.31,1-.46,1.54l-.15.48-2.65.74-.19-.17C17.64,10.76,17.13,10.31,16.62,9.86ZM18.26,20.3,15.67,21c-.62-.61-1.24-1.23-1.85-1.85.24-.86.48-1.73.71-2.59l2.59-.71c.62.61,1.24,1.23,1.85,1.85-.19.69-.38,1.38-.56,2.06Zm-5.42-8.6c0-.18.09-.36.14-.54l.55-.13,1.72-.44.34-.08.18.16c.52.45,1,.91,1.54,1.37l.21.19c-.23.83-.46,1.67-.7,2.51l-2.59.71-1.87-1.87.21-.82ZM9.73,23.33c.25-.87.5-1.75.74-2.63L13,20c.62.62,1.23,1.24,1.86,1.85-.24.85-.48,1.69-.71,2.52l-2.64.74L11.38,25c-.52-.5-1-1-1.52-1.53A.8.8,0,0,1,9.73,23.33ZM26.31,12l-.18.05-1.91.57-.33.1-.26-.26c-.41-.43-.83-.84-1.25-1.25l-.27-.27c.21-.71.42-1.4.63-2.09,0-.11.07-.22.1-.33L24.59,8c.4.35.81.73,1.22,1.14s.72.74,1,1.1c-.18.58-.36,1.16-.53,1.76ZM25.18,5l1.26-1.66a4,4,0,0,1,5.36-.18,3.48,3.48,0,0,1,.92,2.7A4.24,4.24,0,0,1,31.61,8.5L30,9.74a8.3,8.3,0,0,0-1.2,1c-.25-.35-.53-.69-.84-1s-.82-.91-1.3-1.39-1-1-1.52-1.41l-.62-.51-.3-.23A6.59,6.59,0,0,0,25.18,5ZM8.73,2.91a1.74,1.74,0,0,1,1.74-1.75h5.17a2.91,2.91,0,0,1,2.91,2.89,6.69,6.69,0,0,0-2.49.6H10.47A1.74,1.74,0,0,1,8.73,2.91Zm2.32,7.26.8.71v0q-.3,1.17-.6,2.37l-2,.51-.4.1-.57-.64.05-.06a8,8,0,0,1,.63-.81l.13-.15a9.47,9.47,0,0,1,.75-.81ZM1.16,16.29A2.33,2.33,0,0,1,3.49,14h3A12.09,12.09,0,0,0,5,18.33c0,.1,0,.19,0,.28H3.49A2.33,2.33,0,0,1,1.16,16.29ZM18.62,33.74a2.32,2.32,0,0,1-2.33-2.32V30l.18,0c.3,0,.6-.08.9-.14A12.47,12.47,0,0,0,21,28.52v2.9A2.33,2.33,0,0,1,18.62,33.74Zm4.1-7.86-.15.12c-.26.23-.53.43-.8.63l-.07.05-.56-.51L21,26a.85.85,0,0,1,0-.17c.18-.73.37-1.48.57-2.23l1.94-.5L24,23l.81.9c-.4.41-.82.82-1.24,1.24Q23.13,25.52,22.72,25.88Zm11-1.45a1.75,1.75,0,0,1-3.5,0V19l.09-.17a6.62,6.62,0,0,0,.55-2.44,2.92,2.92,0,0,1,2.86,2.91Z"/></g></g></svg>