<svg width="38.45" height="28" xmlns="http://www.w3.org/2000/svg">
 <defs>
  <style>.cls-1{fill:#fff;}.cls-2{fill:#667e47;}.cls-3{fill:#7f644c;}.cls-4{fill:#fefefe;}.cls-5{fill:#a9c885;}</style>
 </defs>
 <title>Recurso 5iconos</title>
 <g>
  <title>background</title>
  <rect fill="none" id="canvas_background" height="30" width="40.45" y="-1" x="-1"/>
 </g>
 <g>
  <title>Layer 1</title>
  <g id="Capa_2">
   <g id="ëÎÓÈ_1">
    <path id="svg_1" d="m31.9,18.015867l-0.11,0.07c-0.13,0 -0.16,-0.13 -0.21,-0.22a11.36,11.36 0 0 1 -0.58,-1.38c-0.14,-0.38 -0.15,-0.38 -0.54,-0.31c-0.15,0 -0.29,0.07 -0.44,0.09s-0.22,0.13 -0.18,0.3c0.18,0.64 0.35,1.28 0.52,1.92l-0.05,0c-0.22,0 -0.23,-0.19 -0.33,-0.3c-0.14,-0.35 -0.27,-0.7 -0.41,-1s-0.13,-0.64 -0.31,-0.73s-0.54,0.05 -0.83,0.09l0,0c-0.08,0 -0.1,0.06 -0.08,0.14c0.14,0.57 0.28,1.14 0.43,1.72a0.89,0.89 0 0 0 0.07,0.43l-0.17,0c-0.05,0 -0.06,0 -0.08,-0.06c-0.18,-0.6 -0.37,-1.2 -0.54,-1.8c-0.13,-0.43 -0.12,-0.43 -0.56,-0.35s-0.4,0.07 -0.37,0.49a0,0 0 0 0 0,0.05l0,1.79c-0.07,0.08 -0.16,0.06 -0.25,0s-0.08,-0.31 -0.16,-0.45c0,-0.6 -0.11,-1.19 -0.08,-1.79c0,-0.14 -0.09,-0.11 -0.15,-0.1l-1.18,0c-0.13,0 -0.14,0.08 -0.15,0.18c-0.06,0.5 -0.11,1 -0.17,1.48l0,0.07l0,0.11a2.46,2.46 0 0 1 0,0.28c0,0.07 0,0.14 -0.11,0.13s-0.1,-0.06 -0.1,-0.13a0.63,0.63 0 0 0 -0.06,-0.33a9.85,9.85 0 0 1 0.1,-1.63c0,-0.11 0,-0.16 -0.13,-0.16a5.93,5.93 0 0 1 -0.94,0c-0.08,0 -0.12,0 -0.13,0.11c-0.08,0.56 -0.15,1.11 -0.22,1.67c0,0.17 -0.15,0.33 0,0.5a0.65,0.65 0 0 1 -0.34,0c0.1,-0.17 0,-0.35 0,-0.53c0.05,-0.51 0.1,-1 0.16,-1.53c0,-0.14 0,-0.2 -0.15,-0.21c-0.34,0 -0.68,0 -1,-0.08c-0.11,0 -0.14,0 -0.16,0.12l-0.39,1.53c-0.11,0.15 -0.1,0.34 -0.17,0.5l-0.2,0a7.85,7.85 0 0 1 0.36,-2c0,-0.16 0,-0.23 -0.13,-0.25l-1,-0.13l-1,-0.25c-0.2,-0.06 -0.29,0 -0.36,0.19c-0.24,0.58 -0.5,1.16 -0.75,1.73l-0.27,0a0.53,0.53 0 0 1 0,-0.28c0.14,-0.39 0.26,-0.78 0.42,-1.16c0.26,-0.66 0.27,-0.65 -0.45,-0.81c-0.14,0 -0.18,0 -0.23,0.12l-0.66,1.52c-0.05,0.12 -0.1,0.23 -0.26,0.23l0,0a9.94,9.94 0 0 1 0.73,-2c-0.28,-0.08 -0.57,-0.16 -0.84,-0.26s-0.26,0 -0.33,0.16c-0.19,0.43 -0.39,0.86 -0.58,1.3c0,0.11 -0.09,0.21 -0.22,0.23l-0.07,-0.02a0.9,0.9 0 0 1 0.09,-0.33c0.17,-0.43 0.34,-0.87 0.52,-1.3c0,-0.09 0.08,-0.19 -0.05,-0.23a12.73,12.73 0 0 0 -1.52,-0.57l0.18,-0.33l0.25,0.07s0.07,0.06 0.11,0.07c1.09,0.44 2.19,0.85 3.32,1.2c0.27,0.08 0.5,0.11 0.66,-0.19a0.36,0.36 0 0 1 0.13,-0.11a15.5,15.5 0 0 0 2.34,-2a3.94,3.94 0 0 1 0.75,-0.66c0.15,-0.1 0.11,-0.14 0,-0.25c-0.42,-0.45 -0.83,-0.92 -1.21,-1.41s-0.74,-0.96 -1.08,-1.47c0,-0.09 -0.09,-0.16 -0.07,-0.26a0.8,0.8 0 0 1 0.34,-0.18l0.12,0.17c0.68,1 1.43,2 2.07,3.06a0.25,0.25 0 0 0 0.28,0.15a7.8,7.8 0 0 1 1.93,0l2.12,0.14a0.24,0.24 0 0 0 0.21,-0.08c0.73,-1.13 1.53,-2.23 2.32,-3.33c0.07,-0.06 0.12,-0.15 0.23,-0.12a0.18,0.18 0 0 1 0.17,0.05a0.38,0.38 0 0 0 -0.08,0.23c-0.07,0 -0.11,0.05 -0.15,0.11l-2.08,3c-0.09,0.12 -0.05,0.2 0,0.29c0.83,0.92 1.62,1.88 2.37,2.87c0,0.06 0.09,0.1 0,0.18a0.93,0.93 0 0 1 -0.33,-0.26c-0.78,-0.76 -1.45,-1.6 -2.16,-2.42c-0.24,-0.28 -0.44,-0.48 -0.82,-0.3c-0.06,0 -0.14,0 -0.2,0a14.82,14.82 0 0 1 -2.21,0a9.72,9.72 0 0 1 -1.42,-0.12a0.41,0.41 0 0 0 -0.4,0.12q-1.41,1.39 -2.94,2.64c-0.09,0.07 -0.22,0.13 -0.21,0.22s0.19,0.1 0.29,0.14l0.06,0a26.89,26.89 0 0 0 5.29,0.53a25.35,25.35 0 0 0 4.27,-0.16a21.13,21.13 0 0 0 3.8,-1a9.29,9.29 0 0 0 1.49,-0.64l0.33,-0.07a0.17,0.17 0 0 1 0.06,0.16l0,0.08l0,0c-0.16,0 -0.44,0 -0.33,0.31c0.16,0.46 0.37,0.91 0.56,1.37a0.92,0.92 0 0 1 -0.32,0.27c-0.15,-0.53 -0.46,-1 -0.65,-1.5c0,-0.12 -0.13,-0.08 -0.21,-0.05a6.3,6.3 0 0 1 -0.72,0.28c-0.2,0.06 -0.24,0.14 -0.16,0.34c0.19,0.46 0.35,0.93 0.52,1.4c0,0.08 0.1,0.17 0,0.26l-0.21,0a16.07,16.07 0 0 1 -0.71,-1.65c0,-0.13 -0.13,-0.14 -0.25,-0.1a5.76,5.76 0 0 1 -0.68,0.19c-0.23,0 -0.28,0.12 -0.2,0.35a12.38,12.38 0 0 1 0.58,1.84z" class="cls-1"/>
    <path id="svg_2" d="m27.48,19.015867c0.18,-0.21 0.44,-0.16 0.66,-0.16a1.42,1.42 0 0 0 0.42,-0.05s0,0.07 0.08,0.06a6.46,6.46 0 0 1 -1.16,0.15z" class="cls-2"/>
    <path id="svg_3" d="m34.67,14.755867l0,0z" class="cls-3"/>
    <path id="svg_4" d="m21.06,18.705867l-0.25,-0.09a9.81,9.81 0 0 1 -1.19,-0.19s0.07,0 0.08,-0.07c0.22,-0.6 0.42,-1.2 0.63,-1.8c0,-0.07 0,-0.12 0,-0.18l0,0l1,0.13c0.16,0 0.17,0.09 0.13,0.25a7.85,7.85 0 0 0 -0.4,1.95z" class="cls-2"/>
    <path id="svg_5" d="m20.28,16.375867c0,0.06 0.08,0.11 0,0.18c-0.21,0.6 -0.41,1.2 -0.63,1.8c0,0 -0.05,0 -0.08,0.07l-0.09,-0.05a7,7 0 0 1 0.52,-1.81c0.07,-0.12 0.14,-0.21 0.28,-0.19z" class="cls-1"/>
    <path id="svg_6" d="m29.65,9.335867a10.25,10.25 0 0 1 1.51,1a11.57,11.57 0 0 1 1.84,1.91a11.34,11.34 0 0 1 1.18,2.13c0,0.07 0.05,0.16 0.13,0.21a9.29,9.29 0 0 1 -1.49,0.64a21.13,21.13 0 0 1 -3.8,1a25.35,25.35 0 0 1 -4.18,0.21a26.89,26.89 0 0 1 -5.29,-0.53l-0.06,0c-0.1,0 -0.26,0 -0.29,-0.14s0.12,-0.15 0.21,-0.22q1.53,-1.25 2.94,-2.64a0.41,0.41 0 0 1 0.4,-0.12a9.72,9.72 0 0 0 1.42,0.12a14.82,14.82 0 0 0 2.21,0c0.06,0 0.14,0 0.2,0c0.38,-0.18 0.58,0 0.82,0.3c0.71,0.82 1.38,1.66 2.16,2.42a0.93,0.93 0 0 0 0.33,0.26c0.06,-0.08 0,-0.12 0,-0.18c-0.75,-1 -1.54,-1.95 -2.37,-2.87c-0.09,-0.09 -0.13,-0.17 0,-0.29l2.08,-3c-0.06,-0.16 -0.02,-0.21 0.05,-0.21z" class="cls-2"/>
    <path id="svg_7" d="m20.35,9.235867c0.26,-0.11 0.51,-0.28 0.76,-0.36c0.41,-0.14 0.89,-0.26 1.26,-0.37a9.66,9.66 0 0 1 7,0.67c-0.79,1.1 -1.59,2.2 -2.32,3.33a0.24,0.24 0 0 1 -0.26,0.12l-2.12,-0.14a7.8,7.8 0 0 0 -1.93,0a0.25,0.25 0 0 1 -0.28,-0.15c-0.68,-1.1 -1.46,-2.08 -2.11,-3.1z" class="cls-2"/>
    <path id="svg_8" d="m14.42,16.425867l-0.35,-0.41c-0.05,0 -0.12,-0.1 -0.08,-0.16c0.22,-0.4 0.31,-0.86 0.56,-1.25a12.73,12.73 0 0 1 1.52,0.57c0.13,0 0.08,0.14 0.05,0.23c-0.18,0.43 -0.35,0.87 -0.52,1.3a0.9,0.9 0 0 0 -0.09,0.33a1.65,1.65 0 0 1 -0.46,-0.23a1.93,1.93 0 0 0 -0.63,-0.38z" class="cls-2"/>
    <path id="svg_9" d="m34.61,14.515867l-0.33,0.07c-0.08,-0.05 -0.09,-0.14 -0.13,-0.21a11.34,11.34 0 0 0 -1.15,-2.13a11.57,11.57 0 0 0 -1.81,-1.89a10.25,10.25 0 0 0 -1.51,-1a0.38,0.38 0 0 1 0.08,-0.23a7.34,7.34 0 0 1 1.86,1.16a9.77,9.77 0 0 1 2.89,3.84a2.8,2.8 0 0 1 0.1,0.39z" class="cls-2"/>
    <path id="svg_10" d="m27.08,18.955867l0,-0.53a2.62,2.62 0 0 0 0,-1.08l0,-0.18l0,0l0,0c0,-0.42 0,-0.42 0.37,-0.49s0.43,-0.08 0.56,0.35c0.17,0.6 0.36,1.2 0.54,1.8a1.42,1.42 0 0 1 -0.42,0.05c-0.22,0 -0.48,-0.05 -0.66,0.16a0.47,0.47 0 0 1 -0.39,-0.08z" class="cls-2"/>
    <path id="svg_11" d="m16.55,17.555867c-0.05,-0.14 -0.21,-0.06 -0.29,-0.16l-0.67,-0.38c0.13,0 0.18,-0.12 0.22,-0.23c0.19,-0.44 0.39,-0.87 0.58,-1.3c0.07,-0.15 0.14,-0.24 0.33,-0.16s0.56,0.18 0.84,0.26a9.94,9.94 0 0 0 -0.73,2c-0.07,0 -0.1,0 -0.15,0.06s-0.05,-0.09 -0.13,-0.09z" class="cls-2"/>
    <path id="svg_12" d="m34.55,16.765867c-0.18,0.12 -0.43,0.15 -0.57,0.34s-0.37,0.26 -0.59,0.33c0.07,-0.09 0,-0.18 0,-0.26c-0.17,-0.47 -0.33,-0.94 -0.52,-1.4c-0.08,-0.2 0,-0.28 0.16,-0.34a6.3,6.3 0 0 0 0.72,-0.28c0.08,0 0.16,-0.07 0.21,0.05c0.19,0.52 0.5,1 0.65,1.5l-0.06,0.06z" class="cls-2"/>
    <path id="svg_13" d="m15,14.305867l-0.25,-0.07a10.66,10.66 0 0 1 2.11,-2.84a12.19,12.19 0 0 1 2.78,-2a0.63,0.63 0 0 1 0.27,-0.1c0,0.1 0.06,0.17 0.07,0.26a0.72,0.72 0 0 0 -0.37,0.13c-0.41,0.25 -0.8,0.52 -1.19,0.8a11.19,11.19 0 0 0 -2.09,2a0.4,0.4 0 0 1 -0.28,0.16c-0.17,0 -0.17,0 -0.06,0.17s0,0.13 -0.06,0.17c-0.15,0.22 -0.32,0.42 -0.45,0.65a3.61,3.61 0 0 1 -0.48,0.67z" class="cls-2"/>
    <path id="svg_14" d="m29.56,9.015867c-0.11,0 -0.16,0.06 -0.23,0.12a9.62,9.62 0 0 0 -7,-0.67c-0.42,0.11 -0.85,0.23 -1.26,0.37c-0.25,0.08 -0.5,0.25 -0.76,0.36l-0.12,-0.17a10.2,10.2 0 0 1 3.33,-0.91a11.06,11.06 0 0 1 4.68,0.37a3.79,3.79 0 0 1 1.36,0.53z" class="cls-2"/>
    <path id="svg_15" d="m23.28,18.935867c-0.14,-0.17 0,-0.33 0,-0.5a9.72,9.72 0 0 0 1.32,0.06a0.63,0.63 0 0 1 0.06,0.33c0,0.07 0,0.13 0.1,0.13s0.11,-0.06 0.11,-0.13a2.46,2.46 0 0 0 0,-0.28l1.77,0c0.08,0.14 0,0.34 0.16,0.45a0.62,0.62 0 0 1 -0.38,0c-1.03,0.02 -2.09,0.02 -3.14,-0.06z" class="cls-2"/>
    <path id="svg_16" d="m21.52,18.835867c-0.09,-0.05 -0.15,-0.14 -0.26,-0.13c0.07,-0.16 0.06,-0.35 0.17,-0.5a6.27,6.27 0 0 0 1.56,0.17c0,0.18 0.05,0.36 0,0.53l-1.1,-0.11c-0.16,-0.01 -0.28,-0.08 -0.37,0.04z" class="cls-2"/>
    <path id="svg_17" d="m34.9,16.435867c-0.19,-0.46 -0.4,-0.91 -0.56,-1.37c-0.11,-0.3 0.17,-0.26 0.33,-0.31a5.2,5.2 0 0 1 0.46,1.43c0.04,0.15 -0.13,0.2 -0.23,0.25z" class="cls-2"/>
    <path id="svg_18" d="m30.3,18.505867a0.11,0.11 0 0 1 -0.12,0.1c-0.38,0 -0.74,0.15 -1.12,0.19l-0.25,0a0.89,0.89 0 0 1 -0.07,-0.43a7.3,7.3 0 0 0 1.26,-0.16c0.07,0.11 0.08,0.31 0.3,0.3z" class="cls-2"/>
    <path id="svg_19" d="m18.15,18.015867c0.25,-0.57 0.51,-1.15 0.75,-1.73c0.07,-0.19 0.16,-0.25 0.36,-0.19l1,0.25l0,0c-0.14,0 -0.21,0.07 -0.25,0.19a7,7 0 0 0 -0.5,1.81l-0.74,-0.18a2.34,2.34 0 0 1 -0.62,-0.15z" class="cls-2"/>
    <path id="svg_20" d="m16.85,17.635867c0.16,0 0.21,-0.11 0.26,-0.23l0.66,-1.52c0.05,-0.11 0.09,-0.15 0.23,-0.12c0.72,0.16 0.71,0.15 0.45,0.81c-0.16,0.38 -0.28,0.77 -0.42,1.16a0.53,0.53 0 0 0 -0.03,0.28l-1.15,-0.38z" class="cls-2"/>
    <path id="svg_21" d="m30.59,18.485867l-0.24,0c-0.17,-0.64 -0.34,-1.28 -0.52,-1.92c0,-0.17 0,-0.28 0.18,-0.3s0.29,-0.06 0.44,-0.09c0.39,-0.07 0.4,-0.07 0.54,0.31a11.36,11.36 0 0 0 0.59,1.39c0.05,0.09 0.08,0.2 0.21,0.22a4.61,4.61 0 0 1 -1,0.28c-0.11,0 -0.14,0.07 -0.2,0.11z" class="cls-2"/>
    <path id="svg_22" d="m31.9,18.015867a12.38,12.38 0 0 0 -0.56,-1.79c-0.08,-0.23 0,-0.31 0.2,-0.35a5.76,5.76 0 0 0 0.68,-0.19c0.12,0 0.2,0 0.25,0.1a16.07,16.07 0 0 0 0.71,1.65c-0.09,0.19 -0.29,0.22 -0.46,0.28a3.83,3.83 0 0 1 -0.82,0.3z" class="cls-2"/>
    <path id="svg_23" d="m15,14.305867a3.61,3.61 0 0 0 0.48,-0.74c0.13,-0.23 0.3,-0.43 0.45,-0.65c0,0 0.12,-0.08 0.06,-0.17s-0.11,-0.15 0.06,-0.17a0.4,0.4 0 0 0 0.28,-0.16a11.19,11.19 0 0 1 2.09,-2c0.39,-0.28 0.78,-0.55 1.19,-0.8a0.72,0.72 0 0 1 0.39,-0.11c0.38,0.47 0.76,1 1.13,1.43s0.79,1 1.21,1.41c0.1,0.11 0.14,0.15 0,0.25a3.94,3.94 0 0 0 -0.75,0.66a15.5,15.5 0 0 1 -2.34,2a0.36,0.36 0 0 0 -0.13,0.11c-0.16,0.3 -0.39,0.27 -0.66,0.19c-1.13,-0.35 -2.23,-0.76 -3.32,-1.2c-0.09,0.01 -0.14,-0.03 -0.14,-0.05z" class="cls-2"/>
    <path id="svg_24" d="m26.67,18.545867l-1.77,0l0,-0.11l0,-0.07c0.06,-0.49 0.11,-1 0.17,-1.48c0,-0.1 0,-0.18 0.15,-0.18l1.18,0c0.06,0 0.15,0 0.15,0.1c0.01,0.55 0.12,1.14 0.12,1.74z" class="cls-2"/>
    <path id="svg_25" d="m23,18.375867a6.27,6.27 0 0 1 -1.56,-0.17l0.39,-1.53c0,-0.08 0.05,-0.13 0.16,-0.12c0.34,0 0.68,0.06 1,0.08c0.15,0 0.16,0.07 0.15,0.21c-0.05,0.51 -0.14,1.02 -0.14,1.53z" class="cls-2"/>
    <path id="svg_26" d="m24.61,18.495867a9.72,9.72 0 0 1 -1.32,-0.06c0.07,-0.56 0.14,-1.11 0.22,-1.67c0,-0.08 0,-0.12 0.13,-0.11a5.93,5.93 0 0 0 0.94,0c0.12,0 0.14,0.05 0.13,0.16a9.85,9.85 0 0 0 -0.1,1.68z" class="cls-2"/>
    <path id="svg_27" d="m30,18.205867a7.3,7.3 0 0 1 -1.23,0.18c-0.15,-0.58 -0.29,-1.15 -0.43,-1.72c0,-0.08 0,-0.13 0.08,-0.14l0,0c0.29,0 0.62,-0.2 0.83,-0.09s0.21,0.47 0.31,0.73s0.27,0.69 0.44,1.04z" class="cls-2"/>
    <path id="svg_28" d="m27.09,17.345867a2.62,2.62 0 0 1 0,1.08l0,-1.08z" class="cls-3"/>
    <path id="svg_29" d="m27.09,17.115867l0,0l0,0a0,0 0 0 1 0,0z" class="cls-3"/>
    <path id="svg_30" d="m24.94,18.365867l0,0.07l0,-0.07z" class="cls-3"/>
    <path id="svg_31" d="m6.26,16.465867a0.38,0.38 0 0 1 -0.4,0.41a0.24,0.24 0 0 1 -0.28,-0.28a0.53,0.53 0 0 1 0.42,-0.45c0.17,-0.01 0.26,0.11 0.26,0.32z" class="cls-4"/>
    <path id="svg_32" d="m38.45,23.015867a1.62,1.62 0 0 0 0,-0.22a10.69,10.69 0 0 0 -1,-2.85a8,8 0 0 0 -2.86,-3.14c-0.18,0.12 -0.43,0.15 -0.57,0.34s-0.37,0.26 -0.59,0.33l-0.21,0c-0.09,0.19 -0.29,0.22 -0.46,0.28a3.83,3.83 0 0 1 -0.82,0.3l-0.11,0.07a4.46,4.46 0 0 1 -1,0.28c-0.1,0 -0.13,0.07 -0.19,0.11l-0.24,0l-0.05,0a0.11,0.11 0 0 1 -0.12,0.1a11.08,11.08 0 0 0 3,2.86a25.62,25.62 0 0 0 4.69,2c0.44,0.16 0.48,0.13 0.53,-0.33l0,0l0,-0.13zm-0.46,0.35l0.15,0l-0.15,0z" class="cls-5"/>
    <path id="svg_33" d="m16.26,17.395867a1.26,1.26 0 0 1 -0.26,0.13a1.26,1.26 0 0 0 0.26,-0.13l-0.67,-0.38l-0.08,0a1.65,1.65 0 0 1 -0.46,-0.23a1.93,1.93 0 0 0 -0.63,-0.34l-0.35,-0.43a2.54,2.54 0 0 1 -2,-0.5c-0.55,-0.5 -1.07,-0.93 -1.66,-1.35a8.64,8.64 0 0 0 -2.78,-1.47a4.52,4.52 0 0 0 -3.23,0.58a12.78,12.78 0 0 0 -4,3.4c-0.55,0.64 -0.5,1 0.12,1.57a0.48,0.48 0 0 0 0.11,0.09a5.34,5.34 0 0 0 3.33,1.06a6.74,6.74 0 0 0 3.68,-1.19a0.9,0.9 0 0 1 1,-0.09a9,9 0 0 0 4.78,0.65a8,8 0 0 0 3.19,-1.21c-0.11,-0.14 -0.27,-0.06 -0.35,-0.16zm-10.68,-0.8a0.53,0.53 0 0 1 0.42,-0.45c0.14,0 0.24,0.11 0.24,0.32a0.38,0.38 0 0 1 -0.4,0.41a0.24,0.24 0 0 1 -0.26,-0.28z" class="cls-5"/>
    <path id="svg_34" d="m23,23.315867a13,13 0 0 0 -1.49,-4.48c-0.09,-0.05 -0.15,-0.14 -0.26,-0.13l-0.2,0l-0.25,-0.09a1,1 0 0 0 0.06,0.16a1,1 0 0 1 -0.06,-0.16a9.81,9.81 0 0 1 -1.19,-0.19l-0.09,-0.05l-0.74,-0.18a2.34,2.34 0 0 1 -0.64,-0.18l-0.14,0l-1.16,-0.38l0,0c-0.07,0 -0.1,0 -0.15,0.06a0.7,0.7 0 0 0 0,0.14a10.78,10.78 0 0 0 0.55,3.38l0,0.07l0,0a6.25,6.25 0 0 0 0.46,1.25a11,11 0 0 0 2.3,3.25a8.19,8.19 0 0 0 1.87,1.7l0,0l0.06,0a0.06,0.06 0 0 0 0.07,0c0.47,0.47 0.58,0.47 0.86,0a1,1 0 0 0 0.24,-0.57a12.34,12.34 0 0 0 -0.1,-3.6z" class="cls-5"/>
   </g>
  </g>
  <g id="svg_61">
   <g transform="matrix(0.018669764036733705,0,0,0.018669764036733705,0,0) " id="svg_39">
    <g id="svg_40">
     <path id="svg_41" d="m174.938207,401.167953c3.514,11.463 7.147,23.318 8.96,35.258c0.741,4.866 3.647,40.261 5.218,59.707c0.602,7.451 6.252,13.508 13.643,14.626l25.821,3.904c3.723,0.563 6.692,3.402 7.417,7.097l3.402,17.401c1.479,7.563 8.108,13.018 15.814,13.014l200.241,-0.119c7.572,-0.005 14.118,-5.283 15.726,-12.682l3.896,-17.915c0.86,-3.536 3.782,-6.193 7.383,-6.717l31.437,-4.566c7.554,-1.097 13.3,-7.344 13.759,-14.964c1.206,-20.008 3.457,-56.434 4.155,-61.425c1.653,-11.784 5.131,-23.432 8.49,-34.764c4.709,-15.857 9.578,-32.225 9.578,-49.248c0.006,-108.709 -86.402,-197.132 -192.608,-197.132s-192.613,88.471 -192.613,197.204c0.001,17.782 5.227,34.834 10.281,51.321zm207.43,-10.032c1.221,-30.877 28.91,-38.641 59.787,-37.421c30.877,1.221 53.249,10.965 52.028,41.842c-1.221,30.877 -27.241,54.918 -58.118,53.697c-30.877,-1.221 -54.918,-27.241 -53.697,-58.118zm-18.166,60.589l20.042,29.679c1.778,2.632 2.021,6.011 0.639,8.871l-2.875,5.951c-1.489,3.081 -4.609,5.038 -8.03,5.038l-17.167,0l-17.167,0c-3.422,0 -6.542,-1.958 -8.03,-5.038l-2.875,-5.951c-1.382,-2.86 -1.138,-6.238 0.639,-8.871l20.042,-29.679c3.536,-5.237 11.246,-5.237 14.782,0zm-91.82,-98.009c30.877,-1.221 58.566,6.543 59.787,37.421c1.221,30.877 -22.82,56.897 -53.697,58.118c-30.877,1.221 -56.897,-22.82 -58.118,-53.697c-1.221,-30.878 21.151,-40.622 52.028,-41.842z"/>
     <path id="svg_42" d="m608.433207,124.287953c2.402,-14.75 -2.089,-30.405 -13.499,-41.757c-18.326,-18.234 -48.224,-18.566 -66.929,-0.721c-19.558,18.659 -19.834,49.646 -0.828,68.652l-17.47,17.47c-6.98,6.981 -6.98,18.299 0,25.28l29.802,29.802c6.98,6.981 18.299,6.981 25.279,0l17.47,-17.47c19.007,19.007 49.994,18.73 68.652,-0.828c17.845,-18.705 17.512,-48.604 -0.722,-66.929c-11.351,-11.41 -27.005,-15.901 -41.755,-13.499z"/>
     <path id="svg_43" d="m133.907207,205.542953l17.47,17.47c6.981,6.981 18.299,6.981 25.279,0l29.802,-29.802c6.981,-6.981 6.981,-18.299 0,-25.28l-17.47,-17.47c19.007,-19.006 18.73,-49.993 -0.828,-68.652c-18.705,-17.844 -48.603,-17.512 -66.929,0.722c-11.409,11.352 -15.9,27.007 -13.498,41.757c-14.75,-2.402 -30.404,2.089 -41.757,13.498c-18.234,18.325 -18.567,48.224 -0.722,66.929c18.659,19.558 49.646,19.834 68.653,0.828z"/>
     <path id="svg_44" d="m650.912207,538.638953c-18.659,-19.559 -49.646,-19.834 -68.652,-0.828l-17.47,-17.47c-6.981,-6.981 -18.299,-6.981 -25.279,0l-29.802,29.802c-6.98,6.981 -6.98,18.299 0,25.28l17.47,17.47c-19.007,19.007 -18.73,49.994 0.828,68.652c18.705,17.845 48.604,17.513 66.929,-0.721c11.41,-11.352 15.901,-27.007 13.499,-41.757c14.75,2.402 30.404,-2.089 41.756,-13.499c18.233,-18.326 18.565,-48.224 0.721,-66.929z"/>
     <path id="svg_45" d="m107.733207,619.065953c-2.402,14.75 2.089,30.405 13.499,41.757c18.326,18.234 48.224,18.566 66.929,0.721c19.558,-18.659 19.834,-49.646 0.828,-68.652l17.47,-17.47c6.981,-6.98 6.981,-18.299 0,-25.28l-29.802,-29.802c-6.981,-6.981 -18.299,-6.981 -25.279,0l-17.47,17.47c-19.007,-19.007 -49.994,-18.731 -68.652,0.828c-17.845,18.705 -17.513,48.603 0.721,66.929c11.352,11.41 27.006,15.901 41.756,13.499z"/>
    </g>
   </g>
   <g transform="matrix(0.018669764036733705,0,0,0.018669764036733705,0,0) " id="svg_46"/>
   <g transform="matrix(0.018669764036733705,0,0,0.018669764036733705,0,0) " id="svg_47"/>
   <g transform="matrix(0.018669764036733705,0,0,0.018669764036733705,0,0) " id="svg_48"/>
   <g transform="matrix(0.018669764036733705,0,0,0.018669764036733705,0,0) " id="svg_49"/>
   <g transform="matrix(0.018669764036733705,0,0,0.018669764036733705,0,0) " id="svg_50"/>
   <g transform="matrix(0.018669764036733705,0,0,0.018669764036733705,0,0) " id="svg_51"/>
   <g transform="matrix(0.018669764036733705,0,0,0.018669764036733705,0,0) " id="svg_52"/>
   <g transform="matrix(0.018669764036733705,0,0,0.018669764036733705,0,0) " id="svg_53"/>
   <g transform="matrix(0.018669764036733705,0,0,0.018669764036733705,0,0) " id="svg_54"/>
   <g transform="matrix(0.018669764036733705,0,0,0.018669764036733705,0,0) " id="svg_55"/>
   <g transform="matrix(0.018669764036733705,0,0,0.018669764036733705,0,0) " id="svg_56"/>
   <g transform="matrix(0.018669764036733705,0,0,0.018669764036733705,0,0) " id="svg_57"/>
   <g transform="matrix(0.018669764036733705,0,0,0.018669764036733705,0,0) " id="svg_58"/>
   <g transform="matrix(0.018669764036733705,0,0,0.018669764036733705,0,0) " id="svg_59"/>
   <g transform="matrix(0.018669764036733705,0,0,0.018669764036733705,0,0) " id="svg_60"/>
  </g>
 </g>
</svg>