<svg xmlns="http://www.w3.org/2000/svg" viewBox="0 0 38.45 26.89"><defs><style>.cls-1{fill:#fff;}.cls-2{fill:#667e47;}.cls-3{fill:#7f644c;}.cls-4{fill:#fefefe;}.cls-5{fill:#a9c885;}.cls-6{fill:#eda464;}</style></defs><title>Recurso 2icono-marinos-estrella</title><g id="Capa_2" data-name="Capa 2"><g id="ëÎÓÈ_1" data-name="ëÎÓÈ 1"><path class="cls-1" d="M31.9,17l-.11.07c-.13,0-.16-.13-.21-.22A12.07,12.07,0,0,1,31,15.45c-.14-.39-.15-.38-.54-.31-.15,0-.29.07-.44.09s-.22.13-.18.3c.18.64.35,1.28.52,1.92l-.05,0c-.22,0-.23-.19-.33-.3-.14-.35-.27-.7-.41-1s-.13-.65-.31-.73-.54,0-.83.09h0c-.08,0-.1,0-.08.14.14.57.28,1.14.43,1.72a.93.93,0,0,0,.07.43l-.17,0c-.05,0-.06,0-.08-.06-.18-.6-.37-1.2-.54-1.8-.13-.43-.12-.43-.56-.35s-.4.07-.37.49a0,0,0,0,0,0,.05v1.79c-.07.08-.16,0-.25,0s-.08-.31-.16-.45c0-.6-.11-1.19-.08-1.8,0-.13-.09-.1-.15-.1l-1.18.06c-.13,0-.14.08-.15.18-.06.5-.11,1-.17,1.48l0,.07v.11a2.64,2.64,0,0,1,0,.28c0,.07,0,.13-.11.13s-.1-.07-.1-.13a.61.61,0,0,0-.06-.33,9.85,9.85,0,0,1,.1-1.63c0-.11,0-.16-.13-.16a5.93,5.93,0,0,1-.94-.05c-.08,0-.12,0-.13.11-.08.56-.15,1.11-.22,1.67,0,.16-.15.33,0,.5a.65.65,0,0,1-.34,0c.1-.17,0-.35,0-.53.05-.51.1-1,.16-1.53,0-.14,0-.2-.15-.21-.34,0-.68,0-1-.08-.11,0-.14,0-.16.12l-.39,1.52a2.54,2.54,0,0,0-.17.51h-.2a7.85,7.85,0,0,1,.36-2c0-.16,0-.23-.13-.25l-1-.13c-.35-.08-.7-.16-1-.26s-.29,0-.36.2c-.24.58-.5,1.16-.75,1.73H18a.53.53,0,0,1,0-.28c.14-.39.26-.78.42-1.16.26-.66.27-.65-.45-.81-.14,0-.18,0-.23.12l-.66,1.52c-.05.11-.1.23-.26.23l0,0a9.94,9.94,0,0,1,.73-2,8.21,8.21,0,0,1-.84-.27c-.19-.07-.26,0-.33.16-.19.44-.39.87-.58,1.31,0,.11-.09.21-.22.23L15.51,16a.9.9,0,0,1,.09-.33c.17-.43.34-.87.52-1.3,0-.09.08-.19-.05-.23a12.73,12.73,0,0,0-1.52-.57l.18-.33.25.06s.07.07.11.08c1.09.44,2.19.85,3.32,1.2.27.08.5.11.66-.19a.36.36,0,0,1,.13-.11,15.5,15.5,0,0,0,2.34-2,3.94,3.94,0,0,1,.75-.66c.15-.1.11-.14,0-.25-.42-.45-.83-.92-1.21-1.41s-.75-1-1.13-1.43c0-.09-.09-.16-.07-.26A.94.94,0,0,1,20.23,8l.12.18c.68,1,1.43,2,2.07,3.06a.25.25,0,0,0,.28.15,7.8,7.8,0,0,1,1.93,0l2.12.14a.24.24,0,0,0,.26-.12c.73-1.13,1.53-2.23,2.32-3.33.07-.06.12-.15.23-.12a.18.18,0,0,1,.17.05.38.38,0,0,0-.08.23c-.07,0-.11,0-.15.11l-2.08,3c-.09.12-.05.2,0,.29.83.92,1.62,1.88,2.37,2.87,0,.05.09.1,0,.18a.93.93,0,0,1-.33-.26c-.78-.76-1.45-1.6-2.16-2.42-.24-.28-.44-.48-.82-.3a.45.45,0,0,1-.2,0,14.82,14.82,0,0,1-2.21,0,9.72,9.72,0,0,1-1.42-.12.41.41,0,0,0-.4.12q-1.41,1.39-2.94,2.64c-.09.07-.22.13-.21.22s.19.1.29.14h.06a26.89,26.89,0,0,0,5.29.53A25.35,25.35,0,0,0,29,15.14a21.13,21.13,0,0,0,3.8-1,9.29,9.29,0,0,0,1.49-.64l.33-.07a.17.17,0,0,1,.06.16v.08h0c-.16,0-.44,0-.33.3.16.47.37.92.56,1.37a1.08,1.08,0,0,1-.32.28c-.15-.53-.46-1-.65-1.5,0-.12-.13-.08-.21-.05a6.3,6.3,0,0,1-.72.28c-.2.06-.24.14-.16.34.19.46.35.93.52,1.39,0,.09.1.18,0,.27h-.21a17.08,17.08,0,0,1-.71-1.65c0-.13-.13-.14-.25-.11a4.37,4.37,0,0,1-.68.2c-.23,0-.28.12-.2.34A12.91,12.91,0,0,1,31.9,17Z"/><path class="cls-2" d="M27.48,18c.18-.22.44-.16.66-.16a1.42,1.42,0,0,0,.42-.05s0,.07.08.06A6.46,6.46,0,0,1,27.48,18Z"/><path class="cls-3" d="M34.67,13.72v0Z"/><path class="cls-2" d="M21.06,17.67l-.25-.09a9.81,9.81,0,0,1-1.19-.19s.07,0,.08-.07c.22-.6.42-1.2.63-1.8a.16.16,0,0,0,0-.18l0,0,1,.13c.16,0,.17.09.13.25A7.85,7.85,0,0,0,21.06,17.67Z"/><path class="cls-1" d="M20.28,15.34a.16.16,0,0,1,0,.18c-.21.6-.41,1.2-.63,1.8,0,0-.05,0-.08.07l-.09-.05a7,7,0,0,1,.5-1.81C20.07,15.41,20.14,15.32,20.28,15.34Z"/><path class="cls-2" d="M29.65,8.3a10.25,10.25,0,0,1,1.51,1A11.18,11.18,0,0,1,33,11.21a11.34,11.34,0,0,1,1.18,2.13c0,.07.05.16.13.21a9.29,9.29,0,0,1-1.49.64,21.13,21.13,0,0,1-3.8,1,25.35,25.35,0,0,1-4.18.21,26.89,26.89,0,0,1-5.29-.53h-.06c-.1,0-.26,0-.29-.14s.12-.15.21-.22q1.53-1.25,2.94-2.64a.41.41,0,0,1,.4-.12,9.72,9.72,0,0,0,1.42.12,14.82,14.82,0,0,0,2.21,0,.45.45,0,0,0,.2,0c.38-.18.58,0,.82.3.71.82,1.38,1.66,2.16,2.42a.93.93,0,0,0,.33.26c.06-.08,0-.13,0-.18-.75-1-1.54-1.95-2.37-2.87-.09-.09-.13-.17,0-.29l2.08-3C29.54,8.35,29.58,8.3,29.65,8.3Z"/><path class="cls-2" d="M20.35,8.2c.26-.11.51-.28.76-.36.41-.14.84-.26,1.26-.37a9.53,9.53,0,0,1,2.91-.36,9.75,9.75,0,0,1,4,1c-.79,1.1-1.59,2.2-2.32,3.33a.24.24,0,0,1-.26.12l-2.12-.14a7.8,7.8,0,0,0-1.93,0,.25.25,0,0,1-.28-.15C21.78,10.2,21,9.22,20.35,8.2Z"/><path class="cls-2" d="M14.42,15.38c-.12-.14-.23-.29-.35-.44s-.12-.1-.08-.16c.22-.4.31-.86.56-1.25a12.73,12.73,0,0,1,1.52.57c.13,0,.08.14.05.23-.18.43-.35.87-.52,1.3a.9.9,0,0,0-.09.33,2,2,0,0,1-.46-.23A2.16,2.16,0,0,0,14.42,15.38Z"/><path class="cls-2" d="M34.61,13.48l-.33.07c-.08-.05-.09-.14-.13-.21A11.34,11.34,0,0,0,33,11.21a11.18,11.18,0,0,0-1.81-1.89,10.25,10.25,0,0,0-1.51-1,.38.38,0,0,1,.08-.23,7.34,7.34,0,0,1,1.86,1.16,9.77,9.77,0,0,1,2.89,3.84A2.8,2.8,0,0,1,34.61,13.48Z"/><path class="cls-2" d="M27.08,17.92v-.53a2.62,2.62,0,0,0,0-1.08v-.18l0,0s0,0,0,0c0-.42,0-.42.37-.49s.43-.08.56.35c.17.6.36,1.2.54,1.8a1.42,1.42,0,0,1-.42.05c-.22,0-.48-.06-.66.16A.47.47,0,0,1,27.08,17.92Z"/><path class="cls-2" d="M16.55,16.52c-.05-.14-.21-.06-.29-.16L15.59,16c.13,0,.18-.12.22-.23.19-.44.39-.87.58-1.31.07-.15.14-.23.33-.16a8.21,8.21,0,0,0,.84.27,9.94,9.94,0,0,0-.73,2c-.07,0-.1,0-.15.06S16.63,16.52,16.55,16.52Z"/><path class="cls-2" d="M34.55,15.73c-.18.12-.43.15-.57.34s-.37.26-.59.33c.07-.09,0-.18,0-.27-.17-.46-.33-.93-.52-1.39-.08-.2,0-.28.16-.34a6.3,6.3,0,0,0,.72-.28c.08,0,.16-.07.21.05.19.51.5,1,.65,1.5Z"/><path class="cls-2" d="M15,13.26l-.25-.06a10.66,10.66,0,0,1,2.11-2.84,12.19,12.19,0,0,1,2.78-2,.63.63,0,0,1,.27-.1c0,.1.06.17.07.26a.72.72,0,0,0-.37.13c-.41.25-.8.52-1.19.8a11.19,11.19,0,0,0-2.09,2,.4.4,0,0,1-.28.16c-.17,0-.17,0-.06.17s0,.13-.06.17c-.15.22-.32.42-.45.65A3.54,3.54,0,0,1,15,13.26Z"/><path class="cls-2" d="M29.56,8c-.11,0-.16.06-.23.12a9.75,9.75,0,0,0-4-1,9.53,9.53,0,0,0-2.91.36c-.42.11-.85.23-1.26.37-.25.08-.5.25-.76.36L20.23,8a10.73,10.73,0,0,1,3.29-.95,11.39,11.39,0,0,1,4.68.37A4,4,0,0,1,29.56,8Z"/><path class="cls-2" d="M23.28,17.9c-.14-.17,0-.34,0-.5a9.72,9.72,0,0,0,1.32.06.61.61,0,0,1,.06.33c0,.06,0,.13.1.13s.11-.06.11-.13a2.64,2.64,0,0,0,0-.28h1.77c.08.14,0,.34.16.45a.62.62,0,0,1-.38.05C25.39,18,24.33,18,23.28,17.9Z"/><path class="cls-2" d="M21.52,17.8c-.09-.05-.15-.14-.26-.13a2.54,2.54,0,0,1,.17-.51,5.84,5.84,0,0,0,1.56.18c0,.18.05.36,0,.53l-1.1-.11C21.73,17.75,21.61,17.68,21.52,17.8Z"/><path class="cls-2" d="M34.9,15.39c-.19-.45-.4-.9-.56-1.37-.11-.29.17-.25.33-.3a5.2,5.2,0,0,1,.46,1.43C35.17,15.3,35,15.35,34.9,15.39Z"/><path class="cls-2" d="M30.3,17.47a.11.11,0,0,1-.12.1c-.38,0-.74.15-1.12.19l-.25,0a.93.93,0,0,1-.07-.43A7.3,7.3,0,0,0,30,17.17C30.07,17.28,30.08,17.48,30.3,17.47Z"/><path class="cls-2" d="M18.15,17c.25-.57.51-1.15.75-1.73.07-.19.16-.25.36-.2s.69.18,1,.26l0,0c-.14,0-.21.07-.25.19a7,7,0,0,0-.5,1.81l-.74-.18A2.34,2.34,0,0,1,18.15,17Z"/><path class="cls-2" d="M16.85,16.6c.16,0,.21-.12.26-.23l.66-1.52c.05-.11.09-.15.23-.12.72.16.71.15.45.81-.16.38-.28.77-.42,1.16A.53.53,0,0,0,18,17Z"/><path class="cls-2" d="M30.59,17.45h-.24c-.17-.64-.34-1.28-.52-1.92,0-.17,0-.28.18-.3s.29-.06.44-.09c.39-.07.4-.08.54.31a12.07,12.07,0,0,0,.59,1.39c.05.09.08.2.21.22a4.61,4.61,0,0,1-1,.28C30.68,17.34,30.65,17.41,30.59,17.45Z"/><path class="cls-2" d="M31.9,17a12.91,12.91,0,0,0-.56-1.8c-.08-.22,0-.3.2-.34a4.37,4.37,0,0,0,.68-.2c.12,0,.2,0,.25.11a17.08,17.08,0,0,0,.71,1.65c-.09.19-.29.22-.46.27A3.38,3.38,0,0,1,31.9,17Z"/><path class="cls-2" d="M15,13.26a3.54,3.54,0,0,0,.48-.73c.13-.23.3-.43.45-.65,0,0,.12-.08.06-.17s-.11-.15.06-.17a.4.4,0,0,0,.28-.16,11.19,11.19,0,0,1,2.09-2c.39-.28.78-.55,1.19-.8A.72.72,0,0,1,20,8.47c.38.47.76.95,1.13,1.43s.79,1,1.21,1.41c.1.11.14.15,0,.25a3.94,3.94,0,0,0-.75.66,15.5,15.5,0,0,1-2.34,2,.36.36,0,0,0-.13.11c-.16.3-.39.27-.66.19-1.13-.35-2.23-.76-3.32-1.2C15.05,13.33,15,13.29,15,13.26Z"/><path class="cls-2" d="M26.67,17.51H24.9V17.4l0-.07c.06-.49.11-1,.17-1.48,0-.1,0-.18.15-.18l1.18-.06c.06,0,.15,0,.15.1C26.56,16.32,26.67,16.91,26.67,17.51Z"/><path class="cls-2" d="M23,17.34a5.84,5.84,0,0,1-1.56-.18l.39-1.52c0-.08.05-.13.16-.12.34,0,.68.06,1,.08.15,0,.16.07.15.21C23.09,16.32,23,16.83,23,17.34Z"/><path class="cls-2" d="M24.61,17.46a9.72,9.72,0,0,1-1.32-.06c.07-.56.14-1.11.22-1.67,0-.08,0-.13.13-.11a5.93,5.93,0,0,0,.94.05c.12,0,.14.05.13.16A9.85,9.85,0,0,0,24.61,17.46Z"/><path class="cls-2" d="M30,17.17a7.3,7.3,0,0,1-1.23.18c-.15-.58-.29-1.15-.43-1.72,0-.09,0-.13.08-.14h0c.29,0,.62-.2.83-.09s.21.47.31.73S29.83,16.82,30,17.17Z"/><path class="cls-3" d="M27.09,16.31a2.62,2.62,0,0,1,0,1.08Z"/><path class="cls-3" d="M27.09,16.08s0,0,0,0l0,0A0,0,0,0,1,27.09,16.08Z"/><path class="cls-3" d="M24.94,17.33l0,.07Z"/><path class="cls-4" d="M6.26,15.43a.38.38,0,0,1-.4.41.25.25,0,0,1-.28-.28A.53.53,0,0,1,6,15.11C6.17,15.1,6.26,15.22,6.26,15.43Z"/><path class="cls-5" d="M38.45,21.94a1.62,1.62,0,0,0,0-.22,10.69,10.69,0,0,0-1-2.85,8,8,0,0,0-2.86-3.14c-.18.12-.43.15-.57.34s-.37.26-.59.33h-.21c-.09.19-.29.22-.46.27a3.38,3.38,0,0,1-.82.31l-.11.07a4.46,4.46,0,0,1-1,.28c-.1,0-.13.07-.19.11h-.24l-.05,0a.11.11,0,0,1-.12.1,11.23,11.23,0,0,0,3,2.86,25.62,25.62,0,0,0,4.69,2c.44.16.48.13.53-.34h0Zm-.46.22.15,0Z"/><path class="cls-5" d="M16.26,16.36a1.26,1.26,0,0,1-.26.13,1.26,1.26,0,0,0,.26-.13L15.59,16,15.51,16a2,2,0,0,1-.46-.23,2.16,2.16,0,0,0-.63-.35c-.12-.14-.23-.29-.35-.44a2.54,2.54,0,0,1-2-.5c-.56-.43-1.11-.89-1.67-1.31a8.64,8.64,0,0,0-2.78-1.47,4.47,4.47,0,0,0-3.23.58,12.78,12.78,0,0,0-4,3.4c-.55.64-.5,1,.12,1.57a.48.48,0,0,0,.11.09,5.34,5.34,0,0,0,3.33,1.06,6.74,6.74,0,0,0,3.68-1.19.9.9,0,0,1,1-.09,8.9,8.9,0,0,0,4.78.64,7.84,7.84,0,0,0,3.19-1.2C16.5,16.38,16.34,16.46,16.26,16.36Zm-10.68-.8A.53.53,0,0,1,6,15.11c.14,0,.24.11.24.32a.38.38,0,0,1-.4.41A.25.25,0,0,1,5.58,15.56Z"/><path class="cls-5" d="M23,22.28a13,13,0,0,0-1.49-4.48c-.09-.05-.15-.14-.26-.13h-.2l-.25-.09a1,1,0,0,0,.06.16,1,1,0,0,1-.06-.16,9.81,9.81,0,0,1-1.19-.19l-.09-.05-.74-.18a2.34,2.34,0,0,1-.64-.18H18l-1.16-.38,0,0c-.07,0-.1,0-.15.06a.7.7,0,0,0,0,.14,10.78,10.78,0,0,0,.55,3.38l0,.07h0a6.25,6.25,0,0,0,.46,1.25A10.86,10.86,0,0,0,20,24.74a8.23,8.23,0,0,0,1.87,1.71h0l.06,0a.06.06,0,0,0,.07.05c.47.46.58.46.86,0a1,1,0,0,0,.24-.57A12.34,12.34,0,0,0,23,22.28Z"/><path class="cls-6" d="M12.33,5.65a.26.26,0,0,1-.08.5h-.08L11.73,6a.25.25,0,0,1-.16-.31.26.26,0,0,1,.32-.17Z"/><path class="cls-6" d="M11.91,3.06a.61.61,0,0,1-.16.65L10.24,5.19a.12.12,0,0,0,0,.11l.36,2.09a.65.65,0,0,1-.25.62.63.63,0,0,1-.37.12.64.64,0,0,1-.3-.08l-1.88-1a.11.11,0,0,0-.11,0l-1.88,1A.63.63,0,0,1,5.1,8a.65.65,0,0,1-.25-.62L5.21,5.3a.12.12,0,0,0,0-.11L3.66,3.71A.63.63,0,0,1,4,2.63l2.1-.31a.11.11,0,0,0,.09-.07L7.14.35A.64.64,0,0,1,7.71,0a.62.62,0,0,1,.56.35l.94,1.9a.12.12,0,0,0,.1.07l2.09.31A.61.61,0,0,1,11.91,3.06Zm-.51.28a.12.12,0,0,0,0-.13.11.11,0,0,0-.1-.08l-2.1-.31a.64.64,0,0,1-.47-.34L7.82.58A.11.11,0,0,0,7.76.52h0a.11.11,0,0,0-.12.07l-.94,1.9a.64.64,0,0,1-.47.34l-2.1.31a.11.11,0,0,0-.1.08.12.12,0,0,0,0,.13L5.53,4.82a.65.65,0,0,1,.18.56L5.35,7.47a.14.14,0,0,0,.05.13.13.13,0,0,0,.13,0l1.88-1a.6.6,0,0,1,.3-.07A.59.59,0,0,1,8,6.62l1.88,1a.13.13,0,0,0,.13,0,.14.14,0,0,0,.05-.13L9.7,5.38a.65.65,0,0,1,.18-.56Z"/><path class="cls-6" d="M11.43,3.21a.12.12,0,0,1,0,.13L9.88,4.82a.65.65,0,0,0-.18.56l.36,2.09A.14.14,0,0,1,10,7.6a.13.13,0,0,1-.13,0L8,6.62a.59.59,0,0,0-.29-.07.6.6,0,0,0-.3.07l-1.88,1a.13.13,0,0,1-.13,0,.14.14,0,0,1-.05-.13l.36-2.09a.65.65,0,0,0-.18-.56L4,3.34a.12.12,0,0,1,0-.13.11.11,0,0,1,.1-.08l2.1-.31a.64.64,0,0,0,.47-.34L7.59.58A.11.11,0,0,1,7.71.51h0a.11.11,0,0,1,.06.06l.94,1.9a.64.64,0,0,0,.47.34l2.1.31A.11.11,0,0,1,11.43,3.21Z"/><path class="cls-6" d="M10.66.35a.27.27,0,0,1,.06.36l-.27.37a.28.28,0,0,1-.21.1.3.3,0,0,1-.15-.05A.25.25,0,0,1,10,.78l.27-.37A.25.25,0,0,1,10.66.35Z"/><path class="cls-6" d="M8,8.74v.45a.26.26,0,0,1-.25.26.26.26,0,0,1-.26-.26V8.74a.26.26,0,0,1,.26-.26A.26.26,0,0,1,8,8.74Z"/><path class="cls-6" d="M5.37.78a.25.25,0,0,1,0,.35.3.3,0,0,1-.15.05A.26.26,0,0,1,5,1.07L4.69.7A.25.25,0,0,1,4.75.35.25.25,0,0,1,5.1.41Z"/><path class="cls-6" d="M3.84,5.68A.25.25,0,0,1,3.68,6l-.44.15H3.16A.26.26,0,0,1,2.92,6a.26.26,0,0,1,.17-.32l.43-.14A.26.26,0,0,1,3.84,5.68Z"/></g></g></svg>