<svg xmlns="http://www.w3.org/2000/svg" viewBox="0 0 38.45 19.91"><defs><style>.cls-1{fill:#fff;}.cls-2{fill:#667e47;}.cls-3{fill:#7f644c;}.cls-4{fill:#fefefe;}.cls-5{fill:#a9c885;}</style></defs><title>Recurso 5iconos</title><g id="Capa_2" data-name="Capa 2"><g id="ëÎÓÈ_1" data-name="ëÎÓÈ 1"><path class="cls-1" d="M31.9,10l-.11.07c-.13,0-.16-.13-.21-.22A11.36,11.36,0,0,1,31,8.47c-.14-.38-.15-.38-.54-.31-.15,0-.29.07-.44.09s-.22.13-.18.3c.18.64.35,1.28.52,1.92l-.05,0c-.22,0-.23-.19-.33-.3-.14-.35-.27-.7-.41-1s-.13-.64-.31-.73-.54.05-.83.09h0c-.08,0-.1.06-.08.14.14.57.28,1.14.43,1.72a.89.89,0,0,0,.07.43l-.17,0c-.05,0-.06,0-.08-.06-.18-.6-.37-1.2-.54-1.8-.13-.43-.12-.43-.56-.35s-.4.07-.37.49a0,0,0,0,0,0,.05v1.79c-.07.08-.16.06-.25,0s-.08-.31-.16-.45c0-.6-.11-1.19-.08-1.79,0-.14-.09-.11-.15-.1l-1.18,0c-.13,0-.14.08-.15.18-.06.5-.11,1-.17,1.48l0,.07v.11a2.46,2.46,0,0,1,0,.28c0,.07,0,.14-.11.13s-.1-.06-.1-.13a.63.63,0,0,0-.06-.33,9.85,9.85,0,0,1,.1-1.63c0-.11,0-.16-.13-.16a5.93,5.93,0,0,1-.94,0c-.08,0-.12,0-.13.11-.08.56-.15,1.11-.22,1.67,0,.17-.15.33,0,.5a.65.65,0,0,1-.34,0c.1-.17,0-.35,0-.53.05-.51.1-1,.16-1.53,0-.14,0-.2-.15-.21-.34,0-.68,0-1-.08-.11,0-.14,0-.16.12l-.39,1.53c-.11.15-.1.34-.17.5h-.2a7.85,7.85,0,0,1,.36-2c0-.16,0-.23-.13-.25l-1-.13-1-.25c-.2-.06-.29,0-.36.19-.24.58-.5,1.16-.75,1.73H18a.53.53,0,0,1,0-.28c.14-.39.26-.78.42-1.16.26-.66.27-.65-.45-.81-.14,0-.18,0-.23.12l-.66,1.52c-.05.12-.1.23-.26.23l0,0a9.94,9.94,0,0,1,.73-2c-.28-.08-.57-.16-.84-.26s-.26,0-.33.16c-.19.43-.39.86-.58,1.3,0,.11-.09.21-.22.23L15.51,9a.9.9,0,0,1,.09-.33c.17-.43.34-.87.52-1.3,0-.09.08-.19-.05-.23a12.73,12.73,0,0,0-1.52-.57l.18-.33.25.07s.07.06.11.07c1.09.44,2.19.85,3.32,1.2.27.08.5.11.66-.19a.36.36,0,0,1,.13-.11,15.5,15.5,0,0,0,2.34-2,3.94,3.94,0,0,1,.75-.66c.15-.1.11-.14,0-.25-.42-.45-.83-.92-1.21-1.41S20.34,2,20,1.49c0-.09-.09-.16-.07-.26a.8.8,0,0,1,.34-.18l.12.17c.68,1,1.43,2,2.07,3.06a.25.25,0,0,0,.28.15,7.8,7.8,0,0,1,1.93,0l2.12.14A.24.24,0,0,0,27,4.49c.73-1.13,1.53-2.23,2.32-3.33.07-.06.12-.15.23-.12a.18.18,0,0,1,.17.05.38.38,0,0,0-.08.23c-.07,0-.11.05-.15.11l-2.08,3c-.09.12-.05.2,0,.29.83.92,1.62,1.88,2.37,2.87,0,.06.09.1,0,.18a.93.93,0,0,1-.33-.26c-.78-.76-1.45-1.6-2.16-2.42-.24-.28-.44-.48-.82-.3-.06,0-.14,0-.2,0a14.82,14.82,0,0,1-2.21,0,9.72,9.72,0,0,1-1.42-.12.41.41,0,0,0-.4.12q-1.41,1.39-2.94,2.64c-.09.07-.22.13-.21.22s.19.1.29.14h.06a26.89,26.89,0,0,0,5.29.53A25.35,25.35,0,0,0,29,8.16a21.13,21.13,0,0,0,3.8-1,9.29,9.29,0,0,0,1.49-.64l.33-.07a.17.17,0,0,1,.06.16v.08h0c-.16,0-.44,0-.33.31.16.46.37.91.56,1.37a.92.92,0,0,1-.32.27c-.15-.53-.46-1-.65-1.5,0-.12-.13-.08-.21-.05a6.3,6.3,0,0,1-.72.28c-.2.06-.24.14-.16.34.19.46.35.93.52,1.4,0,.08.1.17,0,.26h-.21a16.07,16.07,0,0,1-.71-1.65c0-.13-.13-.14-.25-.1a5.76,5.76,0,0,1-.68.19c-.23,0-.28.12-.2.35A12.38,12.38,0,0,1,31.9,10Z"/><path class="cls-2" d="M27.48,11c.18-.21.44-.16.66-.16a1.42,1.42,0,0,0,.42-.05s0,.07.08.06A6.46,6.46,0,0,1,27.48,11Z"/><path class="cls-3" d="M34.67,6.74v0Z"/><path class="cls-2" d="M21.06,10.69l-.25-.09a9.81,9.81,0,0,1-1.19-.19s.07,0,.08-.07c.22-.6.42-1.2.63-1.8,0-.07,0-.12,0-.18l0,0,1,.13c.16,0,.17.09.13.25A7.85,7.85,0,0,0,21.06,10.69Z"/><path class="cls-1" d="M20.28,8.36c0,.06.08.11,0,.18-.21.6-.41,1.2-.63,1.8,0,0-.05,0-.08.07l-.09-.05A7,7,0,0,1,20,8.55C20.07,8.43,20.14,8.34,20.28,8.36Z"/><path class="cls-2" d="M29.65,1.32a10.25,10.25,0,0,1,1.51,1A11.57,11.57,0,0,1,33,4.23a11.34,11.34,0,0,1,1.18,2.13c0,.07.05.16.13.21a9.29,9.29,0,0,1-1.49.64,21.13,21.13,0,0,1-3.8,1,25.35,25.35,0,0,1-4.18.21,26.89,26.89,0,0,1-5.29-.53h-.06c-.1,0-.26,0-.29-.14s.12-.15.21-.22q1.53-1.25,2.94-2.64a.41.41,0,0,1,.4-.12,9.72,9.72,0,0,0,1.42.12,14.82,14.82,0,0,0,2.21,0c.06,0,.14,0,.2,0,.38-.18.58,0,.82.3.71.82,1.38,1.66,2.16,2.42a.93.93,0,0,0,.33.26c.06-.08,0-.12,0-.18-.75-1-1.54-1.95-2.37-2.87-.09-.09-.13-.17,0-.29l2.08-3C29.54,1.37,29.58,1.32,29.65,1.32Z"/><path class="cls-2" d="M20.35,1.22c.26-.11.51-.28.76-.36C21.52.72,22,.6,22.37.49a9.66,9.66,0,0,1,7,.67c-.79,1.1-1.59,2.2-2.32,3.33a.24.24,0,0,1-.26.12l-2.12-.14a7.8,7.8,0,0,0-1.93,0,.25.25,0,0,1-.28-.15C21.78,3.22,21,2.24,20.35,1.22Z"/><path class="cls-2" d="M14.42,8.41,14.07,8c-.05,0-.12-.1-.08-.16.22-.4.31-.86.56-1.25a12.73,12.73,0,0,1,1.52.57c.13,0,.08.14.05.23-.18.43-.35.87-.52,1.3a.9.9,0,0,0-.09.33,1.65,1.65,0,0,1-.46-.23A1.93,1.93,0,0,0,14.42,8.41Z"/><path class="cls-2" d="M34.61,6.5l-.33.07c-.08-.05-.09-.14-.13-.21A11.34,11.34,0,0,0,33,4.23a11.57,11.57,0,0,0-1.81-1.89,10.25,10.25,0,0,0-1.51-1,.38.38,0,0,1,.08-.23,7.34,7.34,0,0,1,1.86,1.16,9.77,9.77,0,0,1,2.89,3.84A2.8,2.8,0,0,1,34.61,6.5Z"/><path class="cls-2" d="M27.08,10.94v-.53a2.62,2.62,0,0,0,0-1.08V9.15h0l0,0c0-.42,0-.42.37-.49s.43-.08.56.35c.17.6.36,1.2.54,1.8a1.42,1.42,0,0,1-.42.05c-.22,0-.48-.05-.66.16A.47.47,0,0,1,27.08,10.94Z"/><path class="cls-2" d="M16.55,9.54c-.05-.14-.21-.06-.29-.16L15.59,9c.13,0,.18-.12.22-.23.19-.44.39-.87.58-1.3.07-.15.14-.24.33-.16s.56.18.84.26a9.94,9.94,0,0,0-.73,2c-.07,0-.1,0-.15.06S16.63,9.54,16.55,9.54Z"/><path class="cls-2" d="M34.55,8.75c-.18.12-.43.15-.57.34s-.37.26-.59.33c.07-.09,0-.18,0-.26-.17-.47-.33-.94-.52-1.4-.08-.2,0-.28.16-.34a6.3,6.3,0,0,0,.72-.28c.08,0,.16-.07.21.05.19.52.5,1,.65,1.5Z"/><path class="cls-2" d="M15,6.29l-.25-.07a10.66,10.66,0,0,1,2.11-2.84,12.19,12.19,0,0,1,2.78-2,.63.63,0,0,1,.27-.1c0,.1.06.17.07.26a.72.72,0,0,0-.37.13c-.41.25-.8.52-1.19.8a11.19,11.19,0,0,0-2.09,2,.4.4,0,0,1-.28.16c-.17,0-.17,0-.06.17s0,.13-.06.17c-.15.22-.32.42-.45.65A3.61,3.61,0,0,1,15,6.29Z"/><path class="cls-2" d="M29.56,1c-.11,0-.16.06-.23.12a9.62,9.62,0,0,0-7-.67c-.42.11-.85.23-1.26.37-.25.08-.5.25-.76.36l-.12-.17A10.2,10.2,0,0,1,23.52.1,11.06,11.06,0,0,1,28.2.47,3.79,3.79,0,0,1,29.56,1Z"/><path class="cls-2" d="M23.28,10.92c-.14-.17,0-.33,0-.5a9.72,9.72,0,0,0,1.32.06.63.63,0,0,1,.06.33c0,.07,0,.13.1.13s.11-.06.11-.13a2.46,2.46,0,0,0,0-.28h1.77c.08.14,0,.34.16.45a.62.62,0,0,1-.38,0C25.39,11,24.33,11,23.28,10.92Z"/><path class="cls-2" d="M21.52,10.82c-.09-.05-.15-.14-.26-.13.07-.16.06-.35.17-.5a6.27,6.27,0,0,0,1.56.17c0,.18.05.36,0,.53l-1.1-.11C21.73,10.77,21.61,10.7,21.52,10.82Z"/><path class="cls-2" d="M34.9,8.42c-.19-.46-.4-.91-.56-1.37-.11-.3.17-.26.33-.31a5.2,5.2,0,0,1,.46,1.43C35.17,8.32,35,8.37,34.9,8.42Z"/><path class="cls-2" d="M30.3,10.49a.11.11,0,0,1-.12.1c-.38,0-.74.15-1.12.19l-.25,0a.89.89,0,0,1-.07-.43A7.3,7.3,0,0,0,30,10.19C30.07,10.3,30.08,10.5,30.3,10.49Z"/><path class="cls-2" d="M18.15,10c.25-.57.51-1.15.75-1.73.07-.19.16-.25.36-.19l1,.25,0,0c-.14,0-.21.07-.25.19a7,7,0,0,0-.5,1.81l-.74-.18A2.34,2.34,0,0,1,18.15,10Z"/><path class="cls-2" d="M16.85,9.62c.16,0,.21-.11.26-.23l.66-1.52c.05-.11.09-.15.23-.12.72.16.71.15.45.81-.16.38-.28.77-.42,1.16A.53.53,0,0,0,18,10Z"/><path class="cls-2" d="M30.59,10.47h-.24c-.17-.64-.34-1.28-.52-1.92,0-.17,0-.28.18-.3s.29-.06.44-.09c.39-.07.4-.07.54.31a11.36,11.36,0,0,0,.59,1.39c.05.09.08.2.21.22a4.61,4.61,0,0,1-1,.28C30.68,10.36,30.65,10.43,30.59,10.47Z"/><path class="cls-2" d="M31.9,10a12.38,12.38,0,0,0-.56-1.79c-.08-.23,0-.31.2-.35a5.76,5.76,0,0,0,.68-.19c.12,0,.2,0,.25.1a16.07,16.07,0,0,0,.71,1.65c-.09.19-.29.22-.46.28A3.83,3.83,0,0,1,31.9,10Z"/><path class="cls-2" d="M15,6.29a3.61,3.61,0,0,0,.48-.74c.13-.23.3-.43.45-.65,0,0,.12-.08.06-.17s-.11-.15.06-.17a.4.4,0,0,0,.28-.16,11.19,11.19,0,0,1,2.09-2c.39-.28.78-.55,1.19-.8A.72.72,0,0,1,20,1.49c.38.47.76,1,1.13,1.43s.79,1,1.21,1.41c.1.11.14.15,0,.25a3.94,3.94,0,0,0-.75.66,15.5,15.5,0,0,1-2.34,2,.36.36,0,0,0-.13.11c-.16.3-.39.27-.66.19-1.13-.35-2.23-.76-3.32-1.2C15.05,6.35,15,6.31,15,6.29Z"/><path class="cls-2" d="M26.67,10.53H24.9v-.11l0-.07c.06-.49.11-1,.17-1.48,0-.1,0-.18.15-.18l1.18,0c.06,0,.15,0,.15.1C26.56,9.34,26.67,9.93,26.67,10.53Z"/><path class="cls-2" d="M23,10.36a6.27,6.27,0,0,1-1.56-.17l.39-1.53c0-.08.05-.13.16-.12.34,0,.68.06,1,.08.15,0,.16.07.15.21C23.09,9.34,23,9.85,23,10.36Z"/><path class="cls-2" d="M24.61,10.48a9.72,9.72,0,0,1-1.32-.06c.07-.56.14-1.11.22-1.67,0-.08,0-.12.13-.11a5.93,5.93,0,0,0,.94,0c.12,0,.14.05.13.16A9.85,9.85,0,0,0,24.61,10.48Z"/><path class="cls-2" d="M30,10.19a7.3,7.3,0,0,1-1.23.18c-.15-.58-.29-1.15-.43-1.72,0-.08,0-.13.08-.14h0c.29,0,.62-.2.83-.09s.21.47.31.73S29.83,9.84,30,10.19Z"/><path class="cls-3" d="M27.09,9.33a2.62,2.62,0,0,1,0,1.08Z"/><path class="cls-3" d="M27.09,9.1l0,0h0A0,0,0,0,1,27.09,9.1Z"/><path class="cls-3" d="M24.94,10.35l0,.07Z"/><path class="cls-4" d="M6.26,8.45a.38.38,0,0,1-.4.41.24.24,0,0,1-.28-.28A.53.53,0,0,1,6,8.13C6.17,8.12,6.26,8.24,6.26,8.45Z"/><path class="cls-5" d="M38.45,15a1.62,1.62,0,0,0,0-.22,10.69,10.69,0,0,0-1-2.85,8,8,0,0,0-2.86-3.14c-.18.12-.43.15-.57.34s-.37.26-.59.33h-.21c-.09.19-.29.22-.46.28a3.83,3.83,0,0,1-.82.3l-.11.07a4.46,4.46,0,0,1-1,.28c-.1,0-.13.07-.19.11h-.24l-.05,0a.11.11,0,0,1-.12.1,11.08,11.08,0,0,0,3,2.86,25.62,25.62,0,0,0,4.69,2c.44.16.48.13.53-.33h0Zm-.46.22.15,0Z"/><path class="cls-5" d="M16.26,9.38a1.26,1.26,0,0,1-.26.13,1.26,1.26,0,0,0,.26-.13L15.59,9,15.51,9a1.65,1.65,0,0,1-.46-.23,1.93,1.93,0,0,0-.63-.34L14.07,8a2.54,2.54,0,0,1-2-.5C11.52,7,11,6.57,10.41,6.15A8.64,8.64,0,0,0,7.63,4.68a4.52,4.52,0,0,0-3.23.58,12.78,12.78,0,0,0-4,3.4c-.55.64-.5,1,.12,1.57a.48.48,0,0,0,.11.09,5.34,5.34,0,0,0,3.33,1.06,6.74,6.74,0,0,0,3.68-1.19.9.9,0,0,1,1-.09,9,9,0,0,0,4.78.65,8,8,0,0,0,3.19-1.21C16.5,9.4,16.34,9.48,16.26,9.38ZM5.58,8.58A.53.53,0,0,1,6,8.13c.14,0,.24.11.24.32a.38.38,0,0,1-.4.41A.24.24,0,0,1,5.58,8.58Z"/><path class="cls-5" d="M23,15.3a13,13,0,0,0-1.49-4.48c-.09-.05-.15-.14-.26-.13h-.2l-.25-.09a1,1,0,0,0,.06.16,1,1,0,0,1-.06-.16,9.81,9.81,0,0,1-1.19-.19l-.09-.05-.74-.18a2.34,2.34,0,0,1-.64-.18H18l-1.16-.38,0,0c-.07,0-.1,0-.15.06a.7.7,0,0,0,0,.14,10.78,10.78,0,0,0,.55,3.38l0,.07h0a6.25,6.25,0,0,0,.46,1.25A11,11,0,0,0,20,17.77a8.19,8.19,0,0,0,1.87,1.7h0l.06,0a.06.06,0,0,0,.07,0c.47.47.58.47.86,0a1,1,0,0,0,.24-.57A12.34,12.34,0,0,0,23,15.3Z"/></g></g></svg>