<svg xmlns="http://www.w3.org/2000/svg" viewBox="0 0 24.96 18.32"><defs><style>.cls-1{fill:#764a25;}</style></defs><title>Recurso 14iconos</title><g id="Capa_2" data-name="Capa 2"><g id="ëÎÓÈ_1" data-name="ëÎÓÈ 1"><path class="cls-1" d="M17.93,0c-2.08,0-4.17,2.34-5.43,4.86C11.11,2.08,9,0,7.08,0,3.82,0,0,6,0,11c0,3.64,2.43,7.29,7,7.29a6.59,6.59,0,0,0,5.43-2.52,7.26,7.26,0,0,0,5.47,2.52c4.6,0,7-3.69,7-7.29C25,6,21.19,0,17.93,0ZM7.08,17.45A6,6,0,0,1,.91,11C.91,6.47,4.3.87,7.08.87c1.78,0,3.82,2.3,5,5.16v0a12.7,12.7,0,0,1,1.13,5A6,6,0,0,1,7.08,17.45Zm10.85,0A6.28,6.28,0,0,1,13,15.06a7.77,7.77,0,0,0,1.09-4,13.76,13.76,0,0,0-1.13-5.17c1.34-2.95,3.34-5,5-5,2.78,0,6.16,5.6,6.16,10.16A6,6,0,0,1,17.93,17.45Z"/><path class="cls-1" d="M3.26,7.16a.47.47,0,0,0-.57.26c0,.13-1.26,3.3-.26,5.52a.46.46,0,0,0,.39.21.3.3,0,0,0,.18,0,.43.43,0,0,0,.21-.56c-.87-1.87.26-4.78.31-4.82A.47.47,0,0,0,3.26,7.16Z"/><path class="cls-1" d="M17.32,2.43a.39.39,0,0,0-.61,0c-.08.08-2.51,2.52-2.47,4.95a.47.47,0,0,0,.43.43.44.44,0,0,0,.44-.43c0-2,2.17-4.3,2.21-4.3A.41.41,0,0,0,17.32,2.43Z"/></g></g></svg>