<svg height="27" viewBox="0 0 39 27" width="39" xmlns="http://www.w3.org/2000/svg"><g fill="none"><path d="m31.9 17-.11.07c-.13 0-.16-.13-.21-.22-.2224664-.4540575-.4161814-.9216455-.58-1.4-.14-.39-.15-.38-.54-.31-.15 0-.29.07-.44.09s-.22.13-.18.3c.18.64.35 1.28.52 1.92h-.05c-.22 0-.23-.19-.33-.3-.14-.35-.27-.7-.41-1s-.13-.65-.31-.73-.54 0-.83.09c-.08 0-.1 0-.08.14.14.57.28 1.14.43 1.72-.0110417.146854.0129498.2942308.07.43h-.17c-.05 0-.06 0-.08-.06-.18-.6-.37-1.2-.54-1.8-.13-.43-.12-.43-.56-.35s-.4.07-.37.49v1.79c-.07.08-.16 0-.25 0s-.08-.31-.16-.45c0-.6-.11-1.19-.08-1.8 0-.13-.09-.1-.15-.1l-1.18.06c-.13 0-.14.08-.15.18-.06.5-.11 1-.17 1.48v.07.11c.004953.0932676.004953.1867324 0 .28 0 .07 0 .13-.11.13s-.1-.07-.1-.13c.0112289-.1134455-.0095569-.2277676-.06-.33-.0118423-.5451647.021606-1.0903713.1-1.63 0-.11 0-.16-.13-.16-.3141632.0082682-.6284866-.0084511-.94-.05-.08 0-.12 0-.13.11-.08.56-.15 1.11-.22 1.67 0 .16-.15.33 0 .5-.111326.030166-.228674.030166-.34 0 .1-.17 0-.35 0-.53.05-.51.1-1 .16-1.53 0-.14 0-.2-.15-.21-.34 0-.68 0-1-.08-.11 0-.14 0-.16.12l-.39 1.52c-.0745479.1635078-.1315337.334465-.17.51h-.2c.0328381-.6794487.1538519-1.3517471.36-2 0-.16 0-.23-.13-.25l-1-.13c-.35-.08-.7-.16-1-.26s-.29 0-.36.2c-.24.58-.5 1.16-.75 1.73h-.27c-.0250998-.0916458-.0250998-.1883542 0-.28.14-.39.26-.78.42-1.16.26-.66.27-.65-.45-.81-.14 0-.18 0-.23.12l-.66 1.52c-.05.11-.1.23-.26.23.1710286-.6908791.4157654-1.361391.73-2-.2846372-.0748783-.565042-.1650084-.84-.27-.19-.07-.26 0-.33.16-.19.44-.39.87-.58 1.31 0 .11-.09.21-.22.23l-.07.05c.0086288-.1147419.0391804-.2267647.09-.33.17-.43.34-.87.52-1.3 0-.09.08-.19-.05-.23-.4940237-.2221451-1.0017224-.4125321-1.52-.57l.18-.33.25.06s.07.07.11.08c1.09.44 2.19.85 3.32 1.2.27.08.5.11.66-.19.0339126-.0465357.0784931-.0842577.13-.11.8444306-.5873706 1.6282951-1.2573403 2.34-2 .220982-.2509329.4730075-.4727154.75-.66.15-.1.11-.14 0-.25-.42-.45-.83-.92-1.21-1.41s-.75-1-1.13-1.43c0-.09-.09-.16-.07-.26.0935456-.11654206.2135296-.20910114.35-.27l.12.18c.68 1 1.43 2 2.07 3.06.0454939.1104885.1628133.1733382.28.15.6408526-.0798988 1.2891474-.0798988 1.93 0l2.12.14c.1036505.021748.2093033-.0270148.26-.12.73-1.13 1.53-2.23 2.32-3.33.07-.06.12-.15.23-.12.0615143-.01431176.1260294.00466326.17.05-.051175.06581514-.0792856.14663334-.08.23-.07 0-.11 0-.15.11l-2.08 3c-.09.12-.05.2 0 .29.83.92 1.62 1.88 2.37 2.87 0 .05.09.1 0 .18-.1283917-.0603612-.2412716-.1492968-.33-.26-.78-.76-1.45-1.6-2.16-2.42-.24-.28-.44-.48-.82-.3-.0658226.0150024-.1341774.0150024-.2 0-.73564.0550035-1.47436.0550035-2.21 0-.4756319-.0052014-.9502404-.0453091-1.42-.12-.1452412-.0359889-.298554.0100049-.4.12-.94.9266667-1.92 1.8066667-2.94 2.64-.09.07-.22.13-.21.22s.19.1.29.14h.06c1.7414966.3509772 3.5134884.5285114 5.29.53 1.42029.0862837 2.8453231.0528322 4.26-.1 1.294978-.2145782 2.5671439-.5493587 3.8-1 .5143722-.1694943 1.0129378-.3836433 1.49-.64l.33-.07c.0472991.0386761.0702055.0997597.06.16v.08c-.16 0-.44 0-.33.3.16.47.37.92.56 1.37-.0870581.1136165-.1958326.2087941-.32.28-.15-.53-.46-1-.65-1.5 0-.12-.13-.08-.21-.05-.2340462.1079741-.4744982.2014832-.72.28-.2.06-.24.14-.16.34.19.46.35.93.52 1.39 0 .09.1.18 0 .27h-.21c-.2654441-.5371657-.5024385-1.0879272-.71-1.65 0-.13-.13-.14-.25-.11-.2208772.0849694-.4482918.151856-.68.2-.23 0-.28.12-.2.34.2403889.6077535.4342797 1.232884.58 1.87z" fill="#fff"/><path d="m27.48 18c.18-.22.44-.16.66-.16.1417111.0043941.2832812-.0124595.42-.05 0 0 0 .07.08.06-.3813353.0849744-.769593.1351801-1.16.15z" fill="#667e47"/><path d="m21.06 17.67-.25-.09c-.4001855-.038887-.7976018-.10234-1.19-.19 0 0 .07 0 .08-.07.22-.6.42-1.2.63-1.8.0369499-.0543113.0369499-.1256887 0-.18l1 .13c.16 0 .17.09.13.25-.2155405.6303927-.3499543 1.2856597-.4 1.95z" fill="#667e47"/><path d="m20.28 15.34c.0369499.0543113.0369499.1256887 0 .18-.21.6-.41 1.2-.63 1.8 0 0-.05 0-.08.07l-.09-.05c.0846191-.6230512.2527986-1.231861.5-1.81.09-.12.16-.21.3-.19z" fill="#fff"/><g fill="#667e47"><path d="m29.65 8.3c.5318539.28812547 1.0371592.62276476 1.51 1 .6869432.56140664 1.3046214 1.2025835 1.84 1.91.4686426.6655898.8642561 1.3797057 1.18 2.13 0 .07.05.16.13.21-.4770622.2563567-.9756278.4705057-1.49.64-1.2328561.4506413-2.505022.7854218-3.8 1-1.3851631.1850963-2.7832601.2553356-4.18.21-1.7765116-.0014886-3.5485034-.1790228-5.29-.53h-.06c-.1 0-.26 0-.29-.14s.12-.15.21-.22c1.02-.8333333 2-1.7133333 2.94-2.64.101446-.1099951.2547588-.1559889.4-.12.4697596.0746909.9443681.1147986 1.42.12.73564.0550035 1.47436.0550035 2.21 0 .0658226.0150024.1341774.0150024.2 0 .38-.18.58 0 .82.3.71.82 1.38 1.66 2.16 2.42.0887284.1107032.2016083.1996388.33.26.06-.08 0-.13 0-.18-.75-1-1.54-1.95-2.37-2.87-.09-.09-.13-.17 0-.29l2.08-3c-.06-.16-.02-.21.05-.21z"/><path d="m20.35 8.2c.26-.11.51-.28.76-.36.41-.14.84-.26 1.26-.37.9456206-.26939944 1.9272368-.39083649 2.91-.36 1.3893744.04437681 2.7531982.38533275 4 1-.79 1.1-1.59 2.2-2.32 3.33-.0506967.0929852-.1563495.141748-.26.12l-2.12-.14c-.6408526-.0798988-1.2891474-.0798988-1.93 0-.1171867.0233382-.2345061-.0395115-.28-.15-.59-1.07-1.37-2.05-2.02-3.07z"/><path d="m14.42 15.38c-.12-.14-.23-.29-.35-.44s-.12-.1-.08-.16c.22-.4.31-.86.56-1.25.5182776.1574679 1.0259763.3478549 1.52.57.13 0 .08.14.05.23-.18.43-.35.87-.52 1.3-.0508196.1032353-.0813712.2152581-.09.33-.1625928-.0565503-.3172041-.133856-.46-.23-.1889176-.1511244-.4018813-.2694375-.63-.35z"/><path d="m34.61 13.48-.33.07c-.08-.05-.09-.14-.13-.21-.3062406-.7489965-.6917698-1.4630636-1.15-2.13-.5272667-.6986825-1.1347605-1.33302691-1.81-1.89-.4728408-.37723524-.9781461-.71187453-1.51-1 .0007144-.08336666.028825-.16418486.08-.23.6745689.29138404 1.3015593.68241033 1.86 1.16 1.2680425 1.0193979 2.2614304 2.3393321 2.89 3.84.0426487.1274319.0760684.2577688.1.39z"/><path d="m27.08 17.92v-.53c.0750037-.3560934.0750037-.7239066 0-1.08v-.18c0-.42 0-.42.37-.49s.43-.08.56.35c.17.6.36 1.2.54 1.8-.1367188.0375405-.2782889.0543941-.42.05-.22 0-.48-.06-.66.16-.1354321.0324285-.2782718.003128-.39-.08z"/><path d="m16.55 16.52c-.05-.14-.21-.06-.29-.16l-.67-.36c.13 0 .18-.12.22-.23.19-.44.39-.87.58-1.31.07-.15.14-.23.33-.16.274958.1049916.5553628.1951217.84.27-.3142346.638609-.5589714 1.3091209-.73 2-.07 0-.1 0-.15.06s-.05-.11-.13-.11z"/><path d="m34.55 15.73c-.18.12-.43.15-.57.34s-.37.26-.59.33c.07-.09 0-.18 0-.27-.17-.46-.33-.93-.52-1.39-.08-.2 0-.28.16-.34.2455018-.0785168.4859538-.1720259.72-.28.08 0 .16-.07.21.05.19.51.5 1 .65 1.5z"/><path d="m15 13.26-.25-.06c.5402279-1.0575902 1.2533815-2.0174747 2.11-2.84.8279361-.79416318 1.7638366-1.46747289 2.78-2 .0810743-.05372814.1734875-.08795525.27-.1 0 .1.06.17.07.26-.1329863.00826258-.2610714.05326545-.37.13-.41.25-.8.52-1.19.8-.7802664.5734304-1.4828019 1.2457132-2.09 2-.0667464.0902612-.1683499.1483203-.28.16-.17 0-.17 0-.06.17s0 .13-.06.17c-.15.22-.32.42-.45.65-.1340215.2377687-.2950915.45924-.48.66z"/><path d="m29.56 8c-.11 0-.16.06-.23.12-1.2468018-.61466725-2.6106256-.95562319-4-1-.9827632-.03083649-1.9643794.09060056-2.91.36-.42.11-.85.23-1.26.37-.25.08-.5.25-.76.36l-.17-.21c1.0387383-.49075031 2.1495479-.81150081 3.29-.95 1.5687679-.20298443 3.1626178-.07697493 4.68.37.4854359.10714334.9466464.30383606 1.36.58z"/><path d="m23.28 17.9c-.14-.17 0-.34 0-.5.4381296.0499189.8791484.0699652 1.32.06.0504431.1022324.0712289.2165545.06.33 0 .06 0 .13.1.13s.11-.06.11-.13c.004953-.0932676.004953-.1867324 0-.28h1.77c.08.14 0 .34.16.45-.1182067.0563828-.2512316.0738861-.38.05-1.03-.01-2.09-.01-3.14-.11z"/><path d="m21.52 17.8c-.09-.05-.15-.14-.26-.13.0384663-.175535.0954521-.3464922.17-.51.509525.1299581 1.0342677.1905053 1.56.18 0 .18.05.36 0 .53l-1.1-.11c-.16-.01-.28-.08-.37.04z"/><path d="m34.9 15.39c-.19-.45-.4-.9-.56-1.37-.11-.29.17-.25.33-.3.2217373.4518902.376687.9335817.46 1.43.04.15-.13.2-.23.24z"/><path d="m30.3 17.47c-.0025348.0292216-.0166352.0562207-.0391682.0749982s-.0516321.027778-.0808318.0250018c-.38 0-.74.15-1.12.19h-.25c-.0570502-.1357692-.0810417-.283146-.07-.43.4238508-.016625.8454462-.0701609 1.26-.16.07.11.08.31.3.3z"/><path d="m18.15 17c.25-.57.51-1.15.75-1.73.07-.19.16-.25.36-.2s.69.18 1 .26c-.14 0-.21.07-.25.19-.2472014.578139-.4153809 1.1869488-.5 1.81l-.74-.18c-.2125448-.0214647-.4211492-.0719335-.62-.15z"/><path d="m16.85 16.6c.16 0 .21-.12.26-.23l.66-1.52c.05-.11.09-.15.23-.12.72.16.71.15.45.81-.16.38-.28.77-.42 1.16-.038832.094987-.0492537.1992044-.03.3z"/><path d="m30.59 17.45h-.24c-.17-.64-.34-1.28-.52-1.92 0-.17 0-.28.18-.3s.29-.06.44-.09c.39-.07.4-.08.54.31.1674625.4751934.3645147.939435.59 1.39.05.09.08.2.21.22-.3217236.130699-.6571848.2246282-1 .28-.11 0-.14.07-.2.11z"/><path d="m31.9 17c-.1425532-.6128449-.3297187-1.2144483-.56-1.8-.08-.22 0-.3.2-.34.2317082-.048144.4591228-.1150306.68-.2.12 0 .2 0 .25.11.2075615.5620728.4445559 1.1128343.71 1.65-.09.19-.29.22-.46.27-.2587172.1384915-.5343684.2427011-.82.31z"/><path d="m15 13.26c.1895287-.2225802.3507563-.4677804.48-.73.13-.23.3-.43.45-.65 0 0 .12-.08.06-.17s-.11-.15.06-.17c.1116501-.0116797.2132536-.0697388.28-.16.6071981-.7542868 1.3097336-1.42656958 2.09-2 .39-.28.78-.55 1.19-.8.1167885-.07324692.25215-.11142582.39-.11.38.47.76.95 1.13 1.43s.79 1 1.21 1.41c.1.11.14.15 0 .25-.2769925.1872846-.529018.4090671-.75.66-.7117049.7426597-1.4955694 1.4126294-2.34 2-.0515069.0257423-.0960874.0634643-.13.11-.16.3-.39.27-.66.19-1.13-.35-2.23-.76-3.32-1.2-.09.01-.14-.03-.14-.06z"/><path d="m26.67 17.51h-1.77v-.11-.07c.06-.49.11-1 .17-1.48 0-.1 0-.18.15-.18l1.18-.06c.06 0 .15 0 .15.1.01.61.12 1.2.12 1.8z"/><path d="m23 17.34c-.5257323.0105053-1.050475-.0500419-1.56-.18l.39-1.52c0-.08.05-.13.16-.12.34 0 .68.06 1 .08.15 0 .16.07.15.21-.05.51-.14 1.02-.14 1.53z"/><path d="m24.61 17.46c-.4408516.0099652-.8818704-.0100811-1.32-.06.07-.56.14-1.11.22-1.67 0-.08 0-.13.13-.11.3115134.0415489.6258368.0582682.94.05.12 0 .14.05.13.16-.078394.5396287-.1118423 1.0848353-.1 1.63z"/><path d="m30 17.17c-.4041363.0948634-.8156279.1550816-1.23.18-.15-.58-.29-1.15-.43-1.72 0-.09 0-.13.08-.14.29 0 .62-.2.83-.09s.21.47.31.73.27.69.44 1.04z"/></g><path d="m27.09 16.31c.0750037.3560934.0750037.7239066 0 1.08z" fill="#7f644c"/><path d="m24.94 17.33v.07z" fill="#7f644c"/><path d="m6.26 15.43c.00884006.1094446-.03009262.2173632-.10676931.2959568-.0766767.0785936-.18360119.1201786-.29323069.1140432-.07688132.0099429-.15402548-.0163424-.20884153-.0711585-.05481605-.054816-.08110134-.1319602-.07115847-.2088415.02962321-.2242593.19831397-.4049994.42-.45.17-.01.26.11.26.32z" fill="#fefefe"/><path d="m38.45 21.94c.0049852-.0732486.0049852-.1467514 0-.22-.1967708-.9925395-.5334639-1.952115-1-2.85-.6530034-1.2852367-1.6411636-2.3701398-2.86-3.14-.18.12-.43.15-.57.34s-.37.26-.59.33h-.21c-.09.19-.29.22-.46.27-.2587172.1384915-.5343684.2427011-.82.31l-.11.07c-.3212933.1319538-.656901.2259239-1 .28-.1 0-.13.07-.19.11h-.24-.05c-.0025348.0292216-.0166352.0562207-.0391682.0749982s-.0516321.027778-.0808318.0250018c.8138833 1.1312166 1.8312075 2.1010658 3 2.86 1.4929426.8209547 3.064054 1.4909382 4.69 2 .44.16.48.13.53-.34zm-.46.22h.15z" fill="#a9c885"/><path d="m16.26 16.36c-.0813611.0532189-.1686082.0968425-.26.13.0913918-.0331575.1786389-.0767811.26-.13l-.67-.36h-.08c-.1625928-.0565503-.3172041-.133856-.46-.23-.1889176-.1511244-.4018813-.2694375-.63-.35-.12-.14-.23-.29-.35-.44-.7073722.1235341-1.4339817-.0581183-2-.5-.56-.43-1.11-.89-1.67-1.31-.82894016-.655935-1.77121149-1.1541864-2.78-1.47-1.11126168-.2231715-2.26580785-.0158536-3.23.58-1.55425016.8443183-2.9163161 2.0020743-4 3.4-.55.64-.5 1 .12 1.57.03199745.0352923.06907042.0656247.11.09.95969502.7168196 2.13252949 1.0901543 3.33 1.06 1.3165796-.0286415 2.59592788-.4423438 3.68-1.19.2840741-.2304217.67934828-.2659963 1-.09 1.504067.6491855 3.1581308.8706502 4.78.64 1.1384648-.1612354 2.2275289-.5709147 3.19-1.2-.1-.18-.26-.1-.34-.2zm-10.68-.8c.02962321-.2242593.19831397-.4049994.42-.45.14 0 .24.11.24.32.00884006.1094446-.03009262.2173632-.10676931.2959568-.0766767.0785936-.18360119.1201786-.29323069.1140432-.07356502.0034881-.14492534-.0256381-.19503897-.0796067-.05011364-.0539685-.0738814-.1272879-.06496103-.2003933z" fill="#a9c885"/><path d="m23 22.28c-.2190594-1.5717603-.7240525-3.0901288-1.49-4.48-.09-.05-.15-.14-.26-.13h-.2l-.25-.09c.0153982.0549476.0354715.1084763.06.16-.0245285-.0515237-.0446018-.1050524-.06-.16-.4001855-.038887-.7976018-.10234-1.19-.19l-.09-.05-.74-.18c-.220813-.0292341-.4363209-.0898457-.64-.18h-.14l-1.16-.38c-.07 0-.1 0-.15.06-.0046784.0465494-.0046784.0934506 0 .14.0020664 1.1487752.1877419 2.2898359.55 3.38v.07c.1083704.4318624.2625792.8509081.46 1.25.5608912 1.212254 1.3406055 2.3106342 2.3 3.24.5313197.6631179 1.1621283 1.2399536 1.87 1.71h.06c.0024413.016017.0112565.0303659.0244406.0397831.0131842.0094172.0296164.0131022.0455594.0102169.47.46.58.46.86 0 .1382205-.1598666.2222401-.3594131.24-.57.1478511-1.2148939.1141489-2.4450239-.1-3.65z" fill="#a9c885"/><g transform="translate(3)"><path d="m1.14155216 9.98054475c-.12615516 0-.25177833-.02758695-.3694978-.08245683-.21195588-.0988722-.37268969-.27434948-.45263862-.49405703-.04651021-.1275991-.06170963-.26348188-.04590224-.39731276-.09811223-.09241245-.17380533-.20633206-.22023955-.33393117-.07994893-.21970756-.06961333-.45750243.02918288-.66938229.0988722-.21195586.27427348-.37276568.49405702-.45271461.27700938-.10084813.58274564-.05228599.81468872.11756749l6.31497751-2.29845576c.06847338-.27921327.27153759-.5129043.54854694-.61375241.21970757-.07994895.45750244-.06961335.6693823.02925887.21195586.09879621.37268969.27427346.45271461.49398103.04643422.12759909.06163364.26348189.04590224.39738874.09811223.09241245.17372932.20625607.22023955.33385517.16506564.45362658-.06961335.95695525-.52323992 1.12209693-.27700936.10084811-.58282162.05228599-.81476471-.1174915l-6.31490152 2.29845574c-.06854936.27913727-.27161356.5129043-.54854692.61367644-.09773226.03556663-.19896035.05327395-.29996049.05327395z" fill="#82dcdc"/><path d="m9.64296572 6.01060918c-.04651023-.12767509-.12212732-.24151871-.22023955-.33393116.0157314-.13383086.00053198-.26978965-.04590224-.39738874-.08002492-.21970757-.24075875-.39518482-.45271461-.49398103-.21187986-.09879621-.44967473-.10920782-.6693823-.02925887-.27700935.10084811-.48007356.33453914-.54854694.61375241l-2.85809825 1.04024805v1.86329646l3.45687926-1.25820768c.23201909.16977749.53775535.21833961.81476471.1174915.45355058-.16506568.68830556-.66847035.52323992-1.12202094z" fill="#6dc8c8"/><path d="m8.5546115 9.98054475c-.10092413 0-.20222823-.01770732-.29996049-.05327395-.27693334-.10077214-.47999755-.33453917-.54854692-.61367644l-6.31490152-2.29845574c-.23194308.16977749-.53775533.21833961-.81468872.11756749-.45362657-.16514167-.68838155-.66854634-.52331589-1.12217292.04651021-.1275991.12212731-.24144272.22023955-.33385517-.0157314-.13383086-.00053198-.26978965.04597823-.39738874.07994893-.21970757.24068274-.39518482.45263862-.49398103.21195585-.09887222.44967473-.10920782.66938229-.02925887.27700936.10084811.48007356.33453914.54854693.61375241l6.31497751 2.29845576c.23194309-.16985348.53775535-.21833963.81468872-.11756749.21978356.07994893.39518482.24075875.49405702.45271461.09879621.21195586.1092078.44967473.02925889.66938229-.04651023.1276751-.12212732.24151872-.22023955.33393117.0157314.13383088.00045597.26971366-.04597823.39738876-.07994893.21970755-.24068276.39518482-.45263862.49398103-.11771948.05486988-.24334267.08245683-.36949782.08245683z" fill="#aaebeb"/><path d="m9.61370683 8.00340467c-.09879621-.21195586-.27427346-.37276568-.49405702-.45271461-.27693337-.10077214-.58274563-.05228599-.81468872.11756749l-3.45687926-1.25820771v1.86329646l2.85802226 1.04024806c.06854937.27913727.27161358.51282831.54854692.61367644.09773226.03556663.19903636.05327395.29996049.05327395.12607916 0 .25177834-.02758695.36949782-.08245683.21195586-.0988722.37268969-.27434948.45263862-.49405703.0464342-.1275991.06170963-.26348188.04590224-.39731276.09811223-.09241245.17380531-.20633206.22023953-.33393117.08002492-.21970756.06961333-.45742643-.02918288-.66938229z" fill="#82dcdc"/><path d="m6.20994953 7.21767084h-2.72365941c-.37550158 0-.68093386-.30543228-.68093386-.68085784v-.8361959c-.77091439-.63708354-1.20409774-1.59799064-1.16473126-2.59955619.06459753-1.64655276 1.40381809-2.99846484 3.04892693-3.07780581.88810188-.04255837 1.73090953.27039762 2.37270488.88202214.64217533.61200449.99586576 1.43740879.99586576 2.32421875 0 .51260031-.11794747 1.00247751-.35042255 1.4560281-.19865636.3875091-.47938959.73580373-.81689263 1.015017v.83627191c0 .37542556-.30543227.68085784-.68085786.68085784z" fill="#d2fafa"/><path d="m7.06225681.90527724c-.60349282-.57506992-1.38466683-.88604998-2.21417498-.88574621v7.19813981h1.36179171c.37550158 0 .68093385-.30543228.68093385-.68085784v-.83627191c.33750304-.27921327.61823627-.6275079.81689263-1.015017.23247508-.45355059.35042255-.94342779.35042255-1.4560281 0-.88680996-.35369043-1.71221426-.99586576-2.32421875z" fill="#aaebeb"/><path d="m3.77811891 7.21767084v-.77813411c0-.16118982.13063899-.29182879.2917528-.29182879.16118981 0 .2918288.13063897.2918288.29182879v.77813411z" fill="#5a5a6b"/><path d="m5.33446315 7.21767084v-.77813411c0-.16118982.13063899-.29182879.2918288-.29182879.16111381 0 .29182879.13063897.29182879.29182879v.77813411z" fill="#464655"/><path d="m3.68084265 3.71587732c-.48273347 0-.87548639-.39275292-.87548639-.87548639 0-.48273346.39275292-.87548638.87548639-.87548638.48273346 0 .87541039.39275292.87541039.87548638 0 .48273347-.39267693.87548639-.87541039.87548639z" fill="#5a5a6b"/><path d="m6.015397 3.71587732c-.48273346 0-.87548638-.39275292-.87548638-.87548639 0-.48273346.39275292-.87548638.87548638-.87548638.48273347 0 .87541039.39275292.87541039.87548638 0 .48273347-.39267692.87548639-.87541039.87548639z" fill="#464655"/><path d="m5.43196741 5.27222156c-.08876459 0-.17638922-.04027847-.23369103-.11673152l-.35019455-.46692607-.35019455.46692607c-.09666829.12896704-.27959327.15511004-.40856032.05836576-.12889105-.0967443-.15503404-.27959327-.05836575-.40856031l.58365758-.77821012c.0550979-.07341319.14158257-.11665553.23346304-.11665553s.17836515.04324234.23346303.11665553l.58365759.77821012c.09666829.12896704.07052529.31181601-.05836576.40856031-.05251397.03936648-.11399562.05836576-.17486928.05836576z" fill="#5a5a6b"/><path d="m5.66520245 4.80529549-.58365759-.77821012c-.05509788-.07341319-.14158256-.11665553-.23346303-.11665553v.77813413l.35019455.46692607c.05730181.07645305.14492644.11673152.23369103.11673152.06094967 0 .12235531-.01899928.17486928-.05836576.12889105-.0967443.15503405-.27959327.05836576-.40856031z" fill="#464655"/></g></g></svg>