<svg xmlns="http://www.w3.org/2000/svg" viewBox="0 0 23.05 13.67"><defs><style>.cls-1{isolation:isolate;}.cls-2{fill:#5dc0c5;opacity:0.7;mix-blend-mode:multiply;}</style></defs><title>Recurso 16iconos</title><g class="cls-1"><g id="Capa_2" data-name="Capa 2"><g id="ëÎÓÈ_1" data-name="ëÎÓÈ 1"><path class="cls-2" d="M11.46,3.51A3.51,3.51,0,0,1,8,0H9.12a2.25,2.25,0,0,0,2.34,2.34A2.25,2.25,0,0,0,13.8,0H15A3.51,3.51,0,0,1,11.46,3.51Z"/><path class="cls-2" d="M19.54,3.51A3.51,3.51,0,0,1,16,0H17.2a2.34,2.34,0,0,0,4.68,0h1.17A3.51,3.51,0,0,1,19.54,3.51Z"/><path class="cls-2" d="M15.44,8.35a3.36,3.36,0,0,1-3.51-3.51H13.1a2.25,2.25,0,0,0,2.34,2.34,2.25,2.25,0,0,0,2.34-2.34H19A3.37,3.37,0,0,1,15.44,8.35Z"/><path class="cls-2" d="M11.46,13.67A3.51,3.51,0,0,1,8,10.16H9.12a2.34,2.34,0,1,0,4.68,0H15A3.51,3.51,0,0,1,11.46,13.67Z"/><path class="cls-2" d="M19.29,13.67a3.51,3.51,0,0,1-3.51-3.51H17a2.34,2.34,0,0,0,4.68,0H22.8A3.51,3.51,0,0,1,19.29,13.67Z"/><path class="cls-2" d="M3.51,13.67A3.51,3.51,0,0,1,0,10.16H1.17A2.4,2.4,0,0,0,3.51,12.5a2.4,2.4,0,0,0,2.34-2.34H7A3.51,3.51,0,0,1,3.51,13.67Z"/><path class="cls-2" d="M7.61,8.35A3.36,3.36,0,0,1,4.1,4.84H5.27A2.25,2.25,0,0,0,7.61,7.18,2.25,2.25,0,0,0,10,4.84h1.17A3.36,3.36,0,0,1,7.61,8.35Z"/></g></g></g></svg>