<svg xmlns="http://www.w3.org/2000/svg" viewBox="0 0 63.14 33.51"><defs><style>.cls-1{fill:#264557;}.cls-2{fill:#d3e3e3;}.cls-3{fill:#fff;}.cls-4{fill:#eda464;}</style></defs><title>Recurso 3icono-marinos-estrella</title><g id="Capa_2" data-name="Capa 2"><g id="ëÎÓÈ_1" data-name="ëÎÓÈ 1"><path class="cls-1" d="M62.83,17.66a7.59,7.59,0,0,0-7.17-4.83c-15.57,0-28.2,10.27-39.49,1a13.36,13.36,0,0,0-5.31-2.63c.6-1.48,1.18-4.16-1.5-5.9C7.11,3.85,4.24,0,4.24,0S.91,9,8.33,11.77C.43,11.41,0,21,0,21s4.14-2.43,6.78-2.91c3.12-.56,3.64-3.23,3.67-4.83a9.58,9.58,0,0,1,3.93,4.18c1.84,3.77,9,16,23.87,16S65.27,24.72,62.83,17.66Z"/><path class="cls-2" d="M23.1,24.62c11.47,4,17.15,2.86,20.9,1.59,4.06-1.37,6.9-4.76,10.63-6.69A14.23,14.23,0,0,1,63,18.47c1.31,6.9-10.46,15-24.79,15-12,0-19-8-22.18-13C16.07,20.47,17.62,22.71,23.1,24.62Z"/><path class="cls-3" d="M55.44,20.12c-3.81,1.75-6.81,5-10.93,6.19a22.15,22.15,0,0,1-3.67.74A20.78,20.78,0,0,0,44,26.21c4.06-1.37,6.9-4.76,10.63-6.69A14.23,14.23,0,0,1,63,18.47a6.42,6.42,0,0,1,.09.87A13.71,13.71,0,0,0,55.44,20.12Z"/><path class="cls-3" d="M47.46,21.3a.6.6,0,0,0,.59.59.59.59,0,0,0,.59-.59.58.58,0,0,0-.59-.59A.59.59,0,0,0,47.46,21.3Z"/><path class="cls-4" d="M61.69,7.46a.25.25,0,0,1,.16.32.25.25,0,0,1-.24.17h-.08L61.1,7.8a.25.25,0,1,1,.15-.48Z"/><path class="cls-4" d="M61.28,4.86a.65.65,0,0,1-.16.65L59.6,7a.15.15,0,0,0,0,.11l.36,2.09a.62.62,0,0,1-.25.62.63.63,0,0,1-.37.12.66.66,0,0,1-.3-.07l-1.87-1a.13.13,0,0,0-.12,0l-1.88,1a.64.64,0,0,1-.92-.67l.36-2.09a.11.11,0,0,0,0-.11L53,5.51a.63.63,0,0,1,.35-1.08l2.1-.3a.13.13,0,0,0,.09-.07l.94-1.9a.64.64,0,0,1,.57-.36.62.62,0,0,1,.56.36l.94,1.9a.14.14,0,0,0,.1.07l2.1.3A.64.64,0,0,1,61.28,4.86Zm-.52.29a.16.16,0,0,0,0-.13.15.15,0,0,0-.11-.09l-2.09-.3a.63.63,0,0,1-.48-.35l-.94-1.9a.12.12,0,0,0-.06-.06h0a.14.14,0,0,0-.12.07L56,4.28a.64.64,0,0,1-.48.35l-2.1.3a.13.13,0,0,0-.1.09.12.12,0,0,0,0,.13l1.52,1.48a.61.61,0,0,1,.18.56l-.36,2.09a.11.11,0,0,0,0,.12.13.13,0,0,0,.14,0l1.87-1a.67.67,0,0,1,.3-.08.6.6,0,0,1,.29.08l1.88,1a.11.11,0,0,0,.13,0,.11.11,0,0,0,.05-.12l-.36-2.09a.64.64,0,0,1,.19-.56Z"/><path class="cls-4" d="M60.8,5a.16.16,0,0,1,0,.13L59.25,6.63a.64.64,0,0,0-.19.56l.36,2.09a.11.11,0,0,1-.05.12.11.11,0,0,1-.13,0l-1.88-1a.6.6,0,0,0-.29-.08.67.67,0,0,0-.3.08l-1.87,1a.13.13,0,0,1-.14,0,.11.11,0,0,1,0-.12l.36-2.09a.61.61,0,0,0-.18-.56L53.37,5.15a.12.12,0,0,1,0-.13.13.13,0,0,1,.1-.09l2.1-.3A.64.64,0,0,0,56,4.28L57,2.38a.14.14,0,0,1,.12-.07h0a.12.12,0,0,1,.06.06l.94,1.9a.63.63,0,0,0,.48.35l2.09.3A.15.15,0,0,1,60.8,5Z"/><path class="cls-4" d="M60,2.16a.25.25,0,0,1,.06.35l-.27.37a.25.25,0,0,1-.2.1.24.24,0,0,1-.15,0,.26.26,0,0,1-.06-.36l.27-.37A.24.24,0,0,1,60,2.16Z"/><path class="cls-4" d="M57.32,10.54V11a.25.25,0,0,1-.25.25.26.26,0,0,1-.26-.25v-.46a.26.26,0,0,1,.26-.25A.25.25,0,0,1,57.32,10.54Z"/><path class="cls-4" d="M54.73,2.58a.24.24,0,0,1,0,.35.23.23,0,0,1-.15,0,.25.25,0,0,1-.21-.1l-.26-.37a.25.25,0,1,1,.4-.3Z"/><path class="cls-4" d="M53.2,7.48A.26.26,0,0,1,53,7.8l-.44.14h-.07a.25.25,0,0,1-.24-.17.25.25,0,0,1,.16-.32l.43-.14A.25.25,0,0,1,53.2,7.48Z"/></g></g></svg>