<svg xmlns="http://www.w3.org/2000/svg" viewBox="0 0 63.14 33.51"><defs><style>.cls-1{fill:#264557;}.cls-2{fill:#d3e3e3;}.cls-3{fill:#fff;}</style></defs><title>Recurso 1iconos</title><g id="Capa_2" data-name="Capa 2"><g id="ëÎÓÈ_1" data-name="ëÎÓÈ 1"><path class="cls-1" d="M62.83,17.66a7.59,7.59,0,0,0-7.17-4.83c-15.57,0-28.2,10.27-39.49,1a13.36,13.36,0,0,0-5.31-2.63c.6-1.48,1.18-4.16-1.5-5.9C7.11,3.85,4.24,0,4.24,0S.91,9,8.33,11.77C.43,11.41,0,21,0,21s4.14-2.43,6.78-2.91c3.12-.56,3.64-3.23,3.67-4.83a9.58,9.58,0,0,1,3.93,4.18c1.84,3.77,9,16,23.87,16S65.27,24.72,62.83,17.66Z"/><path class="cls-2" d="M23.1,24.62c11.47,4,17.15,2.86,20.9,1.59,4.06-1.37,6.9-4.76,10.63-6.69A14.23,14.23,0,0,1,63,18.47c1.31,6.9-10.46,15-24.79,15-12,0-19-8-22.18-13C16.07,20.47,17.62,22.71,23.1,24.62Z"/><path class="cls-3" d="M55.44,20.12c-3.81,1.75-6.81,5-10.93,6.19a22.15,22.15,0,0,1-3.67.74A20.78,20.78,0,0,0,44,26.21c4.06-1.37,6.9-4.76,10.63-6.69A14.23,14.23,0,0,1,63,18.47a6.42,6.42,0,0,1,.09.87A13.71,13.71,0,0,0,55.44,20.12Z"/><path class="cls-3" d="M47.46,21.3a.6.6,0,0,0,.59.59.59.59,0,0,0,.59-.59.58.58,0,0,0-.59-.59A.59.59,0,0,0,47.46,21.3Z"/></g></g></svg>