<svg height="34" viewBox="0 0 64 34" width="64" xmlns="http://www.w3.org/2000/svg"><g fill="none"><path d="m62.83 17.66c-1.1500019-2.9468033-4.0070204-4.8714057-7.17-4.83-15.57 0-28.2 10.27-39.49 1-1.5508183-1.2630912-3.3654476-2.1618624-5.31-2.63.6-1.48 1.18-4.16-1.5-5.9-2.25-1.45-5.12-5.3-5.12-5.3s-3.33 9 4.09 11.77c-7.9-.36-8.33 9.23-8.33 9.23s4.14-2.43 6.78-2.91c3.12-.56 3.64-3.23 3.67-4.83 1.7062622.9591314 3.0777848 2.417901 3.93 4.18 1.84 3.77 9 16 23.87 16s27.02-8.72 24.58-15.78z" fill="#264557"/><path d="m23.1 24.62c11.47 4 17.15 2.86 20.9 1.59 4.06-1.37 6.9-4.76 10.63-6.69 2.6197472-1.1879247 5.5380024-1.554014 8.37-1.05 1.31 6.9-10.46 15-24.79 15-12 0-19-8-22.18-13 .04 0 1.59 2.24 7.07 4.15z" fill="#d3e3e3"/><path d="m55.44 20.12c-3.81 1.75-6.81 5-10.93 6.19-1.2002576.3497957-2.4279753.5973464-3.67.74 1.0737615-.1965656 2.1303649-.4774348 3.16-.84 4.06-1.37 6.9-4.76 10.63-6.69 2.6197472-1.1879247 5.5380024-1.554014 8.37-1.05.0497425.2876169.0798122.5782913.09.87-2.572196-.4750874-5.2266186-.2044404-7.65.78z" fill="#fff"/><path d="m47.46 21.3c.00535.3236061.2663939.58465.59.59.325848 0 .59-.264152.59-.59.0027363-.1573006-.0585452-.3089645-.1697903-.4202097-.1112452-.1112451-.2629091-.1725266-.4202097-.1697903-.325848 0-.59.264152-.59.59z" fill="#fff"/><g transform="translate(52 1)"><path d="m1.14155216 9.98054475c-.12615516 0-.25177833-.02758695-.3694978-.08245683-.21195588-.0988722-.37268969-.27434948-.45263862-.49405703-.04651021-.1275991-.06170963-.26348188-.04590224-.39731276-.09811223-.09241245-.17380533-.20633206-.22023955-.33393117-.07994893-.21970756-.06961333-.45750243.02918288-.66938229.0988722-.21195586.27427348-.37276568.49405702-.45271461.27700938-.10084813.58274564-.05228599.81468872.11756749l6.31497751-2.29845576c.06847338-.27921327.27153759-.5129043.54854694-.61375241.21970757-.07994895.45750244-.06961335.6693823.02925887.21195586.09879621.37268969.27427346.45271461.49398103.04643422.12759909.06163364.26348189.04590224.39738874.09811223.09241245.17372932.20625607.22023955.33385517.16506564.45362658-.06961335.95695525-.52323992 1.12209693-.27700936.10084811-.58282162.05228599-.81476471-.1174915l-6.31490152 2.29845574c-.06854936.27913727-.27161356.5129043-.54854692.61367644-.09773226.03556663-.19896035.05327395-.29996049.05327395z" fill="#82dcdc"/><path d="m9.64296572 6.01060918c-.04651023-.12767509-.12212732-.24151871-.22023955-.33393116.0157314-.13383086.00053198-.26978965-.04590224-.39738874-.08002492-.21970757-.24075875-.39518482-.45271461-.49398103-.21187986-.09879621-.44967473-.10920782-.6693823-.02925887-.27700935.10084811-.48007356.33453914-.54854694.61375241l-2.85809825 1.04024805v1.86329646l3.45687926-1.25820768c.23201909.16977749.53775535.21833961.81476471.1174915.45355058-.16506568.68830556-.66847035.52323992-1.12202094z" fill="#6dc8c8"/><path d="m8.5546115 9.98054475c-.10092413 0-.20222823-.01770732-.29996049-.05327395-.27693334-.10077214-.47999755-.33453917-.54854692-.61367644l-6.31490152-2.29845574c-.23194308.16977749-.53775533.21833961-.81468872.11756749-.45362657-.16514167-.68838155-.66854634-.52331589-1.12217292.04651021-.1275991.12212731-.24144272.22023955-.33385517-.0157314-.13383086-.00053198-.26978965.04597823-.39738874.07994893-.21970757.24068274-.39518482.45263862-.49398103.21195585-.09887222.44967473-.10920782.66938229-.02925887.27700936.10084811.48007356.33453914.54854693.61375241l6.31497751 2.29845576c.23194309-.16985348.53775535-.21833963.81468872-.11756749.21978356.07994893.39518482.24075875.49405702.45271461.09879621.21195586.1092078.44967473.02925889.66938229-.04651023.1276751-.12212732.24151872-.22023955.33393117.0157314.13383088.00045597.26971366-.04597823.39738876-.07994893.21970755-.24068276.39518482-.45263862.49398103-.11771948.05486988-.24334267.08245683-.36949782.08245683z" fill="#aaebeb"/><path d="m9.61370683 8.00340467c-.09879621-.21195586-.27427346-.37276568-.49405702-.45271461-.27693337-.10077214-.58274563-.05228599-.81468872.11756749l-3.45687926-1.25820771v1.86329646l2.85802226 1.04024806c.06854937.27913727.27161358.51282831.54854692.61367644.09773226.03556663.19903636.05327395.29996049.05327395.12607916 0 .25177834-.02758695.36949782-.08245683.21195586-.0988722.37268969-.27434948.45263862-.49405703.0464342-.1275991.06170963-.26348188.04590224-.39731276.09811223-.09241245.17380531-.20633206.22023953-.33393117.08002492-.21970756.06961333-.45742643-.02918288-.66938229z" fill="#82dcdc"/><path d="m6.20994953 7.21767084h-2.72365941c-.37550158 0-.68093386-.30543228-.68093386-.68085784v-.8361959c-.77091439-.63708354-1.20409774-1.59799064-1.16473126-2.59955619.06459753-1.64655276 1.40381809-2.99846484 3.04892693-3.07780581.88810188-.04255837 1.73090953.27039762 2.37270488.88202214.64217533.61200449.99586576 1.43740879.99586576 2.32421875 0 .51260031-.11794747 1.00247751-.35042255 1.4560281-.19865636.3875091-.47938959.73580373-.81689263 1.015017v.83627191c0 .37542556-.30543227.68085784-.68085786.68085784z" fill="#d2fafa"/><path d="m7.06225681.90527724c-.60349282-.57506992-1.38466683-.88604998-2.21417498-.88574621v7.19813981h1.36179171c.37550158 0 .68093385-.30543228.68093385-.68085784v-.83627191c.33750304-.27921327.61823627-.6275079.81689263-1.015017.23247508-.45355059.35042255-.94342779.35042255-1.4560281 0-.88680996-.35369043-1.71221426-.99586576-2.32421875z" fill="#aaebeb"/><path d="m3.77811891 7.21767084v-.77813411c0-.16118982.13063899-.29182879.2917528-.29182879.16118981 0 .2918288.13063897.2918288.29182879v.77813411z" fill="#5a5a6b"/><path d="m5.33446315 7.21767084v-.77813411c0-.16118982.13063899-.29182879.2918288-.29182879.16111381 0 .29182879.13063897.29182879.29182879v.77813411z" fill="#464655"/><path d="m3.68084265 3.71587732c-.48273347 0-.87548639-.39275292-.87548639-.87548639 0-.48273346.39275292-.87548638.87548639-.87548638.48273346 0 .87541039.39275292.87541039.87548638 0 .48273347-.39267693.87548639-.87541039.87548639z" fill="#5a5a6b"/><path d="m6.015397 3.71587732c-.48273346 0-.87548638-.39275292-.87548638-.87548639 0-.48273346.39275292-.87548638.87548638-.87548638.48273347 0 .87541039.39275292.87541039.87548638 0 .48273347-.39267692.87548639-.87541039.87548639z" fill="#464655"/><path d="m5.43196741 5.27222156c-.08876459 0-.17638922-.04027847-.23369103-.11673152l-.35019455-.46692607-.35019455.46692607c-.09666829.12896704-.27959327.15511004-.40856032.05836576-.12889105-.0967443-.15503404-.27959327-.05836575-.40856031l.58365758-.77821012c.0550979-.07341319.14158257-.11665553.23346304-.11665553s.17836515.04324234.23346303.11665553l.58365759.77821012c.09666829.12896704.07052529.31181601-.05836576.40856031-.05251397.03936648-.11399562.05836576-.17486928.05836576z" fill="#5a5a6b"/><path d="m5.66520245 4.80529549-.58365759-.77821012c-.05509788-.07341319-.14158256-.11665553-.23346303-.11665553v.77813413l.35019455.46692607c.05730181.07645305.14492644.11673152.23369103.11673152.06094967 0 .12235531-.01899928.17486928-.05836576.12889105-.0967443.15503405-.27959327.05836576-.40856031z" fill="#464655"/></g></g></svg>