<svg xmlns="http://www.w3.org/2000/svg" viewBox="0 0 39.68 34.64"><defs><style>.cls-1{fill:#3694aa;}</style></defs><title>Recurso 17iconos</title><g id="Capa_2" data-name="Capa 2"><g id="ëÎÓÈ_1" data-name="ëÎÓÈ 1"><path class="cls-1" d="M24.4,32H20.93a.69.69,0,0,1,0-1.37H24.4A13.92,13.92,0,0,0,38.29,17.38H36.36c-1.71,1.05-4.49,3.05-5.19,5.33a7.47,7.47,0,0,1-8.68,5.15.69.69,0,0,1,.25-1.35,6,6,0,0,0,7.11-4.21c.82-2.64,3.7-4.83,6-6.2a.75.75,0,0,1,.36-.1H39a.69.69,0,0,1,.69.69A15.3,15.3,0,0,1,24.4,32Z"/><path class="cls-1" d="M15.68,31.82h-.09c-6.74-.89-12.3-5.9-13.52-12.2a.69.69,0,0,1,.47-.78.67.67,0,0,1,.83.37c2.89,6.41,10.33,7.15,13.39,7.17a.7.7,0,0,1,.68.7.69.69,0,0,1-.68.68h0c-2.47,0-7.57-.48-11.35-3.64a14.9,14.9,0,0,0,10.37,6.34.68.68,0,0,1-.09,1.36Z"/><path class="cls-1" d="M11.21,17.38h-.06a5.74,5.74,0,0,1-2.65-1,.7.7,0,0,1-.29-.56.66.66,0,0,1,.13-.4.68.68,0,0,1,.95-.16,4.79,4.79,0,0,0,2,.79.69.69,0,0,1,.63.68v.06A.69.69,0,0,1,11.21,17.38Z"/><path class="cls-1" d="M15.3,34.64c-.3,0-.62,0-1,0a.65.65,0,0,1-.53-.35.69.69,0,0,1,0-.64c1.19-2.4,2.39-5.37,2.3-6a.7.7,0,0,1,.54-.8.66.66,0,0,1,.79.48c.26,1-1,4-1.94,5.95,5.28-.14,6.4-5.94,6.45-6.2a.69.69,0,0,1,.8-.55,6,6,0,0,0,7.11-4.21,10.74,10.74,0,0,1,4-4.92H11.21a5.85,5.85,0,0,1-2.71-1,5.87,5.87,0,0,1-2.36-4.61.69.69,0,0,1,.4-.67c.78-.36,2.84-1.58,3.07-2.94V4.6A4.29,4.29,0,0,0,6.06,8.75c0,.12,0,.24,0,.35a.67.67,0,0,1-.71.64.69.69,0,0,1-.66-.69V8.81a4.23,4.23,0,0,0-3.31-4.2V8.07a5.44,5.44,0,0,0,1.76,2.61.68.68,0,0,1,.3.59c-.07,3.52-.1,7.52,0,8a.69.69,0,0,1-1.31.41c-.05-.13-.19-.53-.05-8.13A7.12,7.12,0,0,1,0,8.37a.68.68,0,0,1,0-.19V3.79a.68.68,0,0,1,.23-.51.71.71,0,0,1,.54-.17A5.61,5.61,0,0,1,5.38,6.06a6.09,6.09,0,0,1,4.88-2.95.68.68,0,0,1,.51.18.67.67,0,0,1,.21.5V8.27c-.28,1.93-2.45,3.29-3.43,3.82a4.34,4.34,0,0,0,1.74,3.13,4.79,4.79,0,0,0,2,.79h24.9a.69.69,0,0,1,.35,1.28c-1.69,1-4.63,3.08-5.35,5.43a7.41,7.41,0,0,1-8,5.24C22.62,29.74,20.72,34.64,15.3,34.64Z"/><path class="cls-1" d="M23.34,9.3a.69.69,0,0,1-.69-.68V7.88a3,3,0,1,1,5.91,0v.59a.68.68,0,0,1-.68.69.69.69,0,0,1-.69-.69V7.88a1.58,1.58,0,1,0-3.16,0v.74A.69.69,0,0,1,23.34,9.3Z"/><path class="cls-1" d="M23.34,9.3a.69.69,0,0,1-.69-.68V7.88a1.72,1.72,0,0,0-3.44,0v.59a.69.69,0,0,1-.69.69.68.68,0,0,1-.68-.69V7.88a3.1,3.1,0,0,1,6.19,0v.74A.69.69,0,0,1,23.34,9.3Z"/><path class="cls-1" d="M23.34,3.18a.69.69,0,0,1-.69-.69V2.06a2,2,0,1,1,4,0v.35a.68.68,0,0,1-.68.68.69.69,0,0,1-.69-.68V2.06a.65.65,0,1,0-1.29,0v.43A.69.69,0,0,1,23.34,3.18Z"/><path class="cls-1" d="M23.34,3.18a.69.69,0,0,1-.69-.69V2.06a.73.73,0,0,0-1.46,0v.35a.68.68,0,0,1-.68.68.69.69,0,0,1-.69-.68V2.06a2.11,2.11,0,0,1,4.21,0v.43A.69.69,0,0,1,23.34,3.18Z"/><path class="cls-1" d="M26.77,22.24a2.07,2.07,0,0,1-2.06-2.06.69.69,0,1,1,1.38,0,.67.67,0,0,0,.68.68.68.68,0,0,0,.69-.68.69.69,0,0,1,.69-.69.68.68,0,0,1,.68.69A2.06,2.06,0,0,1,26.77,22.24Z"/><path class="cls-1" d="M23.34,15.37a.68.68,0,0,1-.69-.68V1.21a.69.69,0,0,1,1.38,0V14.69A.68.68,0,0,1,23.34,15.37Z"/></g></g></svg>