<svg xmlns="http://www.w3.org/2000/svg" viewBox="0 0 75.78 30.76"><defs><style>.cls-1{fill:#2e4767;}.cls-2{fill:#c4d3d0;}.cls-3{fill:#fff;}.cls-4{fill:#b2355a;}</style></defs><title>Recurso 4iconos</title><g id="Capa_2" data-name="Capa 2"><g id="ëÎÓÈ_1" data-name="ëÎÓÈ 1"><path class="cls-1" d="M35.85,21.72A4.32,4.32,0,0,0,31.77,19c-8.89,0-16.1,5.86-22.54.58a7.59,7.59,0,0,0-3-1.5,2.57,2.57,0,0,0-.86-3.37,16,16,0,0,1-2.92-3S.52,16.8,4.75,18.36C.25,18.15,0,23.64,0,23.64A15.9,15.9,0,0,1,3.87,22,2.56,2.56,0,0,0,6,19.22a5.51,5.51,0,0,1,2.25,2.39c1,2.15,5.13,9.15,13.62,9.15S37.25,25.74,35.85,21.72Z"/><path class="cls-2" d="M13.19,25.69C19.73,28,23,27.32,25.11,26.6c2.32-.78,3.94-2.72,6.06-3.82a8.08,8.08,0,0,1,4.81-.6c.74,3.94-6,8.58-14.15,8.58C15,30.76,11,26.21,9.17,23.32,9.17,23.32,10.05,24.6,13.19,25.69Z"/><path class="cls-2" d="M13.19,25.69C19.73,28,23,27.32,25.11,26.6c2.32-.78,3.94-2.72,6.06-3.82a8.08,8.08,0,0,1,4.81-.6c.74,3.94-6,8.58-14.15,8.58C15,30.76,11,26.21,9.17,23.32,9.17,23.32,10.05,24.6,13.19,25.69Z"/><path class="cls-3" d="M31.64,23.12c-2.18,1-3.89,2.86-6.24,3.53a12.46,12.46,0,0,1-2.1.43,12.34,12.34,0,0,0,1.81-.48c2.32-.78,3.94-2.72,6.06-3.82a8.08,8.08,0,0,1,4.81-.6,4,4,0,0,1,.05.5A7.81,7.81,0,0,0,31.64,23.12Z"/><path class="cls-3" d="M27.09,23.79a.34.34,0,1,0,.33-.33A.34.34,0,0,0,27.09,23.79Z"/><path class="cls-1" d="M39.93,21.11A4.32,4.32,0,0,1,44,18.35c8.89,0,16.1,5.86,22.54.58a7.46,7.46,0,0,1,3-1.5,2.57,2.57,0,0,1,.86-3.37,16,16,0,0,0,2.92-3s1.9,5.16-2.33,6.71c4.5-.2,4.75,5.29,4.75,5.29a15.9,15.9,0,0,0-3.87-1.66,2.56,2.56,0,0,1-2.09-2.76A5.46,5.46,0,0,0,67.57,21c-1,2.15-5.13,9.15-13.62,9.15S38.53,25.13,39.93,21.11Z"/><path class="cls-2" d="M62.59,25.08c-6.54,2.28-9.78,1.63-11.92.91-2.32-.78-3.94-2.72-6.06-3.82a8.08,8.08,0,0,0-4.81-.6c-.74,3.94,6,8.58,14.15,8.58,6.85,0,10.82-4.55,12.66-7.44C66.61,22.71,65.73,24,62.59,25.08Z"/><path class="cls-2" d="M62.59,25.08c-6.54,2.28-9.78,1.63-11.92.91-2.32-.78-3.94-2.72-6.06-3.82a8.08,8.08,0,0,0-4.81-.6c-.74,3.94,6,8.58,14.15,8.58,6.85,0,10.82-4.55,12.66-7.44C66.61,22.71,65.73,24,62.59,25.08Z"/><path class="cls-3" d="M44.14,22.51c2.18,1,3.89,2.86,6.24,3.53a11.6,11.6,0,0,0,2.1.42A11.26,11.26,0,0,1,50.67,26c-2.32-.78-3.94-2.72-6.06-3.82a8.08,8.08,0,0,0-4.81-.6,4,4,0,0,0,0,.5A7.81,7.81,0,0,1,44.14,22.51Z"/><path class="cls-3" d="M48.69,23.18a.34.34,0,1,1-.67,0,.34.34,0,1,1,.67,0Z"/><path class="cls-4" d="M42.73,8.66a2.64,2.64,0,0,0-5.14-1.2l-.06.25h0l-.19-.18a2.64,2.64,0,0,0-3.66,3.8h0a5.23,5.23,0,0,0,.52.45,10.66,10.66,0,0,0,3.61,2.09,2.73,2.73,0,0,0,1.5,0l0,0,.06,0A2.6,2.6,0,0,0,40.65,13a10.77,10.77,0,0,0,1.9-3.72c.12-.35.18-.59.2-.65Z"/><path class="cls-4" d="M34.41,7.94a1.74,1.74,0,0,0-.31,2.58c.22.3.72,0,.5-.31-.39-.55-.56-1.37.12-1.77.33-.19,0-.69-.31-.5Z"/><path class="cls-4" d="M35,11.55a.29.29,0,0,0-.17-.56.29.29,0,0,0,.17.56Z"/><path class="cls-4" d="M48,4.38a1.62,1.62,0,1,0-1.74-2.73l-.14.08h0a.86.86,0,0,1,0-.16,1.62,1.62,0,1,0-3.24.1h0s0,.19,0,.42a6.46,6.46,0,0,0,.69,2.46,1.62,1.62,0,0,0,.66.64l0,0,0,0a1.62,1.62,0,0,0,.9.18,6.39,6.39,0,0,0,2.43-.82c.21-.1.33-.18.37-.2Z"/><path class="cls-4" d="M44.63.5a1.06,1.06,0,0,0-1.24,1c0,.23.31.31.35.08.06-.42.34-.85.81-.73A.18.18,0,0,0,44.63.5Z"/><path class="cls-4" d="M43.35,2.35A.18.18,0,0,0,43.52,2a.18.18,0,0,0-.17.32Z"/></g></g></svg>