<svg width="63.14" height="33.51" xmlns="http://www.w3.org/2000/svg">
 <defs>
  <style>.cls-1{fill:#264557;}.cls-2{fill:#d3e3e3;}.cls-3{fill:#fff;}</style>
 </defs>
 <title>Recurso 1iconos</title>
 <g>
  <title>background</title>
  <rect fill="none" id="canvas_background" height="402" width="582" y="-1" x="-1"/>
 </g>
 <g>
  <title>Layer 1</title>
  <g id="Capa_2">
   <g id="ëÎÓÈ_1">
    <path id="svg_1" d="m62.83,17.66a7.59,7.59 0 0 0 -7.17,-4.83c-15.57,0 -28.2,10.27 -39.49,1a13.36,13.36 0 0 0 -5.31,-2.63c0.6,-1.48 1.18,-4.16 -1.5,-5.9c-2.25,-1.45 -5.12,-5.3 -5.12,-5.3s-3.33,9 4.09,11.77c-7.9,-0.36 -8.33,9.23 -8.33,9.23s4.14,-2.43 6.78,-2.91c3.12,-0.56 3.64,-3.23 3.67,-4.83a9.58,9.58 0 0 1 3.93,4.18c1.84,3.77 9,16 23.87,16s27.02,-8.72 24.58,-15.78z" class="cls-1"/>
    <path id="svg_2" d="m23.1,24.62c11.47,4 17.15,2.86 20.9,1.59c4.06,-1.37 6.9,-4.76 10.63,-6.69a14.23,14.23 0 0 1 8.37,-1.05c1.31,6.9 -10.46,15 -24.79,15c-12,0 -19,-8 -22.18,-13c0.04,0 1.59,2.24 7.07,4.15z" class="cls-2"/>
    <path id="svg_3" d="m55.44,20.12c-3.81,1.75 -6.81,5 -10.93,6.19a22.15,22.15 0 0 1 -3.67,0.74a20.78,20.78 0 0 0 3.16,-0.84c4.06,-1.37 6.9,-4.76 10.63,-6.69a14.23,14.23 0 0 1 8.37,-1.05a6.42,6.42 0 0 1 0.09,0.87a13.71,13.71 0 0 0 -7.65,0.78z" class="cls-3"/>
    <path id="svg_4" d="m47.46,21.3a0.6,0.6 0 0 0 0.59,0.59a0.59,0.59 0 0 0 0.59,-0.59a0.58,0.58 0 0 0 -0.59,-0.59a0.59,0.59 0 0 0 -0.59,0.59z" class="cls-3"/>
   </g>
  </g>
  <g id="svg_31">
   <g transform="matrix(0.018489116407105266,0,0,0.018489116407105266,0,0) " id="svg_9">
    <g id="svg_10">
     <path id="svg_11" d="m2867.417902,391.210801c3.514,11.463 7.147,23.318 8.96,35.258c0.741,4.866 3.647,40.261 5.218,59.707c0.602,7.451 6.252,13.508 13.643,14.626l25.821,3.904c3.723,0.563 6.692,3.402 7.417,7.097l3.402,17.401c1.479,7.563 8.108,13.018 15.814,13.014l200.241,-0.119c7.572,-0.005 14.118,-5.283 15.726,-12.682l3.896,-17.915c0.86,-3.536 3.782,-6.193 7.383,-6.717l31.437,-4.566c7.554,-1.097 13.3,-7.344 13.759,-14.964c1.206,-20.008 3.457,-56.434 4.155,-61.425c1.653,-11.784 5.131,-23.432 8.49,-34.764c4.709,-15.857 9.578,-32.225 9.578,-49.248c0.006,-108.709 -86.402,-197.132 -192.608,-197.132s-192.613,88.471 -192.613,197.204c0.001,17.782 5.227,34.834 10.281,51.321zm207.43,-10.032c1.221,-30.877 28.91,-38.641 59.787,-37.421c30.877,1.221 53.249,10.965 52.028,41.842c-1.221,30.877 -27.241,54.918 -58.118,53.697c-30.877,-1.221 -54.918,-27.241 -53.697,-58.118zm-18.166,60.589l20.042,29.679c1.778,2.632 2.021,6.011 0.639,8.871l-2.875,5.951c-1.489,3.081 -4.609,5.038 -8.03,5.038l-17.167,0l-17.167,0c-3.422,0 -6.542,-1.958 -8.03,-5.038l-2.875,-5.951c-1.382,-2.86 -1.138,-6.238 0.639,-8.871l20.042,-29.679c3.536,-5.237 11.246,-5.237 14.782,0zm-91.82,-98.009c30.877,-1.221 58.566,6.543 59.787,37.421c1.221,30.877 -22.82,56.897 -53.697,58.118c-30.877,1.221 -56.897,-22.82 -58.118,-53.697c-1.221,-30.878 21.151,-40.622 52.028,-41.842z"/>
     <path id="svg_12" d="m3300.912902,114.330801c2.402,-14.75 -2.089,-30.405 -13.499,-41.757c-18.326,-18.234 -48.224,-18.566 -66.929,-0.721c-19.558,18.659 -19.834,49.646 -0.828,68.652l-17.47,17.47c-6.98,6.981 -6.98,18.299 0,25.28l29.802,29.802c6.98,6.981 18.299,6.981 25.279,0l17.47,-17.47c19.007,19.007 49.994,18.73 68.652,-0.828c17.845,-18.705 17.512,-48.604 -0.722,-66.929c-11.351,-11.41 -27.005,-15.901 -41.755,-13.499z"/>
     <path id="svg_13" d="m2826.386902,195.585801l17.47,17.47c6.981,6.981 18.299,6.981 25.279,0l29.802,-29.802c6.981,-6.981 6.981,-18.299 0,-25.28l-17.47,-17.47c19.007,-19.006 18.73,-49.993 -0.828,-68.652c-18.705,-17.844 -48.603,-17.512 -66.929,0.722c-11.409,11.352 -15.9,27.007 -13.498,41.757c-14.75,-2.402 -30.404,2.089 -41.757,13.498c-18.234,18.325 -18.567,48.224 -0.722,66.929c18.659,19.558 49.646,19.834 68.653,0.828z"/>
     <path id="svg_14" d="m3343.391902,528.681801c-18.659,-19.559 -49.646,-19.834 -68.652,-0.828l-17.47,-17.47c-6.981,-6.981 -18.299,-6.981 -25.279,0l-29.802,29.802c-6.98,6.981 -6.98,18.299 0,25.28l17.47,17.47c-19.007,19.007 -18.73,49.994 0.828,68.652c18.705,17.845 48.604,17.513 66.929,-0.721c11.41,-11.352 15.901,-27.007 13.499,-41.757c14.75,2.402 30.404,-2.089 41.756,-13.499c18.233,-18.326 18.565,-48.224 0.721,-66.929z"/>
     <path id="svg_15" d="m2800.212902,609.108801c-2.402,14.75 2.089,30.405 13.499,41.757c18.326,18.234 48.224,18.566 66.929,0.721c19.558,-18.659 19.834,-49.646 0.828,-68.652l17.47,-17.47c6.981,-6.98 6.981,-18.299 0,-25.28l-29.802,-29.802c-6.981,-6.981 -18.299,-6.981 -25.279,0l-17.47,17.47c-19.007,-19.007 -49.994,-18.731 -68.652,0.828c-17.845,18.705 -17.513,48.603 0.721,66.929c11.352,11.41 27.006,15.901 41.756,13.499z"/>
    </g>
   </g>
   <g transform="matrix(0.018489116407105266,0,0,0.018489116407105266,0,0) " id="svg_16"/>
   <g transform="matrix(0.018489116407105266,0,0,0.018489116407105266,0,0) " id="svg_17"/>
   <g transform="matrix(0.018489116407105266,0,0,0.018489116407105266,0,0) " id="svg_18"/>
   <g transform="matrix(0.018489116407105266,0,0,0.018489116407105266,0,0) " id="svg_19"/>
   <g transform="matrix(0.018489116407105266,0,0,0.018489116407105266,0,0) " id="svg_20"/>
   <g transform="matrix(0.018489116407105266,0,0,0.018489116407105266,0,0) " id="svg_21"/>
   <g transform="matrix(0.018489116407105266,0,0,0.018489116407105266,0,0) " id="svg_22"/>
   <g transform="matrix(0.018489116407105266,0,0,0.018489116407105266,0,0) " id="svg_23"/>
   <g transform="matrix(0.018489116407105266,0,0,0.018489116407105266,0,0) " id="svg_24"/>
   <g transform="matrix(0.018489116407105266,0,0,0.018489116407105266,0,0) " id="svg_25"/>
   <g transform="matrix(0.018489116407105266,0,0,0.018489116407105266,0,0) " id="svg_26"/>
   <g transform="matrix(0.018489116407105266,0,0,0.018489116407105266,0,0) " id="svg_27"/>
   <g transform="matrix(0.018489116407105266,0,0,0.018489116407105266,0,0) " id="svg_28"/>
   <g transform="matrix(0.018489116407105266,0,0,0.018489116407105266,0,0) " id="svg_29"/>
   <g transform="matrix(0.018489116407105266,0,0,0.018489116407105266,0,0) " id="svg_30"/>
  </g>
 </g>
</svg>