<svg xmlns="http://www.w3.org/2000/svg" viewBox="0 0 59.35 24.8"><defs><style>.cls-1{fill:#6a0c61;}.cls-2{fill:#e56759;}</style></defs><title>Recurso 13iconos</title><g id="Capa_2" data-name="Capa 2"><g id="ëÎÓÈ_1" data-name="ëÎÓÈ 1"><path class="cls-1" d="M17.71,22.72H15.19a.5.5,0,0,1-.5-.5.5.5,0,0,1,.5-.5h2.52a10.1,10.1,0,0,0,10.07-9.59h-1.4c-1.24.76-3.26,2.22-3.77,3.87a5.4,5.4,0,0,1-6.29,3.74.5.5,0,1,1,.18-1,4.37,4.37,0,0,0,5.16-3.05c.59-1.92,2.68-3.51,4.33-4.5a.43.43,0,0,1,.25-.07h2.05a.5.5,0,0,1,.5.49A11.1,11.1,0,0,1,17.71,22.72Z"/><path class="cls-1" d="M11.38,22.62h-.07A11.43,11.43,0,0,1,1.5,13.76a.51.51,0,0,1,.34-.57.51.51,0,0,1,.61.27c2.1,4.66,7.49,5.19,9.71,5.21a.5.5,0,1,1,0,1h0c-1.79,0-5.49-.34-8.23-2.64a10.79,10.79,0,0,0,7.52,4.6.5.5,0,0,1-.06,1Z"/><path class="cls-1" d="M8.14,12.13H8.09a4.17,4.17,0,0,1-1.92-.75A.49.49,0,0,1,6,11a.47.47,0,0,1,.09-.28.49.49,0,0,1,.69-.12,3.39,3.39,0,0,0,1.44.57.49.49,0,0,1,.45.49v0A.49.49,0,0,1,8.14,12.13Z"/><path class="cls-1" d="M11.1,24.66a5.53,5.53,0,0,1-.69,0,.5.5,0,0,1-.39-.25.53.53,0,0,1,0-.46,16.94,16.94,0,0,0,1.67-4.34.51.51,0,0,1,.39-.58.49.49,0,0,1,.58.35c.19.74-.75,2.93-1.41,4.32,3.83-.11,4.64-4.31,4.68-4.5a.5.5,0,0,1,.58-.4,4.37,4.37,0,0,0,5.16-3.05,7.71,7.71,0,0,1,2.94-3.58H8.14a4.09,4.09,0,0,1-2-.75A4.25,4.25,0,0,1,4.46,8a.49.49,0,0,1,.28-.48C5.31,7.29,6.8,6.4,7,5.42V2.86a3.11,3.11,0,0,0-2.57,3c0,.09,0,.18,0,.26a.49.49,0,0,1-.51.46.51.51,0,0,1-.49-.5s0-.11,0-.17a3.09,3.09,0,0,0-2.4-3V5.38a4,4,0,0,0,1.27,1.9.5.5,0,0,1,.22.42c-.05,2.56-.07,5.46,0,5.84a.49.49,0,0,1-.31.6.51.51,0,0,1-.64-.31c0-.09-.13-.38,0-5.89A5.23,5.23,0,0,1,0,5.59a.59.59,0,0,1,0-.13V2.28A.5.5,0,0,1,.17,1.9a.54.54,0,0,1,.39-.12A4.08,4.08,0,0,1,3.91,3.93,4.4,4.4,0,0,1,7.44,1.78a.48.48,0,0,1,.37.13A.52.52,0,0,1,8,2.28V5.46a.17.17,0,0,1,0,.07C7.77,6.92,6.19,7.92,5.48,8.3a3.15,3.15,0,0,0,1.26,2.27,3.39,3.39,0,0,0,1.44.57H26.24a.5.5,0,0,1,.26.92c-1.23.74-3.36,2.24-3.89,3.94a5.36,5.36,0,0,1-5.83,3.8C16.41,21.1,15,24.66,11.1,24.66Z"/><path class="cls-1" d="M19.43,15.66a1.5,1.5,0,0,1-1.5-1.49.5.5,0,0,1,.5-.5.5.5,0,0,1,.5.5.5.5,0,0,0,1,0,.5.5,0,0,1,.5-.5.5.5,0,0,1,.5.5A1.49,1.49,0,0,1,19.43,15.66Z"/><path class="cls-1" d="M30.56,11.78a.5.5,0,0,1,.5-.5h2a.48.48,0,0,1,.26.07c1.65,1,3.74,2.58,4.33,4.5a4.37,4.37,0,0,0,5.16,3,.5.5,0,0,1,.18,1,5.41,5.41,0,0,1-6.3-3.74c-.5-1.65-2.53-3.1-3.77-3.87H31.57a10.1,10.1,0,0,0,10.07,9.59h2.52a.5.5,0,0,1,.5.5.51.51,0,0,1-.5.5H41.64A11.09,11.09,0,0,1,30.56,11.78Z"/><path class="cls-1" d="M47.47,22.32a.49.49,0,0,1,.43-.55,10.8,10.8,0,0,0,7.53-4.61c-2.74,2.3-6.44,2.63-8.24,2.65h0a.5.5,0,0,1,0-1c2.22,0,7.61-.55,9.71-5.21a.5.5,0,0,1,.94.3A11.42,11.42,0,0,1,48,22.75H48A.51.51,0,0,1,47.47,22.32Z"/><path class="cls-1" d="M50.72,11.82a.08.08,0,0,1,0,0,.5.5,0,0,1,.46-.5,3.33,3.33,0,0,0,1.43-.57.5.5,0,0,1,.79.41.49.49,0,0,1-.21.4,4.22,4.22,0,0,1-1.93.75h0A.48.48,0,0,1,50.72,11.82Z"/><path class="cls-1" d="M42.56,19.94a5.36,5.36,0,0,1-5.83-3.8c-.52-1.7-2.66-3.2-3.88-3.94a.49.49,0,0,1-.23-.56.5.5,0,0,1,.48-.36H51.17a3.33,3.33,0,0,0,1.43-.57,3.16,3.16,0,0,0,1.27-2.27c-.71-.38-2.29-1.37-2.49-2.77V2.42a.5.5,0,0,1,.53-.5,4.42,4.42,0,0,1,3.53,2.15,4.1,4.1,0,0,1,3.35-2.15.52.52,0,0,1,.39.13.48.48,0,0,1,.17.37V5.6a.68.68,0,0,1,0,.14,5.27,5.27,0,0,1-1.47,2.34c.1,5.51,0,5.8,0,5.9a.49.49,0,0,1-.63.3.51.51,0,0,1-.32-.6c.06-.38,0-3.28,0-5.84a.47.47,0,0,1,.22-.42,3.94,3.94,0,0,0,1.27-1.9V3A3.08,3.08,0,0,0,56,6.06v.18a.48.48,0,0,1-.48.49A.48.48,0,0,1,55,6.27,2.17,2.17,0,0,1,55,6a3.12,3.12,0,0,0-2.58-3V5.56c.17,1,1.66,1.87,2.23,2.13a.51.51,0,0,1,.29.49,4.24,4.24,0,0,1-1.71,3.34,4.16,4.16,0,0,1-2,.75H34.75a7.88,7.88,0,0,1,2.94,3.58,4.37,4.37,0,0,0,5.16,3,.5.5,0,0,1,.58.4c0,.19.85,4.39,4.68,4.5-.66-1.39-1.6-3.57-1.41-4.32a.48.48,0,0,1,.57-.35.52.52,0,0,1,.4.59,16.89,16.89,0,0,0,1.66,4.33.47.47,0,0,1,0,.46.52.52,0,0,1-.38.26l-.7,0C44.32,24.8,42.94,21.24,42.56,19.94Z"/><path class="cls-1" d="M38.43,14.31a.5.5,0,1,1,1,0,.51.51,0,0,0,.5.5.5.5,0,0,0,.5-.5.5.5,0,0,1,.5-.5.5.5,0,0,1,.5.5,1.5,1.5,0,0,1-3,0Z"/><g id="Icons"><path class="cls-2" d="M33.8,2.48a2.47,2.47,0,0,0-4.59-1.29,2.48,2.48,0,0,0-4.6,1.29,2.46,2.46,0,0,0,.86,1.87L29,7.86a.33.33,0,0,0,.23.1.32.32,0,0,0,.22-.1L33,4.35A2.48,2.48,0,0,0,33.8,2.48Z"/></g></g></g></svg>