<?xml version="1.0" encoding="iso-8859-1"?>
<!-- Generator: Adobe Illustrator 19.0.0, SVG Export Plug-In . SVG Version: 6.00 Build 0)  -->
<svg version="1.1" id="Layer_1" xmlns="http://www.w3.org/2000/svg" xmlns:xlink="http://www.w3.org/1999/xlink" x="0px" y="0px"
	 viewBox="0 0 512 512" style="enable-background:new 0 0 512 512;" xml:space="preserve">
<path style="fill:#314E55;" d="M394.667,37.333c-61.721,0-112.346,47.952-116.887,108.551C270.665,144.755,263.428,144,256,144
	s-14.665,0.755-21.78,1.885c-4.54-60.6-55.166-108.551-116.887-108.551C52.635,37.333,0,89.99,0,154.708V304
	c0,5.896,4.776,10.667,10.667,10.667h106.667V434.89c-11.262-14.857-28.652-31.472-51.823-34.786
	c-5.865-0.854-11.234,3.208-12.068,9.052c-0.833,5.833,3.219,11.239,9.047,12.073c13.02,1.857,23.942,10.422,32.281,19.743
	l-27.635-8.503c-5.625-1.75-11.604,1.427-13.328,7.062c-1.734,5.625,1.427,11.594,7.057,13.333l52.491,16.151
	c1.907,3.523,5.495,5.641,9.316,5.641c0.859,0,1.708-0.333,2.563-0.547c0.902,0.248,1.784,0.558,2.765,0.558h256l0.013-0.003
	c1.033-0.002,2.053-0.16,3.032-0.453c0.03-0.009,0.061-0.005,0.09-0.014l69.333-21.333c5.63-1.739,8.792-7.708,7.057-13.333
	c-1.729-5.635-7.734-8.813-13.328-7.062l-41.914,12.897c8.718-10.896,20.985-22.007,35.893-24.136
	c5.828-0.833,9.88-6.239,9.047-12.073c-0.833-5.833-6.193-9.865-12.068-9.052c-19.787,2.83-35.339,15.372-46.49,28.227V314.667
	h106.667c5.891,0,10.667-4.771,10.667-10.667V154.708C512,89.99,459.365,37.333,394.667,37.333z"/>
<g>
	<path style="fill:#EAEAEA;" d="M373.333,282.719v170.615H138.667V282.719c0-64.729,52.635-117.385,117.333-117.385
		S373.333,217.99,373.333,282.719z"/>
	<path style="fill:#EAEAEA;" d="M21.333,293.333V154.708c0-52.958,43.068-96.042,96-96.042c51.634,0,93.764,41.026,95.805,92.193
		c-55.533,18.113-95.805,70.339-95.805,131.859v10.615H21.333z"/>
	<path style="fill:#EAEAEA;" d="M490.667,293.333h-96v-10.615c0-61.52-40.272-113.746-95.805-131.859
		c2.042-51.167,44.171-92.193,95.805-92.193c52.932,0,96,43.083,96,96.042V293.333z"/>
</g>
<g>
	<polygon style="fill:#314E55;" points="245.333,314.667 266.667,314.667 266.667,240 298.667,240 298.667,218.667 266.667,218.667 
		266.667,197.333 245.333,197.333 245.333,218.667 213.333,218.667 213.333,240 245.333,240 	"/>
	<polygon style="fill:#314E55;" points="405.333,80 384,80 384,101.333 362.667,101.333 362.667,122.667 384,122.667 384,176 
		405.333,176 405.333,122.667 426.667,122.667 426.667,101.333 405.333,101.333 	"/>
	<polygon style="fill:#314E55;" points="128,122.667 149.333,122.667 149.333,101.333 128,101.333 128,80 106.667,80 
		106.667,101.333 85.333,101.333 85.333,122.667 106.667,122.667 106.667,176 128,176 	"/>
</g>
<g>
</g>
<g>
</g>
<g>
</g>
<g>
</g>
<g>
</g>
<g>
</g>
<g>
</g>
<g>
</g>
<g>
</g>
<g>
</g>
<g>
</g>
<g>
</g>
<g>
</g>
<g>
</g>
<g>
</g>
</svg>
