<svg xmlns="http://www.w3.org/2000/svg" height="512pt" version="1.1" viewBox="-53 0 512 512.00029" width="512pt">
<g id="surface1">
<path d="M 202.707031 0 C 91.21875 -0.195312 0 92.578125 0 204.070312 L 0 512 L 405.414062 512 L 405.414062 204.070312 C 405.414062 92.578125 314.199219 -0.195312 202.707031 0 Z M 202.707031 0 " style=" stroke:none;fill-rule:nonzero;fill:rgb(22.745098%,28.235294%,29.019608%);fill-opacity:1;" />
<path d="M 202.707031 70.597656 C 109.789062 70.433594 33.765625 147.757812 33.765625 240.675781 L 33.765625 255.191406 C 33.765625 303.988281 72.441406 344.546875 121.226562 345.636719 C 122.210938 345.660156 123.199219 345.671875 124.191406 345.671875 L 124.191406 370.945312 C 124.191406 385.464844 135.960938 397.238281 150.484375 397.238281 L 155.734375 397.238281 L 155.722656 397.234375 L 163.449219 393.71875 L 171.175781 397.234375 L 171.160156 397.238281 L 194.996094 397.238281 L 194.980469 397.234375 L 202.707031 393.71875 L 210.433594 397.234375 L 210.421875 397.238281 L 234.253906 397.238281 L 234.242188 397.234375 L 241.96875 393.71875 L 249.695312 397.234375 L 249.679688 397.238281 L 254.933594 397.238281 C 269.457031 397.238281 281.226562 385.464844 281.226562 370.945312 L 281.226562 345.671875 C 282.21875 345.671875 283.203125 345.660156 284.1875 345.640625 C 332.976562 344.546875 371.648438 303.992188 371.648438 255.191406 L 371.648438 240.675781 C 371.648438 147.757812 295.625 70.433594 202.707031 70.597656 Z M 202.707031 70.597656 " style=" stroke:none;fill-rule:nonzero;fill:rgb(93.72549%,92.941176%,93.333333%);fill-opacity:1;" />
<path d="M 202.707031 70.597656 C 109.789062 70.433594 33.765625 147.757812 33.765625 240.675781 L 33.765625 255.191406 C 33.765625 257.480469 33.878906 259.746094 34.046875 261.996094 C 39.058594 173.40625 113.007812 101.34375 202.707031 101.503906 C 292.410156 101.34375 366.359375 173.40625 371.371094 261.992188 C 371.535156 259.742188 371.648438 257.480469 371.648438 255.191406 L 371.648438 240.671875 C 371.648438 147.757812 295.625 70.433594 202.707031 70.597656 Z M 202.707031 70.597656 " style=" stroke:none;fill-rule:nonzero;fill:rgb(83.137255%,83.137255%,83.137255%);fill-opacity:1;" />
<path d="M 155.722656 397.234375 L 155.722656 359.871094 C 155.722656 355.601562 159.179688 352.144531 163.449219 352.144531 C 167.714844 352.144531 171.175781 355.601562 171.175781 359.871094 L 171.175781 397.234375 Z M 155.722656 397.234375 " style=" stroke:none;fill-rule:nonzero;fill:rgb(19.607843%,24.313725%,25.098039%);fill-opacity:1;" />
<path d="M 194.980469 397.234375 L 194.980469 359.871094 C 194.980469 355.601562 198.441406 352.144531 202.707031 352.144531 C 206.976562 352.144531 210.433594 355.601562 210.433594 359.871094 L 210.433594 397.234375 Z M 194.980469 397.234375 " style=" stroke:none;fill-rule:nonzero;fill:rgb(19.607843%,24.313725%,25.098039%);fill-opacity:1;" />
<path d="M 234.242188 397.234375 L 234.242188 359.871094 C 234.242188 355.601562 237.699219 352.144531 241.96875 352.144531 C 246.234375 352.144531 249.695312 355.601562 249.695312 359.871094 L 249.695312 397.234375 Z M 234.242188 397.234375 " style=" stroke:none;fill-rule:nonzero;fill:rgb(19.607843%,24.313725%,25.098039%);fill-opacity:1;" />
<path d="M 115.058594 298.757812 C 110.789062 298.757812 107.332031 295.300781 107.332031 291.03125 L 107.332031 272.023438 C 107.332031 267.757812 110.789062 264.296875 115.058594 264.296875 C 119.324219 264.296875 122.785156 267.757812 122.785156 272.023438 L 122.785156 291.03125 C 122.785156 295.300781 119.324219 298.757812 115.058594 298.757812 Z M 115.058594 298.757812 " style=" stroke:none;fill-rule:nonzero;fill:rgb(19.607843%,24.313725%,25.098039%);fill-opacity:1;" />
<path d="M 289.617188 298.757812 C 285.351562 298.757812 281.894531 295.300781 281.894531 291.03125 L 281.894531 272.023438 C 281.894531 267.757812 285.351562 264.296875 289.617188 264.296875 C 293.886719 264.296875 297.34375 267.757812 297.34375 272.023438 L 297.34375 291.03125 C 297.34375 295.300781 293.886719 298.757812 289.617188 298.757812 Z M 289.617188 298.757812 " style=" stroke:none;fill-rule:nonzero;fill:rgb(19.607843%,24.313725%,25.098039%);fill-opacity:1;" />
<path d="M 214.085938 301.859375 L 207.820312 289.757812 C 205.5 285.28125 199.066406 285.375 196.878906 289.914062 L 191.042969 302.015625 C 189.085938 306.078125 192.046875 310.789062 196.554688 310.789062 L 208.65625 310.789062 C 213.242188 310.789062 216.195312 305.933594 214.085938 301.859375 Z M 214.085938 301.859375 " style=" stroke:none;fill-rule:nonzero;fill:rgb(19.607843%,24.313725%,25.098039%);fill-opacity:1;" />
<path d="M 65.457031 512 L 65.457031 462.269531 C 65.457031 458.003906 68.917969 454.542969 73.183594 454.542969 C 77.449219 454.542969 80.910156 458.003906 80.910156 462.269531 L 80.910156 512 Z M 65.457031 512 " style=" stroke:none;fill-rule:nonzero;fill:rgb(19.607843%,24.313725%,25.098039%);fill-opacity:1;" />
<path d="M 324.507812 512 L 324.507812 462.269531 C 324.507812 458.003906 327.964844 454.542969 332.234375 454.542969 C 336.5 454.542969 339.957031 458.003906 339.957031 462.269531 L 339.957031 512 Z M 324.507812 512 " style=" stroke:none;fill-rule:nonzero;fill:rgb(19.607843%,24.313725%,25.098039%);fill-opacity:1;" />
</g>
</svg>