<?xml version="1.0" encoding="iso-8859-1"?>
<!-- Generator: Adobe Illustrator 19.0.0, SVG Export Plug-In . SVG Version: 6.00 Build 0)  -->
<svg xmlns="http://www.w3.org/2000/svg" xmlns:xlink="http://www.w3.org/1999/xlink" version="1.1" id="Layer_1" x="0px" y="0px" viewBox="0 0 512 512" style="enable-background:new 0 0 512 512;" xml:space="preserve" width="512" height="512">
<g>
	<g>
		<path style="fill:#F0F3F5;" d="M293.031,0h-74.063C106.407,0,14.831,92.207,14.831,205.543c0,39.946,14.52,78.385,40.885,108.237    l75.391,85.365l13.387,75.518C148.328,496.297,166.982,512,188.85,512H323.15c21.867,0,40.521-15.703,44.356-37.337l13.387-75.518    l75.391-85.364c26.365-29.852,40.885-68.292,40.885-108.238C497.169,92.206,405.593,0,293.031,0z"/>
		<path style="fill:#AED4E6;" d="M293.031,0H256v512h67.15c21.867,0,40.521-15.703,44.356-37.337l13.387-75.518l75.391-85.364    c26.365-29.852,40.885-68.292,40.885-108.238C497.169,92.206,405.593,0,293.031,0z"/>
		<g>
			<path style="fill:#1F3145;" d="M341.149,124.439c-37.397,0-67.822,30.601-67.822,68.214s30.425,68.214,67.822,68.214     c37.396,0,67.821-30.601,67.821-68.214S378.546,124.439,341.149,124.439z"/>
			<path style="fill:#4E6682;" d="M170.851,124.439c-37.396,0-67.821,30.601-67.821,68.214s30.425,68.214,67.821,68.214     c37.397,0,67.822-30.601,67.822-68.214S208.248,124.439,170.851,124.439z"/>
		</g>
		<path style="fill:#4E6682;" d="M208,426.293c-8.284,0-15,6.716-15,15V512h30v-70.707C223,433.009,216.284,426.293,208,426.293z"/>
		<path style="fill:#4E6682;" d="M256,426.293c-8.284,0-15,6.716-15,15V512h30v-70.707C271,433.009,264.284,426.293,256,426.293z"/>
		<path style="fill:#1F3145;" d="M256,426.293V512h15v-70.707C271,433.009,264.284,426.293,256,426.293z"/>
		<path style="fill:#1F3145;" d="M304,426.293c-8.284,0-15,6.716-15,15V512h30v-70.707C319,433.009,312.284,426.293,304,426.293z"/>
	</g>
	<path style="fill:#4E6682;" d="M304.829,303.862l-38.184-38.467c-2.815-2.837-6.648-4.433-10.646-4.433s-7.83,1.596-10.646,4.433   l-38.184,38.467c-5.806,5.849-5.806,15.286,0,21.134c13.036,13.134,30.377,20.367,48.829,20.367s35.793-7.233,48.829-20.367   C310.635,319.148,310.635,309.711,304.829,303.862z"/>
	<path style="fill:#1F3145;" d="M304.829,303.862l-38.184-38.467c-2.815-2.837-6.648-4.433-10.646-4.433v84.401   c18.452,0,35.793-7.233,48.829-20.367C310.635,319.148,310.635,309.711,304.829,303.862z"/>
</g>















</svg>
