<svg height="512pt" viewBox="0 0 512.002 512" width="512pt" xmlns="http://www.w3.org/2000/svg"><path d="m458.3125 394.675781-138.671875-138.671875 138.671875-138.675781c14.496094 2.871094 29.792969-1.507813 40.503906-12.222656 8.5-8.5 13.183594-19.800781 13.183594-31.820313 0-12.019531-4.683594-23.320312-13.183594-31.820312-4.933594-4.933594-10.933594-8.597656-17.511718-10.769532-2.171876-6.578124-5.835938-12.578124-10.769532-17.511718-8.5-8.5-19.800781-13.183594-31.820312-13.183594-12.019532 0-23.320313 4.683594-31.820313 13.183594-10.710937 10.710937-15.09375 26.011718-12.222656 40.503906l-138.671875 138.675781-138.671875-138.675781c2.871094-14.492188-1.511719-29.792969-12.222656-40.503906-8.5-8.5-19.800781-13.183594-31.820313-13.183594-12.019531 0-23.320312 4.683594-31.820312 13.183594-4.9375 4.933594-8.597656 10.933594-10.769532 17.511718-6.578124 2.171876-12.578124 5.835938-17.511718 10.769532-8.5 8.5-13.183594 19.800781-13.183594 31.820312 0 12.023438 4.683594 23.320313 13.183594 31.820313 10.710937 10.714843 26.007812 15.09375 40.503906 12.222656l138.671875 138.675781-138.671875 138.671875c-14.496094-2.871093-29.792969 1.507813-40.503906 12.222657-8.5 8.496093-13.183594 19.800781-13.183594 31.820312s4.683594 23.320312 13.183594 31.820312c4.933594 4.933594 10.933594 8.597657 17.511718 10.769532 2.171876 6.578125 5.835938 12.578125 10.769532 17.511718 8.773437 8.773438 20.296875 13.160157 31.820312 13.160157 11.523438 0 23.046875-4.386719 31.820313-13.160157 10.714843-10.710937 15.09375-26.011718 12.222656-40.503906l138.671875-138.675781 138.675781 138.675781c-2.875 14.492188 1.507813 29.792969 12.222657 40.503906 8.769531 8.773438 20.292968 13.160157 31.816406 13.160157 11.523437 0 23.050781-4.386719 31.824218-13.160157 4.933594-4.933593 8.59375-10.933593 10.769532-17.511718 6.578125-2.171875 12.578125-5.835938 17.511718-10.769532 8.5-8.5 13.183594-19.800781 13.183594-31.820312s-4.683594-23.320312-13.183594-31.820312c-10.714843-10.714844-26.011718-15.09375-40.507812-12.222657zm0 0" fill="#aaebeb"/><path d="m458.3125 394.675781-138.671875-138.671875 138.671875-138.675781c14.496094 2.871094 29.792969-1.507813 40.503906-12.222656 8.5-8.5 13.183594-19.800781 13.183594-31.820313 0-12.019531-4.683594-23.320312-13.183594-31.820312-4.933594-4.933594-10.933594-8.597656-17.511718-10.769532-2.171876-6.578124-5.835938-12.578124-10.769532-17.511718-8.5-8.5-19.800781-13.183594-31.820312-13.183594-12.019532 0-23.320313 4.683594-31.820313 13.183594-10.710937 10.710937-15.09375 26.011718-12.222656 40.503906l-138.671875 138.675781v127.277344l138.671875 138.671875c-2.871094 14.496094 1.511719 29.796875 12.222656 40.507812 8.773438 8.773438 20.296875 13.160157 31.820313 13.160157 11.523437 0 23.046875-4.386719 31.820312-13.160157 4.9375-4.9375 8.597656-10.9375 10.773438-17.511718 6.574218-2.175782 12.574218-5.835938 17.511718-10.769532 8.5-8.5 13.179688-19.804687 13.179688-31.824218 0-12.019532-4.679688-23.320313-13.179688-31.816406-10.714843-10.714844-26.011718-15.09375-40.507812-12.222657zm0 0" fill="#82dcdc"/><path d="m326 440.988281h-140c-19.296875 0-35-15.699219-35-35v-25h-23.425781c-27.949219 0-52.003907-20.070312-55.957031-46.683593-3.28125-22.109376 7.171874-43.480469 25.335937-54.828126-3.953125-14.285156-5.953125-28.859374-5.953125-43.488281 0-44.597656 17.515625-86.382812 49.320312-117.65625 31.796876-31.265625 73.882813-48.03125 118.519532-47.316406 39.335937.660156 77.398437 15.804687 107.175781 42.640625 29.726563 26.789062 48.804687 63.054688 53.714844 102.121094 2.691406 21.433594 1.117187 42.800781-4.679688 63.703125 18.160157 11.347656 28.613281 32.71875 25.328125 54.824219-3.949218 26.613281-28.003906 46.683593-55.953125 46.683593h-23.425781v25c0 19.300781-15.703125 35-35 35zm0 0" fill="#d2fafa"/><path d="m415.050781 279.480469c5.796875-20.902344 7.375-42.269531 4.679688-63.703125-4.910157-39.066406-23.984375-75.332032-53.714844-102.121094-29.777344-26.835938-67.839844-41.980469-107.171875-42.640625-.949219-.015625-1.898438-.011719-2.84375-.011719v369.984375h70c19.296875 0 35-15.699219 35-35v-25h23.425781c27.949219 0 52.003907-20.070312 55.957031-46.683593 3.28125-22.109376-7.171874-43.476563-25.332031-54.824219zm0 0" fill="#aaebeb"/><path d="m196 260.988281c-24.8125 0-45-20.183593-45-45 0-24.8125 20.1875-44.996093 45-44.996093s45 20.183593 45 44.996093c0 24.816407-20.1875 45-45 45zm0 0" fill="#5a5a6b"/><path d="m316 260.988281c-24.8125 0-45-20.183593-45-45 0-24.8125 20.1875-44.996093 45-44.996093s45 20.183593 45 44.996093c0 24.816407-20.1875 45-45 45zm0 0" fill="#464655"/><path d="m201 440.988281v-40c0-8.28125 6.714844-15 15-15s15 6.71875 15 15v40zm0 0" fill="#5a5a6b"/><path d="m281 440.988281v-40c0-8.28125 6.714844-15 15-15s15 6.71875 15 15v40zm0 0" fill="#464655"/><path d="m286.011719 340.992188c-4.5625 0-9.0625-2.074219-12.011719-6.003907l-18-24-18 24c-4.96875 6.628907-14.371094 7.972657-21 3-6.625-4.96875-7.972656-14.371093-3-21l30-40c2.832031-3.773437 7.277344-6 12-6s9.167969 2.226563 12 6l30 40c4.972656 6.628907 3.625 16.03125-3 21-2.699219 2.023438-5.855469 3.003907-8.988281 3.003907zm0 0" fill="#5a5a6b"/><path d="m298 316.988281-30-40c-2.832031-3.773437-7.277344-6-12-6v40l18 24c2.945312 3.929688 7.449219 6.003907 12.011719 6.003907 3.132812 0 6.289062-.980469 8.988281-3.003907 6.625-4.96875 7.972656-14.371093 3-21zm0 0" fill="#464655"/></svg>