<svg height="512pt" viewBox="0 0 512 512" width="512pt" xmlns="http://www.w3.org/2000/svg"><path d="m423.722656 476.691406c9.429688-18.867187-11.429687-71.742187 0-75.839844v-91.886718l-26.480468-17.65625 26.480468-26.480469v-105.929687c0-87.757813-71.140625-158.898438-158.894531-158.898438s-158.898437 71.140625-158.898437 158.898438v132.410156l26.484374 44.140625-26.484374 17.652343v67.355469c12.617187 13.269531-3.097657 49.082031 0 73.886719h282.484374zm0 0" fill="#28384c"/><g fill="#fff"><path d="m326.621094 247.171875c-4.875 0-8.828125-3.945313-8.828125-8.828125v-88.273438c0-4.882812 3.953125-8.828124 8.828125-8.828124 4.871094 0 8.828125 3.945312 8.828125 8.828124v88.273438c0 4.882812-3.957031 8.828125-8.828125 8.828125zm0 0"/><path d="m353.101562 211.863281h-26.480468c-4.875 0-8.828125-3.945312-8.828125-8.828125v-52.964844c0-4.882812 3.953125-8.828124 8.828125-8.828124h26.480468c19.476563 0 35.3125 15.835937 35.3125 35.308593 0 19.472657-15.835937 35.3125-35.3125 35.3125zm-17.652343-17.65625h17.652343c9.738282 0 17.65625-7.917969 17.65625-17.65625 0-9.734375-7.917968-17.652343-17.65625-17.652343h-17.652343zm0 0"/><path d="m264.828125 247.171875c-4.875 0-8.828125-3.945313-8.828125-8.828125v-88.273438c0-4.882812 3.953125-8.828124 8.828125-8.828124 4.871094 0 8.828125 3.945312 8.828125 8.828124v88.273438c0 4.882812-3.957031 8.828125-8.828125 8.828125zm0 0"/><path d="m291.308594 247.171875h-52.964844c-4.871094 0-8.828125-3.945313-8.828125-8.828125 0-4.878906 3.957031-8.828125 8.828125-8.828125h52.964844c4.875 0 8.828125 3.949219 8.828125 8.828125 0 4.882812-3.953125 8.828125-8.828125 8.828125zm0 0"/><path d="m291.308594 158.898438h-52.964844c-4.871094 0-8.828125-3.949219-8.828125-8.828126 0-4.882812 3.957031-8.828124 8.828125-8.828124h52.964844c4.875 0 8.828125 3.945312 8.828125 8.828124 0 4.878907-3.953125 8.828126-8.828125 8.828126zm0 0"/><path d="m150.070312 247.171875c-4.875 0-8.828124-3.945313-8.828124-8.828125v-88.273438c0-4.882812 3.953124-8.828124 8.828124-8.828124 4.871094 0 8.828126 3.945312 8.828126 8.828124v88.273438c0 4.882812-3.957032 8.828125-8.828126 8.828125zm0 0"/><path d="m176.550781 211.863281h-26.480469c-4.875 0-8.828124-3.945312-8.828124-8.828125v-52.964844c0-4.882812 3.953124-8.828124 8.828124-8.828124h26.480469c19.472657 0 35.3125 15.835937 35.3125 35.308593 0 19.472657-15.839843 35.3125-35.3125 35.3125zm-17.652343-17.65625h17.652343c9.738281 0 17.65625-7.917969 17.65625-17.65625 0-9.734375-7.917969-17.652343-17.65625-17.652343h-17.652343zm0 0"/><path d="m203.042969 247.171875c-2.683594 0-5.332031-1.21875-7.070313-3.53125l-26.484375-35.308594c-2.921875-3.894531-2.136719-9.429687 1.765625-12.351562 3.902344-2.914063 9.4375-2.136719 12.359375 1.765625l26.484375 35.3125c2.921875 3.890625 2.136719 9.425781-1.765625 12.347656-1.589843 1.191406-3.453125 1.765625-5.289062 1.765625zm0 0"/></g><path d="m512 441.378906s-26.484375-35.308594-70.621094-8.828125v-35.308593s-35.308594 0-52.964844 35.308593v44.140625h79.449219s8.828125-35.3125 44.136719-35.3125zm0 0" fill="#61b872"/><path d="m44.136719 476.691406h88.277343c-8.828124-70.621094-79.449218-88.277344-79.449218-88.277344 26.484375 17.65625 8.828125 52.964844 8.828125 52.964844-26.484375-26.480468-61.792969 0-61.792969 0s44.136719 8.828125 44.136719 35.3125zm0 0" fill="#61b872"/><path d="m238.355469 485.515625c-.574219 0-1.160157-.050781-1.742188-.175781-4.785156-.953125-7.882812-5.605469-6.917969-10.390625l17.652344-88.273438c.53125-2.675781 2.269532-4.953125 4.707032-6.164062l70.621093-35.308594c4.351563-2.171875 9.65625-.425781 11.84375 3.945313 2.183594 4.359374.417969 9.667968-3.945312 11.847656l-66.753907 33.375-16.808593 84.046875c-.855469 4.203125-4.535157 7.097656-8.65625 7.097656zm0 0" fill="#52667c"/><path d="m291.320312 379.585938c-3.242187 0-6.355468-1.78125-7.902343-4.882813l-17.65625-35.308594c-2.179688-4.359375-.414063-9.667969 3.949219-11.847656 4.351562-2.160156 9.65625-.414063 11.84375 3.945313l17.65625 35.3125c2.179687 4.359374.414062 9.664062-3.945313 11.847656-1.273437.632812-2.621094.933594-3.945313.933594zm0 0" fill="#52667c"/><path d="m247.164062 441.378906c-1.84375 0-3.699218-.574218-5.289062-1.765625l-35.308594-26.480469c-3.902344-2.921874-4.6875-8.457031-1.765625-12.351562 2.929688-3.902344 8.457031-4.679688 12.359375-1.765625l35.308594 26.484375c3.902344 2.921875 4.6875 8.457031 1.765625 12.347656-1.730469 2.3125-4.386719 3.53125-7.070313 3.53125zm0 0" fill="#52667c"/><path d="m211.863281 105.929688c-4.875 0-8.828125-3.945313-8.828125-8.828126v-35.308593c0-4.882813 3.953125-8.828125 8.828125-8.828125 4.871094 0 8.828125 3.945312 8.828125 8.828125v35.308593c0 4.882813-3.957031 8.828126-8.828125 8.828126zm0 0" fill="#52667c"/><path d="m0 476.691406h512v35.308594h-512zm0 0" fill="#556080"/><path d="m205.621094 68.035156c1.652344 1.660156 3.902344 2.585938 6.242187 2.585938h52.964844c4.871094 0 8.828125-3.945313 8.828125-8.828125 0-4.882813-3.957031-8.828125-8.828125-8.828125h-49.3125l-31-31.011719c-5.191406 3.054687-10.179687 6.390625-14.972656 10.003906zm0 0" fill="#52667c"/></svg>