<svg height="512pt" viewBox="-7 0 512 512.0001" width="512pt" xmlns="http://www.w3.org/2000/svg"><path d="m58.675781 512c-6.484375 0-12.941406-1.417969-18.992187-4.238281-10.894532-5.082031-19.15625-14.101563-23.265625-25.394531-2.390625-6.558594-3.171875-13.542969-2.359375-20.421876-5.042969-4.75-8.933594-10.605468-11.320313-17.164062-4.109375-11.292969-3.578125-23.515625 1.5-34.40625 5.082031-10.894531 14.097657-19.160156 25.394531-23.269531 14.238282-5.183594 29.953126-2.6875 41.875 6.042969l324.589844-118.140626c3.519532-14.351562 13.957032-26.363281 28.195313-31.546874 11.292969-4.109376 23.515625-3.578126 34.40625 1.503906 10.894531 5.078125 19.15625 14.097656 23.269531 25.390625 2.386719 6.558593 3.167969 13.542969 2.359375 20.425781 5.042969 4.75 8.929687 10.601562 11.320313 17.160156 8.484374 23.316406-3.578126 49.1875-26.894532 57.675782-14.238281 5.183593-29.957031 2.6875-41.878906-6.039063l-324.585938 118.140625c-3.523437 14.347656-13.960937 26.363281-28.195312 31.542969-5.023438 1.828125-10.226562 2.738281-15.417969 2.738281zm0 0" fill="#82dcdc"/><path d="m495.648438 307.945312c-2.390626-6.5625-6.277344-12.414062-11.320313-17.164062.808594-6.878906.027344-13.867188-2.359375-20.425781-4.113281-11.292969-12.375-20.3125-23.269531-25.390625-10.890625-5.078125-23.113281-5.613282-34.40625-1.503906-14.238281 5.183593-24.675781 17.195312-28.195313 31.546874l-146.90625 53.46875v95.773438l177.683594-64.671875c11.925781 8.726563 27.640625 11.222656 41.878906 6.039063 23.3125-8.484376 35.378906-34.359376 26.894532-57.671876zm0 0" fill="#6dc8c8"/><path d="m439.707031 512c-5.1875 0-10.394531-.910156-15.417969-2.738281-14.234374-5.179688-24.671874-17.195313-28.195312-31.542969l-324.585938-118.140625c-11.921874 8.726563-27.640624 11.222656-41.875 6.042969-23.316406-8.488282-35.382812-34.363282-26.898437-57.679688 2.390625-6.558594 6.277344-12.410156 11.320313-17.160156-.808594-6.878906-.027344-13.867188 2.363281-20.425781 4.109375-11.292969 12.371093-20.3125 23.265625-25.390625 10.894531-5.082032 23.113281-5.613282 34.40625-1.503906 14.238281 5.183593 24.675781 17.195312 28.195312 31.546874l324.589844 118.140626c11.921875-8.730469 27.640625-11.222657 41.875-6.042969 11.296875 4.109375 20.3125 12.375 25.394531 23.269531 5.078125 10.894531 5.613281 23.113281 1.503907 34.40625-2.390626 6.5625-6.277344 12.414062-11.320313 17.164062.808594 6.878907.023437 13.863282-2.363281 20.425782-4.109375 11.292968-12.371094 20.3125-23.265625 25.390625-6.050781 2.820312-12.507813 4.238281-18.992188 4.238281zm0 0" fill="#aaebeb"/><path d="m494.144531 410.375c-5.078125-10.894531-14.097656-19.160156-25.394531-23.269531-14.234375-5.179688-29.953125-2.6875-41.875 6.042969l-177.683594-64.671876v95.773438l146.902344 53.46875c3.523438 14.347656 13.960938 26.359375 28.195312 31.542969 5.023438 1.828125 10.230469 2.738281 15.417969 2.738281 6.480469 0 12.941407-1.417969 18.992188-4.238281 10.894531-5.082031 19.15625-14.101563 23.265625-25.394531 2.386718-6.558594 3.171875-13.542969 2.359375-20.421876 5.042969-4.75 8.933593-10.605468 11.320312-17.164062 4.113281-11.292969 3.578125-23.511719-1.5-34.40625zm0 0" fill="#82dcdc"/><path d="m319.191406 369.988281h-139.996094c-19.300781 0-35-15.699219-35-34.996093v-42.980469c-39.625-32.746094-61.890624-82.136719-59.867187-133.617188 3.320313-84.632812 72.15625-154.121093 156.714844-158.199219 45.648437-2.1875 88.96875 13.898438 121.957031 45.335938 33.007812 31.457031 51.1875 73.882812 51.1875 119.464844 0 26.347656-6.0625 51.527344-18.011719 74.839844-10.210937 19.917968-24.640625 37.820312-41.988281 52.171874v42.984376c0 19.296874-15.699219 34.996093-34.996094 34.996093zm0 0" fill="#d2fafa"/><path d="m363 45.53125c-31.019531-29.558594-71.171875-45.5429688-113.808594-45.52734375v369.98437475h69.996094c19.300781 0 35-15.699219 35-34.996093v-42.984376c17.347656-14.351562 31.777344-32.253906 41.988281-52.171874 11.949219-23.3125 18.011719-48.492188 18.011719-74.839844 0-45.582032-18.179688-88.007813-51.1875-119.464844zm0 0" fill="#aaebeb"/><path d="m194.195312 369.988281v-39.996093c0-8.285157 6.714844-15 14.996094-15 8.285156 0 15 6.714843 15 15v39.996093zm0 0" fill="#5a5a6b"/><path d="m274.191406 369.988281v-39.996093c0-8.285157 6.714844-15 15-15 8.28125 0 15 6.714843 15 15v39.996093zm0 0" fill="#464655"/><path d="m189.195312 189.996094c-24.8125 0-45-20.1875-45-45s20.1875-45 45-45 44.996094 20.1875 44.996094 45-20.183594 45-44.996094 45zm0 0" fill="#5a5a6b"/><path d="m309.191406 189.996094c-24.8125 0-45-20.1875-45-45s20.1875-45 45-45 44.996094 20.1875 44.996094 45-20.183594 45-44.996094 45zm0 0" fill="#464655"/><path d="m279.203125 269.992188c-4.5625 0-9.066406-2.070313-12.011719-6l-18-24-18 24c-4.96875 6.628906-14.371094 7.972656-21 3-6.625-4.972657-7.96875-14.371094-3-21l30-40c2.832032-3.773438 7.277344-5.996094 12-5.996094s9.167969 2.222656 12 5.996094l30 40c4.96875 6.628906 3.625 16.027343-3 21-2.699218 2.023437-5.859375 3-8.988281 3zm0 0" fill="#5a5a6b"/><path d="m291.191406 245.992188-30-40c-2.832031-3.773438-7.277344-5.996094-12-5.996094v39.996094l18 24c2.945313 3.929687 7.449219 6 12.011719 6 3.132813 0 6.289063-.976563 8.988281-3 6.625-4.972657 7.96875-14.371094 3-21zm0 0" fill="#464655"/></svg>