<svg height="484pt" viewBox="0 -2 484.728 484" width="484pt" xmlns="http://www.w3.org/2000/svg"><path d="m394.546875 471.996094 7.976563-160 15.980468.796875-7.976562 160zm0 0" fill="#ffd782"/><path d="m369.644531 344.449219 71.996094-7.992188 1.765625 15.902344-71.996094 7.992187zm0 0" fill="#ffd782"/><path d="m442.550781 369.011719 15.953125-1.226563 8 103.996094-15.953125 1.226562zm0 0" fill="#ffd782"/><path d="m424.332031 392.710938 55.996094-16 4.398437 15.390624-55.996093 16.003907zm0 0" fill="#ffd782"/><path d="m42.507812 471.773438 16.09375-207.996094 15.949219 1.234375-16.089843 207.996093zm0 0" fill="#ffd782"/><path d="m9.867188 296.429688 96-8 1.328124 15.9375-96 8zm0 0" fill="#ffd782"/><path d="m322.527344 472.402344h-160l-64-368 48-96h192l48 96zm0 0" fill="#5c067c"/><path d="m138.527344 104.402344 56 336h96l56-336-32-64h-144zm0 0" fill="#8d28ad"/><path d="m306.527344 104.402344h-48v-32h-32v32h-48v32h48v160h32v-160h48zm0 0" fill="#ffd782"/><g fill="#301a12"><path d="m158.96875 199.058594-8.878906-13.3125 27.253906-18.175782 27.710938 9.246094-5.054688 15.167969-20.289062-6.75zm0 0"/><path d="m320 263.984375-27.144531-9.046875-9.488281-18.960938 14.320312-7.148437 6.511719 13.039063 20.855469 6.949218zm0 0"/><path d="m193.6875 83.976562-14.320312-7.148437 5.425781-10.851563-19.921875-19.917968 11.3125-11.3125 28.082031 28.082031zm0 0"/><path d="m166.105469 279.5625-7.152344-14.320312 29.03125-14.511719 6.953125-20.855469 15.183594 5.054688-9.050782 27.144531zm0 0"/><path d="m253.054688 351.984375-5.054688-15.167969 20.855469-6.949218 8.730469-17.464844h36.941406v16h-27.054688l-7.273437 14.535156zm0 0"/><path d="m192.183594 406.058594-11.3125-11.3125 21.65625-21.65625v-30.574219l8.839844-17.6875 14.320312 7.148437-7.160156 14.3125v33.425782zm0 0"/><path d="m208.582031 368.648438 31.996094-8.007813 3.882813 15.511719-31.996094 8.007812zm0 0"/><path d="m284.128906 445.203125-22.167968-29.5625-37-7.398437 3.136718-15.679688 43 8.601562 25.832032 34.4375zm0 0"/><path d="m258.773438 406.46875 7.988281-32.003906 15.523437 3.875-7.988281 32.003906zm0 0"/><path d="m305.6875 187.976562-14.320312-7.148437 9.648437-19.289063 35.570313-8.898437 3.886718 15.523437-28.433594 7.101563zm0 0"/></g><path d="m2.527344 464.402344h64v16h-64zm0 0" fill="#d3843d"/><path d="m82.527344 464.402344h16v16h-16zm0 0" fill="#d3843d"/><path d="m114.527344 464.402344h368v16h-368zm0 0" fill="#d3843d"/><path d="m42.527344 40.402344c-1.238282.011718-2.460938-.261719-3.574219-.800782l-13.042969-6.558593-20.855468 6.941406-5.054688-15.199219 24-8c2.007812-.683594 4.207031-.53125 6.105469.425782l12.421875 6.246093 12.425781-6.214843c1.894531-.957032 4.09375-1.109376 6.101563-.425782l24 8-5.054688 15.203125-20.855469-6.976562-13.039062 6.558593c-1.117188.539063-2.339844.8125-3.578125.800782zm0 0" fill="#301a12"/><path d="m434.527344 24.402344c-1.242188 0-2.464844-.285156-3.574219-.839844l-13.042969-6.519531-20.855468 6.941406-5.054688-15.199219 24-8c2.007812-.683594 4.210938-.53125 6.105469.425782l12.421875 6.246093 12.425781-6.214843c1.894531-.953126 4.09375-1.109376 6.101563-.425782l24 8-5.054688 15.203125-20.855469-6.976562-13.039062 6.519531c-1.113281.554688-2.335938.839844-3.578125.839844zm0 0" fill="#301a12"/><path d="m319.472656 32.402344h-153.886718l-35.378907 70.75 57.546875 345.25h109.550782l57.542968-345.25zm-33.746094 388.246094-10.496093-14 7.074219-28.308594-15.519532-3.875-6.152344 24.601562-32.503906-6.503906-3.199218 15.679688 37 7.398437 12.597656 16.761719h-73.222656l-5.066407-30.398438 18.402344-18.402344 29.847656-7.464843-3.886719-15.519531-22.074218 5.546874v-19.875l7.160156-14.3125-14.320312-7.148437-8.839844 17.6875v30.574219l-9.519532 9.519531-17.929687-107.542969 25.992187-12.992187 9.050782-27.144531-15.199219-5.054688-6.953125 20.855469-15.65625 7.824219-10.257812-61.601563 17.601562-11.75 20.289062 6.75 5.054688-15.199219-27.65625-9.152344-18.160156 12.113282-12.335938-74.066406 25.871094-51.742188 12.074219 12.097656-5.425781 10.847656 14.320312 7.152344 10.578125-21.203125-14.425781-14.398437h119.746094l28.621093 57.246094-8.101562 48.617187-29.089844 7.273437-9.6875 19.289063 14.320313 7.148437 6.351562-12.710937 15.199219-3.800781-12.328125 73.96875-10.710938-3.566406-6.511718-13.039063-14.320313 7.148437 9.488281 18.960938 19.390625 6.464844-8.453125 51h-26.167968l-8.730469 17.464844-20.855469 6.949218 5.054688 15.203125 27.144531-9.050781 7.273437-14.566406h13.597656zm0 0"/><path d="m266.527344 144.402344h48v-48h-48v-32h-48v32h-48v48h48v160h48zm-16 144h-16v-160h-48v-16h48v-32h16v32h48v16h-48zm0 0"/><path d="m82.527344 464.402344h16v16h-16zm0 0"/><path d="m484.726562 392.097656-4.398437-15.390625-20.679687 5.910157-1.121094-14.832032-16 1.234375 1.394531 18.085938-19.617187 5.601562 4.398437 15.390625 16.464844-4.703125 4.71875 61.007813h-38.949219l5.453125-109.046875 27.015625-3-1.757812-15.90625-24.449219 2.714843 1.328125-26.363281-16-.796875-1.449219 28.949219-31.4375 3.496094 1.757813 15.90625 28.875-3.203125-5.351563 107.25h-62.882813l62.824219-361.222656-51.390625-102.777344h-201.886718l-51.394532 102.777344 62.824219 361.222656h-38.488281v16h368v-16h-16.589844l-5.042969-65.496094zm-315.46875 72.304688-62.402343-358.777344 44.617187-89.222656h182.113282l44.605468 89.222656-62.390625 358.777344zm0 0"/><path d="m72.488281 291.21875 2.015625-26.199219-15.953125-1.234375-2.214843 28.777344-46.472657 3.871094 1.328125 15.9375 43.90625-3.65625-11.976562 155.6875h-40.59375v16h64v-16h-7.359375l12.078125-157.03125 35.945312-3-1.328125-15.9375zm0 0"/><path d="m25.910156 33.042969 13.042969 6.519531c2.25 1.125 4.898437 1.125 7.152344 0l13.039062-6.519531 20.855469 6.941406 5.054688-15.199219-24-8c-2.007813-.683594-4.207032-.53125-6.101563.425782l-12.425781 6.246093-12.421875-6.214843c-1.898438-.953126-4.097657-1.109376-6.105469-.425782l-24 8 5.054688 15.203125zm0 0"/><path d="m446.953125 1.242188-12.425781 6.214843-12.421875-6.214843c-1.894531-.957032-4.097657-1.109376-6.105469-.425782l-24 8 5.054688 15.203125 20.855468-6.945312 13.042969 6.519531c2.25 1.125 4.898437 1.125 7.152344 0l13.039062-6.519531 20.855469 6.945312 5.054688-15.203125-24-8c-2.007813-.683594-4.207032-.527344-6.101563.425782zm0 0"/></svg>