<svg height="484pt" viewBox="0 -2 484.72755 484" width="484pt" xmlns="http://www.w3.org/2000/svg"><path d="m394.546875 471.996094 7.976563-160 15.980468.796875-7.976562 160zm0 0" fill="#ffd782"/><path d="m369.644531 344.449219 71.996094-7.992188 1.765625 15.902344-71.996094 7.992187zm0 0" fill="#ffd782"/><path d="m442.550781 369.011719 15.953125-1.226563 8 103.996094-15.953125 1.226562zm0 0" fill="#ffd782"/><path d="m424.332031 392.710938 55.996094-16 4.398437 15.390624-55.996093 16.003907zm0 0" fill="#ffd782"/><path d="m42.507812 471.773438 16.09375-207.996094 15.949219 1.234375-16.089843 207.996093zm0 0" fill="#ffd782"/><path d="m9.867188 296.429688 96-8 1.328124 15.9375-96 8zm0 0" fill="#ffd782"/><path d="m322.527344 472.402344h-160l-64-368 48-96h192l48 96zm0 0" fill="#5c067c"/><path d="m138.527344 104.402344 56 336h96l56-336-32-64h-144zm0 0" fill="#8d28ad"/><path d="m306.527344 104.402344h-48v-32h-32v32h-48v32h48v160h32v-160h48zm0 0" fill="#ffd782"/><g fill="#301a12"><path d="m158.96875 199.058594-8.878906-13.3125 27.253906-18.175782 27.710938 9.246094-5.054688 15.167969-20.289062-6.75zm0 0"/><path d="m320 263.984375-27.144531-9.046875-9.488281-18.960938 14.320312-7.152343 6.511719 13.042969 20.855469 6.949218zm0 0"/><path d="m193.6875 83.976562-14.320312-7.152343 5.425781-10.847657-19.921875-19.917968 11.3125-11.3125 28.082031 28.078125zm0 0"/><path d="m166.105469 279.5625-7.152344-14.320312 29.03125-14.511719 6.953125-20.855469 15.183594 5.054688-9.050782 27.144531zm0 0"/><path d="m253.054688 351.984375-5.054688-15.167969 20.855469-6.949218 8.730469-17.464844h36.941406v16h-27.054688l-7.273437 14.535156zm0 0"/><path d="m192.183594 406.058594-11.3125-11.3125 21.65625-21.65625v-30.574219l8.839844-17.691406 14.320312 7.152343-7.160156 14.3125v33.425782zm0 0"/><path d="m208.582031 368.644531 31.996094-8.003906 3.882813 15.511719-31.996094 8.007812zm0 0"/><path d="m284.128906 445.203125-22.167968-29.5625-37-7.398437 3.136718-15.679688 43 8.597656 25.832032 34.441406zm0 0"/><path d="m258.773438 406.46875 7.988281-32.003906 15.523437 3.875-7.988281 32.003906zm0 0"/><path d="m305.6875 187.976562-14.320312-7.152343 9.648437-19.285157 35.570313-8.898437 3.886718 15.519531-28.433594 7.105469zm0 0"/></g><path d="m2.527344 464.402344h64v16h-64zm0 0" fill="#d3843d"/><path d="m82.527344 464.402344h16v16h-16zm0 0" fill="#d3843d"/><path d="m114.527344 464.402344h368v16h-368zm0 0" fill="#d3843d"/><path d="m42.527344 40.402344c-1.238282.011718-2.460938-.261719-3.574219-.800782l-13.042969-6.558593-20.855468 6.941406-5.054688-15.199219 24-8c2.007812-.683594 4.207031-.53125 6.105469.425782l12.421875 6.246093 12.425781-6.214843c1.894531-.957032 4.09375-1.109376 6.101563-.425782l24 8-5.054688 15.203125-20.855469-6.976562-13.039062 6.558593c-1.117188.539063-2.339844.8125-3.578125.800782zm0 0" fill="#301a12"/><path d="m434.527344 24.402344c-1.242188 0-2.464844-.285156-3.574219-.839844l-13.042969-6.519531-20.855468 6.941406-5.054688-15.199219 24-8c2.007812-.683594 4.210938-.53125 6.105469.425782l12.421875 6.246093 12.425781-6.214843c1.894531-.957032 4.09375-1.109376 6.101563-.425782l24 8-5.054688 15.203125-20.855469-6.976562-13.039062 6.519531c-1.113281.554688-2.335938.839844-3.578125.839844zm0 0" fill="#301a12"/></svg>