<?xml version="1.0" encoding="iso-8859-1"?>
<!-- Generator: Adobe Illustrator 19.0.0, SVG Export Plug-In . SVG Version: 6.00 Build 0)  -->
<svg version="1.1" id="Capa_1" xmlns="http://www.w3.org/2000/svg" xmlns:xlink="http://www.w3.org/1999/xlink" x="0px" y="0px"
	 viewBox="0 0 512.843 512.843" style="enable-background:new 0 0 512.843 512.843;" xml:space="preserve">
<g>
	<path d="M232.382,143.071c0,15.444-12.53,27.973-27.973,27.973c-15.444,0-27.973-12.53-27.973-27.973
		c0-15.444,12.53-27.973,27.973-27.973C219.852,115.098,232.382,127.628,232.382,143.071z M304.063,115.098
		c-15.444,0-27.973,12.53-27.973,27.973s12.53,27.973,27.973,27.973c15.444,0,27.973-12.53,27.973-27.973
		C332.036,127.628,319.507,115.098,304.063,115.098z M422.658,166.091c0,64.688-39.629,83.92-81.589,98.781v46.913
		c0,9.616-7.867,17.483-17.483,17.483H189.548c-9.616,0-17.483-7.867-17.483-17.483v-46.622
		c-41.96-13.987-81.88-32.635-81.88-99.072C90.185,74.595,164.78,0,256.276,0C348.063,0,422.658,74.595,422.658,166.091z
		 M387.692,166.091c0-72.264-58.86-131.125-131.125-131.125s-131.125,58.86-131.125,131.125c0,43.417,18.066,53.033,69.642,69.642
		c7.285,2.331,12.238,9.033,12.238,16.609v41.96h99.072v-41.96c0-7.576,4.662-13.987,11.947-16.609
		C366.129,219.124,387.692,210.091,387.692,166.091z M402.552,512.843c6.411,0,12.53-3.497,15.444-9.616
		c4.371-8.742,0.874-19.232-7.576-23.602L293.282,419.89l116.264-61.774c8.45-4.662,11.656-15.152,7.285-23.602
		c-4.662-8.45-15.152-11.656-23.602-7.285l-137.826,73.43l-131.416-67.019c-8.742-4.371-19.232-0.874-23.602,7.576
		c-4.371,8.742-0.874,19.232,7.576,23.602l109.562,55.946l-108.396,57.695c-8.45,4.662-11.656,15.152-7.285,23.602
		c3.205,5.828,9.324,9.324,15.444,9.324c2.914,0,5.536-0.583,8.159-2.04l129.959-69.35l138.992,70.807
		C397.307,512.26,399.93,512.843,402.552,512.843z"/>
</g>
<g>
</g>
<g>
</g>
<g>
</g>
<g>
</g>
<g>
</g>
<g>
</g>
<g>
</g>
<g>
</g>
<g>
</g>
<g>
</g>
<g>
</g>
<g>
</g>
<g>
</g>
<g>
</g>
<g>
</g>
</svg>
